# This file uses centimeters as units for non-parametric coordinates.

mtllib mast.mtl
g default
v 0.645724 -2.289540 -0.372809
v 0.372809 -2.289540 -0.645723
v 0.000000 -2.289540 -0.745617
v -0.372809 -2.289540 -0.645723
v -0.645724 -2.289540 -0.372809
v -0.745618 -2.289540 0.000000
v -0.645724 -2.289540 0.372809
v -0.372809 -2.289540 0.645723
v 0.000000 -2.289540 0.745617
v 0.372809 -2.289540 0.645723
v 0.645724 -2.289540 0.372809
v 0.745618 -2.289540 0.000000
v 0.515260 2.754137 -0.297485
v 0.297485 2.754137 -0.515260
v 0.000000 2.754137 -0.594971
v -0.297485 2.754137 -0.515260
v -0.515260 2.754137 -0.297485
v -0.594971 2.754137 0.000000
v -0.515260 2.754137 0.297485
v -0.297485 2.754137 0.515260
v 0.000000 2.754137 0.594971
v 0.297485 2.754137 0.515260
v 0.515260 2.754137 0.297485
v 0.594971 2.754137 0.000000
v 0.000000 -2.289540 0.000000
v 0.000000 2.754137 0.000000
v 0.785765 -2.754137 -0.453662
v 0.453662 -2.754137 -0.785765
v 0.000000 -2.754137 -0.907324
v -0.453662 -2.754137 -0.785765
v -0.785765 -2.754137 -0.453662
v -0.907324 -2.754137 0.000000
v -0.785765 -2.754137 0.453662
v -0.453662 -2.754137 0.785765
v 0.000000 -2.754137 0.907324
v 0.453662 -2.754137 0.785765
v 0.785765 -2.754137 0.453662
v 0.907324 -2.754137 0.000000
v 0.785765 -1.871601 -0.453662
v 0.453662 -1.871601 -0.785765
v 0.000000 -1.871601 -0.907324
v -0.453662 -1.871601 -0.785765
v -0.785765 -1.871601 -0.453662
v -0.907324 -1.871601 0.000000
v -0.785765 -1.871601 0.453662
v -0.453662 -1.871601 0.785765
v 0.000000 -1.871601 0.907324
v 0.453662 -1.871601 0.785765
v 0.785765 -1.871601 0.453662
v 0.907324 -1.871601 0.000000
v 0.000000 -2.754137 0.000000
v 0.000000 -1.871601 0.000000
vt 0.045464 0.180411
vt 0.089006 0.176187
vt 0.139839 0.745857
vt 0.105094 0.749228
vt 0.132609 0.172636
vt 0.174631 0.743023
vt 0.001992 0.185309
vt 0.070405 0.753135
vt 0.176261 0.169758
vt 0.209464 0.740727
vt 0.307411 0.165181
vt 0.351157 0.165006
vt 0.349023 0.736931
vt 0.314115 0.737071
vt 0.394900 0.165507
vt 0.383929 0.737331
vt 0.263672 0.166030
vt 0.279214 0.737751
vt 0.438631 0.166684
vt 0.418824 0.738271
vt 0.699284 0.922934
vt 0.699281 0.869693
vt 0.799322 0.869689
vt 0.799322 0.922932
vt 0.699278 0.816448
vt 0.799321 0.816446
vt 0.699287 0.976173
vt 0.799322 0.976170
vt 0.699273 0.763203
vt 0.799322 0.763200
vt 0.699284 0.603484
vt 0.699275 0.550247
vt 0.799309 0.550246
vt 0.799302 0.603481
vt 0.699272 0.497013
vt 0.799310 0.497011
vt 0.699322 0.656713
vt 0.799271 0.656708
vt 0.699271 0.443776
vt 0.799309 0.443774
vt 0.365158 0.060541
vt 0.366004 0.104280
vt 0.283963 0.083989
vt 0.342557 0.023085
vt 0.344867 0.142580
vt 0.304255 0.001948
vt 0.260516 0.002794
vt 0.225370 0.144894
vt 0.223060 0.025396
vt 0.201923 0.063698
vt 0.202769 0.107437
vt 0.297938 0.802537
vt 0.362724 0.783813
vt 0.363406 0.818715
vt 0.346547 0.849281
vt 0.344682 0.753930
vt 0.316662 0.867323
vt 0.281761 0.868005
vt 0.249330 0.755792
vt 0.251194 0.851145
vt 0.233152 0.821261
vt 0.232470 0.786359
vt 0.527388 0.610287
vt 0.573537 0.583762
vt 0.599966 0.683150
vt 0.500687 0.656340
vt 0.626757 0.583864
vt 0.672786 0.610569
vt 0.500586 0.709573
vt 0.527115 0.755727
vt 0.699261 0.709952
vt 0.573169 0.782433
vt 0.626404 0.782536
vt 0.672557 0.756005
vt 0.898627 0.683147
vt 0.925058 0.583759
vt 0.971206 0.610286
vt 0.997907 0.656336
vt 0.825807 0.610563
vt 0.871837 0.583858
vt 0.998008 0.709571
vt 0.971477 0.755724
vt 0.799332 0.709951
vt 0.925425 0.782430
vt 0.872190 0.782534
vt 0.826036 0.756004
vt 0.482338 0.168537
vt 0.453700 0.739749
vt 0.526012 0.171065
vt 0.488550 0.741767
vt 0.219952 0.167556
vt 0.244328 0.738969
vt 0.699272 0.390538
vt 0.799307 0.390538
vt 0.699273 0.337301
vt 0.799305 0.337300
vn 0.865639 0.029855 -0.499777
vn 0.499777 0.029855 -0.865639
vn 0.499777 0.029855 -0.865639
vn 0.865639 0.029855 -0.499777
vn -0.000000 0.029855 -0.999554
vn -0.000000 0.029855 -0.999554
vn -0.499777 0.029855 -0.865639
vn -0.499777 0.029855 -0.865640
vn -0.865639 0.029855 -0.499777
vn -0.865639 0.029855 -0.499777
vn -0.999554 0.029855 -0.000000
vn -0.999554 0.029855 -0.000000
vn -0.865639 0.029855 0.499777
vn -0.865639 0.029855 0.499777
vn -0.499777 0.029855 0.865639
vn -0.499777 0.029855 0.865639
vn 0.000000 0.029855 0.999554
vn 0.000000 0.029855 0.999554
vn 0.499777 0.029855 0.865639
vn 0.499777 0.029855 0.865640
vn 0.865639 0.029855 0.499777
vn 0.865639 0.029855 0.499777
vn 0.999554 0.029855 0.000000
vn 0.999554 0.029855 0.000000
vn 0.000000 -1.000000 0.000000
vn 0.000000 -1.000000 0.000000
vn 0.000000 -1.000000 0.000000
vn 0.000000 -1.000000 0.000000
vn 0.000000 -1.000000 0.000000
vn 0.000000 -1.000000 -0.000000
vn 0.000000 -1.000000 -0.000000
vn 0.000000 -1.000000 -0.000000
vn 0.000000 -1.000000 0.000000
vn 0.000000 -1.000000 0.000000
vn 0.000000 -1.000000 0.000000
vn 0.000000 -1.000000 0.000000
vn 0.000000 -1.000000 0.000000
vn 0.000000 1.000000 -0.000000
vn 0.000000 1.000000 -0.000000
vn 0.000000 1.000000 -0.000000
vn 0.000000 1.000000 -0.000001
vn 0.000000 1.000000 -0.000001
vn 0.000000 1.000000 -0.000000
vn 0.000000 1.000000 0.000000
vn 0.000000 1.000000 0.000000
vn 0.000000 1.000000 0.000000
vn 0.000000 1.000000 0.000001
vn 0.000000 1.000000 0.000001
vn 0.000000 1.000000 0.000000
vn 0.000000 1.000000 0.000000
vn 0.866025 0.000000 -0.500000
vn 0.500000 0.000000 -0.866025
vn 0.500000 0.000000 -0.866025
vn 0.866025 0.000000 -0.500000
vn 0.000000 0.000000 -1.000000
vn 0.000000 0.000000 -1.000000
vn -0.500000 0.000000 -0.866025
vn -0.500000 0.000000 -0.866025
vn -0.866025 0.000000 -0.500000
vn -0.866025 0.000000 -0.500000
vn -1.000000 0.000000 0.000000
vn -1.000000 0.000000 0.000000
vn -0.866025 0.000000 0.500000
vn -0.866025 0.000000 0.500000
vn -0.500000 0.000000 0.866025
vn -0.500000 0.000000 0.866025
vn 0.000000 0.000000 1.000000
vn 0.000000 0.000000 1.000000
vn 0.500000 0.000000 0.866025
vn 0.500000 0.000000 0.866025
vn 0.866025 0.000000 0.500000
vn 0.866025 0.000000 0.500000
vn 1.000000 0.000000 0.000000
vn 1.000000 0.000000 0.000000
vn 0.000000 -1.000000 0.000000
vn 0.000000 -1.000000 0.000000
vn 0.000000 -1.000000 -0.000000
vn 0.000000 -1.000000 0.000000
vn 0.000000 -1.000000 0.000000
vn 0.000000 -1.000000 -0.000000
vn 0.000000 -1.000000 -0.000000
vn 0.000000 -1.000000 -0.000000
vn 0.000000 -1.000000 -0.000000
vn 0.000000 -1.000000 -0.000000
vn 0.000000 -1.000000 -0.000000
vn 0.000000 -1.000000 0.000000
vn 0.000000 -1.000000 0.000000
vn 0.000000 1.000000 0.000000
vn 0.000000 1.000000 0.000000
vn 0.000000 1.000000 0.000000
vn 0.000000 1.000000 0.000000
vn 0.000000 1.000000 0.000000
vn 0.000000 1.000000 0.000000
vn 0.000000 1.000000 0.000000
vn 0.000000 1.000000 -0.000000
vn 0.000000 1.000000 -0.000000
vn 0.000000 1.000000 -0.000000
vn 0.000000 1.000000 -0.000000
vn 0.000000 1.000000 -0.000000
vn 0.000000 1.000000 0.000000
s 1
g mast
usemtl initialShadingGroup
f 1/15/1 2/19/2 14/20/3 13/16/4
f 2/19/2 3/87/5 15/88/6 14/20/3
f 3/87/5 4/89/7 16/90/8 15/88/6
f 4/7/7 5/1/9 17/4/10 16/8/8
f 5/1/9 6/2/11 18/3/12 17/4/10
f 6/2/11 7/5/13 19/6/14 18/3/12
f 7/5/13 8/9/15 20/10/16 19/6/14
f 8/9/15 9/91/17 21/92/18 20/10/16
f 9/91/17 10/17/19 22/18/20 21/92/18
f 10/17/19 11/11/21 23/14/22 22/18/20
f 11/11/21 12/12/23 24/13/24 23/14/22
f 12/12/23 1/15/1 13/16/4 24/13/24
s 2
f 2/41/25 1/42/26 25/43/27 3/44/28
f 4/46/29 3/44/28 25/43/27 5/47/30
f 6/49/31 5/47/30 25/43/27 7/50/32
f 8/51/33 7/50/32 25/43/27 9/48/34
f 10/17/35 9/48/34 25/43/27 11/11/36
f 12/45/37 11/11/36 25/43/27 1/42/26
s 3
f 26/52/38 13/53/39 14/54/40 15/55/41
f 26/52/38 15/55/41 16/57/42 17/58/43
f 26/52/38 17/58/43 18/60/44 19/61/45
f 26/52/38 19/61/45 20/62/46 21/59/47
f 26/52/38 21/59/47 22/18/48 23/14/49
f 26/52/38 23/14/49 24/56/50 13/53/39
s 4
f 27/35/51 28/39/52 40/40/53 39/36/54
f 28/39/52 29/93/55 41/94/56 40/40/53
f 29/93/55 30/95/57 42/96/58 41/94/56
f 30/27/57 31/21/59 43/24/60 42/28/58
f 31/21/59 32/22/61 44/23/62 43/24/60
f 32/22/61 33/25/63 45/26/64 44/23/62
f 33/25/63 34/29/65 46/30/66 45/26/64
f 34/29/65 35/71/67 47/83/68 46/30/66
f 35/71/67 36/37/69 48/38/70 47/83/68
f 36/37/69 37/31/71 49/34/72 48/38/70
f 37/31/71 38/32/73 50/33/74 49/34/72
f 38/32/73 27/35/51 39/36/54 50/33/74
s 5
f 28/63/75 27/64/76 51/65/77 29/66/78
f 30/69/79 29/66/78 51/65/77 31/70/80
f 32/72/81 31/70/80 51/65/77 33/73/82
f 34/74/83 33/73/82 51/65/77 35/71/84
f 36/37/85 35/71/84 51/65/77 37/68/86
f 38/67/87 37/68/86 51/65/77 27/64/76
s 6
f 52/75/88 39/76/89 40/77/90 41/78/91
f 52/75/88 41/78/91 42/81/92 43/82/93
f 52/75/88 43/82/93 44/84/94 45/85/95
f 52/75/88 45/85/95 46/86/96 47/83/97
f 52/75/88 47/83/97 48/38/98 49/79/99
f 52/75/88 49/79/99 50/80/100 39/76/89
