# This file uses centimeters as units for non-parametric coordinates.

mtllib floorLP.mtl
g default
v -2.382706 -0.213684 1.608027
v -2.382706 -0.149586 1.672126
v -2.446805 -0.149586 1.608027
v 2.446805 -0.149586 1.608027
v 2.382706 -0.149586 1.672126
v 2.382706 -0.213684 1.608027
v -2.446805 0.149586 1.608027
v -2.382706 0.149586 1.672126
v -2.382706 0.213684 1.608027
v 2.382706 0.213684 1.608027
v 2.382706 0.149586 1.672126
v 2.446805 0.149586 1.608027
v -2.446805 0.149586 -1.608027
v -2.382706 0.213684 -1.608027
v -2.382706 0.149586 -1.672126
v 2.382706 0.149586 -1.672126
v 2.382706 0.213684 -1.608027
v 2.446805 0.149586 -1.608027
v -2.446805 -0.149586 -1.608027
v -2.382706 -0.149586 -1.672126
v -2.382706 -0.213684 -1.608027
v 2.382706 -0.213684 -1.608027
v 2.382706 -0.149586 -1.672126
v 2.446805 -0.149586 -1.608027
vt 0.010298 0.948354
vt 0.010298 0.508762
vt 0.051190 0.508762
vt 0.051191 0.948354
vt 0.001537 0.948354
vt 0.001536 0.508762
vt 0.051190 0.500000
vt 0.010298 0.500000
vt 0.059952 0.948354
vt 0.059952 0.508762
vt 0.010298 0.957115
vt 0.051191 0.957115
vt 0.760976 0.508761
vt 0.760976 0.948353
vt 0.720083 0.948353
vt 0.720083 0.508761
vt 0.769737 0.948353
vt 0.769737 0.508761
vt 0.760976 0.957114
vt 0.720083 0.957114
vt 0.711322 0.948353
vt 0.711321 0.508761
vt 0.720083 0.499999
vt 0.760976 0.499999
vt 0.711322 0.957114
vt 0.059952 0.957115
vt 0.711321 0.500000
vt 0.059952 0.500000
vt 0.711321 0.450346
vt 0.059952 0.450346
vt 0.059952 0.010754
vt 0.711321 0.010754
vt 0.711321 0.459107
vt 0.059952 0.459107
vt 0.711321 0.001992
vt 0.059952 0.001992
vt 0.711322 0.998007
vt 0.059953 0.998008
vn -0.013098 -0.999727 0.019367
vn -0.984963 -0.171927 0.017023
vn -0.984963 -0.171927 -0.017023
vn -0.013098 -0.999727 -0.019367
vn -0.011553 -0.172524 0.984938
vn 0.013098 -0.999727 0.019367
vn 0.011553 -0.172524 0.984938
vn -0.011553 0.172524 0.984938
vn -0.984963 0.171927 0.017023
vn 0.984963 -0.171927 0.017023
vn 0.013098 -0.999727 -0.019367
vn 0.984963 -0.171927 -0.017023
vn 0.984963 0.171927 0.017023
vn 0.011553 0.172524 0.984938
vn -0.013098 0.999727 0.019367
vn -0.013098 0.999727 -0.019367
vn -0.984963 0.171927 -0.017023
vn 0.013098 0.999727 0.019367
vn 0.984963 0.171927 -0.017023
vn 0.013098 0.999727 -0.019367
vn -0.011553 0.172524 -0.984938
vn -0.011553 -0.172524 -0.984938
vn 0.011553 0.172524 -0.984938
vn 0.011553 -0.172524 -0.984938
s 1
g pCube1
usemtl initialShadingGroup
f 1/17/1 3/14/2 19/13/3 21/18/4
f 2/35/5 1/32/1 6/31/6 5/36/7
f 3/14/2 2/19/5 8/20/8 7/15/9
f 4/1/10 6/5/6 22/6/11 24/2/12
f 5/11/7 4/1/10 12/4/13 11/12/14
f 7/15/9 9/21/15 14/22/16 13/16/17
f 9/21/15 8/25/8 11/26/14 10/9/18
f 10/9/18 12/4/13 18/3/19 17/10/20
f 13/16/17 15/23/21 20/24/22 19/13/3
f 15/27/21 14/22/16 17/10/20 16/28/23
f 16/7/23 18/3/19 24/2/12 23/8/24
f 21/29/4 20/33/22 23/34/24 22/30/11
f 2/37/5 5/38/7 11/26/14 8/25/8
f 9/21/15 10/9/18 17/10/20 14/22/16
f 15/27/21 16/28/23 23/34/24 20/33/22
f 21/29/4 22/30/11 6/31/6 1/32/1
f 4/1/10 24/2/12 18/3/19 12/4/13
f 19/13/3 3/14/2 7/15/9 13/16/17
f 1/17/1 2/19/5 3/14/2
f 4/1/10 5/11/7 6/5/6
f 7/15/9 8/20/8 9/21/15
f 10/9/18 11/12/14 12/4/13
f 13/16/17 14/22/16 15/23/21
f 16/7/23 17/10/20 18/3/19
f 19/13/3 20/24/22 21/18/4
f 22/6/11 23/8/24 24/2/12
