# This file uses centimeters as units for non-parametric coordinates.

mtllib reef_door_BEVELED.mtl
g default
v -0.955053 0.449516 4.037142
v -1.000000 0.404569 4.082089
v -1.000000 0.404569 -4.082089
v -0.955053 0.449516 -4.037142
v 1.000000 0.404569 4.082089
v 0.955053 0.449516 4.037142
v 0.955053 0.449516 -4.037142
v 1.000000 0.404569 -4.082089
v -1.000000 -0.404569 4.082089
v -0.955053 -0.449516 4.037142
v -0.955053 -0.449516 -4.037142
v -1.000000 -0.404569 -4.082089
v 0.955053 -0.449516 4.037142
v 1.000000 -0.404569 4.082089
v 1.000000 -0.404569 -4.082089
v 0.955053 -0.449516 -4.037142
vt 0.375032 0.085129
vt 0.375033 0.914884
vt 0.294048 0.914898
vt 0.294045 0.085112
vt 0.381363 0.089670
vt 0.381364 0.910344
vt 0.287718 0.089650
vt 0.287716 0.910365
vt 0.007491 0.915304
vt 0.007489 0.084713
vt 0.088797 0.084992
vt 0.088800 0.915029
vt 0.001156 0.089254
vt 0.001158 0.910762
vt 0.095136 0.089542
vt 0.095133 0.910474
vt 0.090576 0.083242
vt 0.292296 0.083345
vt 0.090575 0.916779
vt 0.292295 0.916665
vt 0.574730 0.089786
vt 0.574731 0.910234
vt 0.579231 0.916504
vt 0.376764 0.916645
vt 0.579232 0.083507
vt 0.376766 0.083368
vt 0.090013 0.001992
vt 0.292915 0.002023
vt 0.090011 0.998007
vt 0.292914 0.998008
vn -0.031624 0.999471 0.007615
vn -0.970567 0.039146 0.237630
vn 0.970567 0.039146 0.237630
vn 0.031624 0.999471 0.007615
vn -0.031624 0.999471 -0.007615
vn -0.970567 0.039146 -0.237630
vn 0.031624 0.999471 -0.007615
vn 0.970567 0.039146 -0.237630
vn -0.970567 -0.039146 0.237630
vn -0.031624 -0.999471 0.007615
vn 0.031624 -0.999471 0.007615
vn 0.970567 -0.039146 0.237630
vn -0.970567 -0.039146 -0.237630
vn -0.031624 -0.999471 -0.007615
vn 0.970567 -0.039146 -0.237630
vn 0.031624 -0.999471 -0.007615
s 1
g Door reef_Gate
usemtl initialShadingGroup
f 1/15/1 2/17/2 5/18/3 6/7/4
f 2/11/2 1/15/1 4/16/5 3/12/6
f 3/19/6 4/16/5 7/8/7 8/20/8
f 6/7/4 5/4/3 8/3/8 7/8/7
f 9/25/9 10/21/10 13/5/11 14/26/12
f 10/13/10 9/10/9 12/9/13 11/14/14
f 11/22/14 12/23/13 15/24/15 16/6/16
f 14/1/12 13/5/11 16/6/16 15/2/15
f 2/17/2 9/27/9 14/28/12 5/18/3
f 4/16/5 1/15/1 6/7/4 7/8/7
f 12/29/13 3/19/6 8/20/8 15/30/15
f 10/21/10 11/22/14 16/6/16 13/5/11
f 14/1/12 15/2/15 8/3/8 5/4/3
f 12/9/13 9/10/9 2/11/2 3/12/6
