# This file uses centimeters as units for non-parametric coordinates.

mtllib reef_Pillar_BEVELED.mtl
g default
v -0.694483 -1.451267 0.526317
v 0.694483 -1.451267 0.526317
v -0.694483 -1.451267 -0.526317
v 0.694483 -1.451267 -0.526317
v -0.694483 0.075195 -0.526317
v -0.694483 0.075195 0.526317
v 0.694483 0.075195 0.526317
v 0.694483 0.075195 -0.526317
v -0.694483 -0.544749 -0.526317
v -0.694483 -0.544749 0.526317
v 0.694483 -0.544749 0.526317
v 0.694483 -0.544749 -0.526317
v -0.694483 -0.854720 -0.526317
v -0.694483 -0.854720 0.526317
v 0.694483 -0.854720 0.526317
v 0.694483 -0.854720 -0.526317
v -0.537926 1.315082 0.407670
v 0.537926 1.315082 0.407670
v 0.537926 1.315082 -0.407670
v -0.537926 1.315082 -0.407670
v -0.694483 1.285793 0.526317
v -0.663729 1.315082 0.489832
v 0.694483 1.285793 0.526317
v 0.663729 1.315082 0.489832
v -0.694483 1.285793 -0.526317
v -0.663729 1.315082 -0.489832
v 0.694483 1.285793 -0.526317
v 0.663729 1.315082 -0.489832
v -0.754904 0.075195 0.599164
v -0.785898 0.044201 0.630158
v -0.785898 0.044201 -0.630158
v -0.754904 0.075195 -0.599164
v 0.754904 0.075195 0.599164
v 0.785898 0.044201 0.630158
v 0.754904 0.075195 -0.599164
v 0.785898 0.044201 -0.630158
v -0.756453 -0.544749 -0.600714
v -0.785898 -0.515304 -0.630158
v -0.756453 -0.544749 0.600714
v -0.785898 -0.515304 0.630158
v 0.756453 -0.544749 0.600714
v 0.785898 -0.515304 0.630158
v 0.756453 -0.544749 -0.600714
v 0.785898 -0.515304 -0.630158
v -0.987204 -0.854720 0.819038
v -1.017029 -0.884545 0.848863
v -1.017029 -0.884545 -0.848863
v -0.987204 -0.854720 -0.819038
v 0.987204 -0.854720 0.819038
v 1.017029 -0.884545 0.848863
v 0.987204 -0.854720 -0.819038
v 1.017029 -0.884545 -0.848863
v -0.988696 -1.451267 -0.820529
v -1.017029 -1.422934 -0.848863
v -0.988696 -1.451267 0.820529
v -1.017029 -1.422934 0.848863
v 0.988696 -1.451267 0.820529
v 1.017029 -1.422934 0.848863
v 0.988696 -1.451267 -0.820529
v 1.017029 -1.422934 -0.848863
v -0.537926 1.430841 0.407670
v -0.517501 1.451267 0.387244
v 0.517501 1.451267 0.387244
v 0.537926 1.430841 0.407670
v 0.517501 1.451267 -0.387244
v 0.537926 1.430841 -0.407670
v -0.517501 1.451267 -0.387244
v -0.537926 1.430841 -0.407670
vt 0.417792 0.016098
vt 0.461224 0.160945
vt 0.462123 0.354912
vt 0.461031 0.689626
vt 0.459903 0.501297
vt 0.460205 0.015070
vt 0.144601 0.506922
vt 0.155490 0.692543
vt 0.149124 0.688524
vt 0.147547 0.018968
vt 0.143321 0.356819
vt 0.145642 0.166231
vt 0.312266 0.689171
vt 0.150702 0.502345
vt 0.151679 0.161387
vt 0.153356 0.014276
vt 0.149673 0.356794
vt 0.134130 0.524649
vt 0.145970 0.155955
vt 0.130113 0.029359
vt 0.134894 0.184797
vt 0.144774 0.497375
vt 0.126064 0.369599
vt 0.328372 0.701964
vt 0.322346 0.007638
vt 0.316322 0.354845
vt 0.325122 0.501580
vt 0.315364 0.500865
vt 0.322251 0.697747
vt 0.313864 0.017986
vt 0.326339 0.162690
vt 0.316442 0.162135
vt 0.326376 0.354167
vt 0.408316 0.698211
vt 0.402862 0.001992
vt 0.417303 0.501122
vt 0.409167 0.354135
vt 0.418943 0.689679
vt 0.407068 0.501765
vt 0.418308 0.161382
vt 0.408860 0.005882
vt 0.419133 0.354724
vt 0.408274 0.161994
vt 0.400976 0.501333
vt 0.332882 0.354580
vt 0.402460 0.702126
vt 0.331592 0.501167
vt 0.402202 0.161595
vt 0.328441 0.003290
vt 0.332749 0.162178
vt 0.402996 0.354549
vt 0.495561 0.925539
vt 0.769858 0.922849
vt 0.767340 0.692600
vt 0.492749 0.695337
vt 0.724025 0.737992
vt 0.764149 0.918848
vt 0.724440 0.879518
vt 0.499540 0.919814
vt 0.538830 0.880082
vt 0.498458 0.699358
vt 0.538266 0.738609
vt 0.763339 0.698299
vt 0.769027 0.619370
vt 0.767212 0.389298
vt 0.492182 0.390229
vt 0.493178 0.622007
vt 0.722780 0.434568
vt 0.763595 0.615502
vt 0.537126 0.435180
vt 0.762320 0.394309
vt 0.537653 0.577229
vt 0.497106 0.395218
vt 0.723405 0.576305
vt 0.498055 0.617034
vt 0.841826 0.694138
vt 0.842618 0.922549
vt 0.769012 0.694232
vt 0.768510 0.997025
vt 0.495777 0.998008
vt 0.768180 0.924538
vt 0.421088 0.924099
vt 0.420162 0.695724
vt 0.493870 0.923867
vt 0.494375 0.693702
vt 0.767473 0.620991
vt 0.116444 0.337546
vt 0.001682 0.330894
vt 0.008532 0.181897
vt 0.112989 0.333802
vt 0.005495 0.327581
vt 0.011961 0.185623
vt 0.116117 0.188925
vt 0.137675 0.671767
vt 0.121957 0.672386
vt 0.118349 0.525075
vt 0.128737 0.143256
vt 0.112545 0.142256
vt 0.114044 0.028606
vt 0.132221 0.338425
vt 0.119739 0.185421
vt 0.127393 0.485999
vt 0.111262 0.486353
vt 0.109974 0.370225
vn 0.000000 -1.000000 0.000000
vn 0.000000 -1.000000 0.000000
vn 0.000000 -1.000000 -0.000000
vn 0.000000 -1.000000 -0.000000
vn -0.227424 0.926405 -0.300089
vn -0.227424 0.926405 0.300089
vn -0.542474 -0.439713 0.715803
vn -0.542474 -0.439713 -0.715803
vn 0.227424 0.926405 0.300089
vn 0.542474 -0.439713 0.715803
vn 0.227424 0.926405 -0.300089
vn 0.542474 -0.439713 -0.715803
vn -0.603051 0.022587 0.797383
vn -0.186532 0.953854 0.235304
vn -0.186532 0.953854 -0.235304
vn -0.603051 0.022587 -0.797383
vn 0.603051 0.022587 0.797383
vn 0.186532 0.953854 0.235304
vn 0.603051 0.022587 -0.797383
vn 0.186532 0.953854 -0.235304
vn -0.599527 0.121455 0.791085
vn 0.599527 0.121455 0.791085
vn 0.599527 0.121455 -0.791085
vn -0.599527 0.121455 -0.791085
vn 0.268013 0.896160 0.353647
vn -0.268013 0.896160 0.353647
vn 0.268013 0.896160 -0.353647
vn -0.268013 0.896160 -0.353647
vn -0.235497 0.925969 0.295166
vn -0.624878 0.044800 0.779436
vn 0.624878 0.044800 0.779436
vn 0.235497 0.925969 0.295166
vn -0.235497 0.925969 -0.295166
vn -0.624878 0.044800 -0.779436
vn 0.235497 0.925969 -0.295166
vn 0.624878 0.044800 -0.779436
vn -0.229140 -0.930083 -0.287125
vn -0.624942 -0.042678 -0.779504
vn 0.624942 -0.042678 -0.779504
vn 0.229140 -0.930083 -0.287125
vn -0.229140 -0.930083 0.287125
vn -0.624942 -0.042678 0.779504
vn 0.229140 -0.930083 0.287125
vn 0.624942 -0.042678 0.779504
vn -0.114395 0.983879 0.137463
vn -0.640091 0.045150 0.766971
vn 0.640091 0.045150 0.766971
vn 0.114395 0.983879 0.137463
vn -0.114395 0.983879 -0.137463
vn -0.640091 0.045150 -0.766971
vn 0.114395 0.983879 -0.137463
vn 0.640091 0.045150 -0.766971
vn -0.109801 -0.985160 -0.131923
vn -0.640156 -0.042999 -0.767041
vn 0.640156 -0.042999 -0.767041
vn 0.109801 -0.985160 -0.131923
vn -0.109801 -0.985160 0.131923
vn -0.640156 -0.042999 0.767041
vn 0.109801 -0.985160 0.131923
vn 0.640156 -0.042999 0.767041
vn -0.598494 0.131949 0.790186
vn -0.026430 0.999035 0.035092
vn -0.026430 0.999035 -0.035092
vn -0.598494 0.131949 -0.790186
vn 0.598494 0.131949 0.790186
vn 0.026430 0.999035 0.035092
vn 0.598494 0.131949 -0.790186
vn 0.026430 0.999035 -0.035092
s 1
g Pillar reef_Gate
usemtl initialShadingGroup
f 3/74/1 4/72/2 2/70/3 1/68/4
f 13/3/5 14/5/6 10/36/7 9/42/8
f 14/5/6 15/4/9 11/38/10 10/36/7
f 15/6/9 16/2/11 12/40/12 11/1/10
f 9/42/8 12/40/12 16/2/11 13/3/5
f 21/14/13 22/22/14 26/11/15 25/17/16
f 22/7/14 21/14/13 23/8/17 24/9/18
f 24/10/18 23/16/17 27/15/19 28/19/20
f 25/17/16 26/11/15 28/12/20 27/15/19
f 6/28/21 7/13/22 23/8/17 21/14/13
f 25/17/16 27/15/19 8/32/23 5/26/24
f 7/30/22 8/32/23 27/15/19 23/16/17
f 5/26/24 6/28/21 21/14/13 25/17/16
f 22/7/14 24/9/18 18/94/25 17/18/26
f 24/10/18 28/19/20 19/97/27 18/20/25
f 28/12/20 26/11/15 20/100/28 19/21/27
f 26/11/15 22/22/14 17/102/26 20/23/28
f 29/27/29 30/47/30 34/24/31 33/29/32
f 30/47/30 29/27/29 32/33/33 31/45/34
f 31/45/34 32/33/33 35/31/35 36/50/36
f 33/25/32 34/49/31 36/50/36 35/31/35
f 6/28/21 5/26/24 32/33/33 29/27/29
f 7/13/22 6/28/21 29/27/29 33/29/32
f 8/32/23 7/30/22 33/25/32 35/31/35
f 5/26/24 8/32/23 35/31/35 32/33/33
f 37/37/37 38/51/38 44/48/39 43/43/40
f 38/51/38 37/37/37 39/39/41 40/44/42
f 40/44/42 39/39/41 41/34/43 42/46/44
f 42/35/44 41/41/43 43/43/40 44/48/39
f 9/42/8 10/36/7 39/39/41 37/37/37
f 10/36/7 11/38/10 41/34/43 39/39/41
f 11/1/10 12/40/12 43/43/40 41/41/43
f 12/40/12 9/42/8 37/37/37 43/43/40
f 38/51/38 40/44/42 30/47/30 31/45/34
f 40/44/42 42/46/44 34/24/31 30/47/30
f 42/35/44 44/48/39 36/50/36 34/49/31
f 31/45/34 36/50/36 44/48/39 38/51/38
f 45/57/45 46/81/46 50/52/47 49/59/48
f 46/53/46 45/57/45 48/63/49 47/78/50
f 47/54/50 48/63/49 51/61/51 52/85/52
f 49/59/48 50/84/47 52/55/52 51/61/51
f 14/58/6 13/56/5 48/63/49 45/57/45
f 15/60/9 14/58/6 45/57/45 49/59/48
f 16/62/11 15/60/9 49/59/48 51/61/51
f 13/56/5 16/62/11 51/61/51 48/63/49
f 53/69/53 54/86/54 60/67/55 59/75/56
f 54/64/54 53/69/53 55/71/57 56/65/58
f 56/65/58 55/71/57 57/73/59 58/66/60
f 58/66/60 57/73/59 59/75/56 60/67/55
f 3/74/1 1/68/4 55/71/57 53/69/53
f 1/68/4 2/70/3 57/73/59 55/71/57
f 2/70/3 4/72/2 59/75/56 57/73/59
f 4/72/2 3/74/1 53/69/53 59/75/56
f 54/76/54 56/77/58 46/53/46 47/78/50
f 56/79/58 58/80/60 50/52/47 46/81/46
f 58/82/60 60/83/55 52/55/52 50/84/47
f 47/54/50 52/85/52 60/67/55 54/86/54
f 61/88/61 62/91/62 67/90/63 68/87/64
f 62/91/62 61/88/61 64/89/65 63/92/66
f 63/92/66 64/89/65 66/101/67 65/93/68
f 65/93/68 66/101/67 68/87/64 67/90/63
f 62/91/62 63/92/66 65/93/68 67/90/63
f 17/18/26 18/94/25 64/95/65 61/96/61
f 18/20/25 19/97/27 66/98/67 64/99/65
f 19/21/27 20/100/28 68/87/64 66/101/67
f 20/23/28 17/102/26 61/103/61 68/104/64
