# This file uses centimeters as units for non-parametric coordinates.

mtllib deck.mtl
g default
v -2.981339 -0.186634 1.462677
v -2.981339 -0.149311 1.500000
v -3.018662 -0.149311 1.462677
v 3.018661 -0.149311 1.462677
v 2.981339 -0.149311 1.500000
v 2.981339 -0.186634 1.462677
v -3.018662 0.149311 1.462677
v -2.981339 0.149311 1.500000
v -2.981339 0.186634 1.462677
v 2.981339 0.186634 1.462677
v 2.981339 0.149311 1.500000
v 3.018661 0.149311 1.462677
v -3.018662 0.149311 -1.462677
v -2.981339 0.186634 -1.462677
v -2.981339 0.149311 -1.500000
v 2.981339 0.149311 -1.500000
v 2.981339 0.186634 -1.462677
v 3.018661 0.149311 -1.462677
v -3.018662 -0.149311 -1.462677
v -2.981339 -0.149311 -1.500000
v -2.981339 -0.186634 -1.462677
v 2.981339 -0.186634 -1.462677
v 2.981339 -0.149311 -1.500000
v 3.018661 -0.149311 -1.462677
vt 0.923445 0.002524
vt 0.923577 0.010474
vt 0.493428 0.009734
vt 0.493370 0.001992
vt 0.933452 0.011360
vt 0.923325 0.054566
vt 0.493362 0.053581
vt 0.485763 0.009120
vt 0.930876 0.055559
vt 0.923362 0.062310
vt 0.493283 0.061322
vt 0.485689 0.054175
vt 0.921035 0.990269
vt 0.921085 0.998008
vt 0.491202 0.997011
vt 0.491286 0.989272
vt 0.928696 0.990892
vt 0.483620 0.989861
vt 0.491380 0.945437
vt 0.921147 0.946440
vt 0.928817 0.945852
vt 0.483717 0.944805
vt 0.921235 0.938702
vt 0.491328 0.937699
vt 0.433877 0.061188
vt 0.431916 0.937568
vt 0.001962 0.936609
vt 0.003925 0.060229
vt 0.975009 0.062434
vt 0.982767 0.062452
vt 0.980643 0.938847
vt 0.972885 0.938828
vt 0.928993 0.938721
vt 0.931120 0.062328
vt 0.485525 0.061304
vt 0.483569 0.937682
vt 0.439675 0.937585
vt 0.441635 0.061205
vn -0.006168 -0.999902 0.012545
vn -0.707101 -0.707106 0.002994
vn -0.707101 -0.707106 -0.002994
vn -0.006168 -0.999902 -0.012545
vn -0.001472 -0.707108 0.707104
vn 0.006168 -0.999902 0.012545
vn 0.001472 -0.707108 0.707104
vn -0.999921 0.000000 0.012597
vn -0.006220 0.000000 0.999981
vn -0.006220 0.000000 0.999981
vn -0.999921 0.000000 0.012597
vn 0.707104 -0.707103 0.002994
vn 0.006168 -0.999902 -0.012545
vn 0.707104 -0.707103 -0.002994
vn 0.006220 0.000000 0.999981
vn 0.999921 0.000000 0.012597
vn 0.999921 0.000000 0.012597
vn 0.006220 0.000000 0.999981
vn -0.707101 0.707106 0.002994
vn -0.006168 0.999902 0.012545
vn -0.006168 0.999902 -0.012545
vn -0.707101 0.707106 -0.002994
vn -0.001472 0.707108 0.707104
vn 0.001472 0.707108 0.707104
vn 0.006168 0.999902 0.012545
vn 0.707104 0.707103 0.002994
vn 0.707104 0.707103 -0.002994
vn 0.006168 0.999902 -0.012545
vn -0.999921 0.000000 -0.012597
vn -0.006220 0.000000 -0.999981
vn -0.006220 0.000000 -0.999981
vn -0.999921 0.000000 -0.012597
vn -0.001472 0.707108 -0.707104
vn 0.001472 0.707108 -0.707104
vn 0.006220 0.000000 -0.999981
vn 0.999921 0.000000 -0.012597
vn 0.999921 0.000000 -0.012597
vn 0.006220 0.000000 -0.999981
vn -0.001472 -0.707108 -0.707104
vn 0.001472 -0.707108 -0.707104
s 1
g deck
usemtl initialShadingGroup
f 1/1/1 3/2/2 19/3/3 21/4/4
f 2/29/5 1/30/1 6/31/6 5/32/7
s 2
f 3/2/8 2/5/9 8/9/10 7/6/11
s 1
f 4/13/12 6/14/6 22/15/13 24/16/14
s 2
f 5/17/15 4/13/16 12/20/17 11/21/18
s 4
f 7/6/19 9/10/20 14/11/21 13/7/22
f 9/10/20 8/34/23 11/33/24 10/23/25
f 10/23/25 12/20/26 18/19/27 17/24/28
s 2
f 13/7/29 15/12/30 20/8/31 19/3/32
s 4
f 15/35/33 14/11/21 17/24/28 16/36/34
s 2
f 16/22/35 18/19/36 24/16/37 23/18/38
s 1
f 21/25/4 20/38/39 23/37/40 22/26/13
s 2
f 2/29/9 5/32/15 11/33/18 8/34/10
s 4
f 9/10/20 10/23/25 17/24/28 14/11/21
s 2
f 15/35/30 16/36/35 23/37/38 20/38/31
s 1
f 21/25/4 22/26/13 6/27/6 1/28/1
s 2
f 4/13/16 24/16/37 18/19/36 12/20/17
f 19/3/32 3/2/8 7/6/11 13/7/29
s 1
f 1/1/1 2/5/5 3/2/2
f 4/13/12 5/17/7 6/14/6
s 4
f 7/6/19 8/9/23 9/10/20
f 10/23/25 11/21/24 12/20/26
f 13/7/22 14/11/21 15/12/33
f 16/22/34 17/24/28 18/19/27
s 1
f 19/3/3 20/8/39 21/4/4
f 22/15/13 23/18/40 24/16/14
