# This file uses centimeters as units for non-parametric coordinates.

mtllib beamBig.mtl
g default
v -2.981338 -0.242478 0.200974
v -2.981339 -0.193987 0.249465
v -3.018661 -0.193987 0.200974
v 3.018661 -0.193987 0.200974
v 2.981339 -0.193987 0.249465
v 2.981338 -0.242478 0.200974
v -3.018661 0.193987 0.200974
v -2.981339 0.193987 0.249465
v -2.981339 0.242478 0.200974
v 2.981339 0.242478 0.200974
v 2.981339 0.193987 0.249465
v 3.018661 0.193987 0.200974
v -3.018661 0.193987 -0.200974
v -2.981339 0.242478 -0.200974
v -2.981339 0.193987 -0.249465
v 2.981339 0.193987 -0.249465
v 2.981339 0.242478 -0.200974
v 3.018661 0.193987 -0.200974
v -3.018661 -0.193987 -0.200974
v -2.981339 -0.193987 -0.249465
v -2.981339 -0.242478 -0.200974
v 2.981339 -0.242478 -0.200974
v 2.981339 -0.193987 -0.249465
v 3.018661 -0.193987 -0.200974
vt 0.065225 0.064700
vt 0.007477 0.064700
vt 0.007477 0.008959
vt 0.065225 0.008959
vt 0.065225 0.071666
vt 0.007477 0.071666
vt 0.000510 0.008959
vt 0.000510 0.064700
vt 0.065225 0.001992
vt 0.007477 0.001992
vt 0.072192 0.064700
vt 0.072192 0.008959
vt 0.007477 0.935300
vt 0.065225 0.935300
vt 0.065225 0.991041
vt 0.007476 0.991041
vt 0.065225 0.928334
vt 0.007476 0.928334
vt 0.072192 0.935300
vt 0.072192 0.991041
vt 0.065225 0.998008
vt 0.007476 0.998008
vt 0.000510 0.991041
vt 0.000510 0.935300
vt 0.134899 0.928334
vt 0.134900 0.071666
vt 0.192648 0.071666
vt 0.192648 0.928334
vt 0.127933 0.928334
vt 0.127933 0.071666
vt 0.199615 0.928334
vt 0.199615 0.071666
vt 0.000510 0.928334
vt 0.000510 0.071666
vt 0.072192 0.928334
vt 0.072192 0.071666
vt 0.255356 0.071667
vt 0.255356 0.928334
vn -0.007443 -0.994271 0.106626
vn -0.792164 -0.609727 0.026636
vn -0.792164 -0.609727 -0.026636
vn -0.007443 -0.994271 -0.106626
vn -0.001783 -0.707109 0.707103
vn 0.007443 -0.994271 0.106626
vn 0.001783 -0.707109 0.707103
vn -0.996585 0.000000 0.082576
vn -0.008082 0.000000 0.999967
vn -0.008082 0.000000 0.999967
vn -0.996585 0.000000 0.082576
vn 0.792164 -0.609727 0.026636
vn 0.007443 -0.994271 -0.106626
vn 0.792164 -0.609727 -0.026636
vn 0.008082 0.000000 0.999967
vn 0.996585 0.000000 0.082576
vn 0.996585 0.000000 0.082576
vn 0.008082 0.000000 0.999967
vn -0.792164 0.609727 0.026636
vn -0.007443 0.994271 0.106626
vn -0.007443 0.994271 -0.106626
vn -0.792164 0.609727 -0.026636
vn -0.001783 0.707109 0.707103
vn 0.001783 0.707109 0.707103
vn 0.007443 0.994271 0.106626
vn 0.792164 0.609727 0.026636
vn 0.792164 0.609727 -0.026636
vn 0.007443 0.994271 -0.106626
vn -0.996585 0.000000 -0.082576
vn -0.008081 0.000000 -0.999967
vn -0.008081 0.000000 -0.999967
vn -0.996585 0.000000 -0.082576
vn -0.001783 0.707104 -0.707107
vn 0.001783 0.707104 -0.707107
vn 0.008081 0.000000 -0.999967
vn 0.996585 0.000000 -0.082576
vn 0.996585 0.000000 -0.082576
vn 0.008081 0.000000 -0.999967
vn -0.001783 -0.707104 -0.707107
vn 0.001783 -0.707104 -0.707107
s 1
g beamBig
usemtl initialShadingGroup
f 1/17/1 3/14/2 19/13/3 21/18/4
f 2/35/5 1/17/1 6/5/6 5/36/7
s 2
f 3/14/8 2/19/9 8/20/10 7/15/11
s 1
f 4/1/12 6/5/6 22/6/13 24/2/14
s 2
f 5/11/15 4/1/16 12/4/17 11/12/18
s 4
f 7/15/19 9/21/20 14/22/21 13/16/22
f 9/25/20 8/29/23 11/30/24 10/26/25
f 10/9/25 12/4/26 18/3/27 17/10/28
s 2
f 13/16/29 15/23/30 20/24/31 19/13/32
s 4
f 15/31/33 14/28/21 17/27/28 16/32/34
s 2
f 16/7/35 18/3/36 24/2/37 23/8/38
s 1
f 21/18/4 20/33/39 23/34/40 22/6/13
s 2
f 2/35/9 5/36/15 11/30/18 8/29/10
s 4
f 9/25/20 10/26/25 17/27/28 14/28/21
s 2
f 15/31/30 16/32/35 23/37/38 20/38/31
s 1
f 21/18/4 22/6/13 6/5/6 1/17/1
s 2
f 4/1/16 24/2/37 18/3/36 12/4/17
f 19/13/32 3/14/8 7/15/11 13/16/29
s 1
f 1/17/1 2/19/5 3/14/2
f 4/1/12 5/11/7 6/5/6
s 4
f 7/15/19 8/20/23 9/21/20
f 10/9/25 11/12/24 12/4/26
f 13/16/22 14/22/21 15/23/33
f 16/7/34 17/10/28 18/3/27
s 1
f 19/13/3 20/24/39 21/18/4
f 22/6/13 23/8/40 24/2/14
