# This file uses centimeters as units for non-parametric coordinates.

mtllib cliff_LP.mtl
g default
v -1.079227 -1.414697 0.989234
v 0.948964 -1.426703 0.907439
v -0.814774 1.623690 0.712548
v 0.848574 1.501553 0.566413
v -0.977734 1.384448 -0.874255
v 0.920116 1.444686 -0.742080
v -1.040773 -1.472074 -0.876771
v 0.968550 -1.431313 -0.934965
v 0.975539 -0.147252 0.923392
v -0.870869 -0.151728 0.789237
v -0.935274 0.000000 -0.946913
v 0.818841 -0.179738 -0.870196
v 0.965709 0.727880 0.906478
v -1.078750 0.750005 0.964671
v -1.035420 0.698574 -0.979059
v 1.081670 0.741866 -0.847507
v -1.125395 -1.143794 -1.019350
v -1.206859 -1.103576 1.071424
v 1.076872 -1.029891 1.043150
v 1.027410 -1.010371 -0.908551
v -1.051852 -0.371787 0.802188
v -0.999473 -0.503970 -0.994685
v 0.797147 -0.645886 -0.873412
v 0.926206 -0.564799 0.853011
v -1.074163 1.239519 1.054968
v -1.034010 1.140386 -0.968311
v 1.011733 1.111689 -0.841312
v 1.028763 1.122547 0.799057
v -0.012331 1.327200 -1.059528
v 0.023125 0.720220 -1.069109
v -0.000158 -0.000000 -1.081196
v -0.101163 -0.574928 -1.066843
v -0.046534 -1.013901 -1.082436
v 0.002742 -1.460067 -0.984925
v -0.084399 -1.433209 1.083238
v -0.037211 -0.951082 1.253269
v 0.027284 -0.234126 0.990325
v 0.052335 -0.048043 0.831826
v -0.186431 0.575455 1.033200
v -0.103100 1.181033 1.091189
v -0.056457 1.517839 0.687642
v 0.022252 1.512838 -0.875351
v 1.132257 0.752184 -0.100174
v 1.095169 -0.255724 -0.189937
v 1.084275 -0.583455 -0.122167
v 1.109630 -1.111487 0.076283
v 1.124341 -1.441517 -0.014817
v -0.059292 -1.446638 0.035495
v -1.112823 -1.443385 0.066217
v -1.174358 -1.188968 0.063000
v -1.006220 -0.437878 -0.176903
v -1.052511 -0.075864 -0.078838
v -1.101959 0.724290 -0.189331
v -1.137858 1.149318 -0.036336
v -1.029272 1.474934 -0.082234
v 0.148204 1.633271 -0.144402
v 0.970123 1.512419 -0.087834
v 1.157478 1.117118 -0.021128
v -0.125580 0.272684 0.828183
v -0.918854 0.100056 0.765284
v -0.995251 0.246795 -0.237089
v -0.985347 0.349287 -0.962986
v 0.011483 0.360110 -1.075153
v 1.065299 0.142443 -0.850530
v 1.127600 0.217665 -0.215388
v 0.955235 0.365824 0.889159
v 0.445319 1.534430 -0.798542
v 0.482263 1.374429 -1.052759
v 0.768313 0.731043 -1.084803
v 0.728872 0.205940 -1.124433
v 0.528143 -0.112241 -1.064537
v 0.617072 -0.610407 -1.091217
v 0.671432 -1.012136 -1.096303
v 0.541764 -1.445690 -1.024101
v 0.461928 -1.444077 0.010339
v 0.449247 -1.442465 1.028119
v 0.542861 -1.149183 1.136811
v 0.474144 -0.453308 1.077334
v 0.513937 -0.148371 0.980281
v 0.476571 0.330275 0.919125
v 0.370573 0.619099 1.188259
v 0.509950 1.151790 1.120676
v 0.405781 1.620184 0.724971
v 0.488215 1.552772 0.126849
v -0.505503 1.443950 -0.926924
v -0.524363 1.301833 -1.095518
v -0.506148 0.709397 -1.077447
v -0.486932 0.354699 -1.100408
v -0.467716 -0.000000 -1.075757
v -0.550318 -0.539449 -1.080208
v -0.583506 -1.015666 -1.076501
v -0.554070 -1.466070 -1.007350
v -0.586057 -1.445011 0.050856
v -0.618045 -1.423953 1.073791
v -0.587943 -1.086533 1.258506
v -0.440081 -0.442314 1.093291
v -0.475647 -0.150609 1.070105
v -0.453318 0.063531 0.925359
v -0.627247 0.529076 1.241141
v -0.543801 1.114996 1.166012
v -0.421481 1.626354 0.679763
v -0.440534 1.573171 -0.113318
v -1.025407 -0.754119 -0.110032
v -1.062434 -0.823882 -1.007017
v -0.566912 -0.777557 -1.078355
v -0.073849 -0.794414 -1.074640
v 0.644252 -0.811271 -1.093760
v 0.912279 -0.828128 -0.890982
v 1.065253 -0.894221 0.024588
v 0.935869 -0.755246 0.881870
v 0.446167 -0.783495 1.054471
v -0.011280 -0.679197 1.058079
v -0.513641 -0.886552 1.027893
v -1.131590 -0.808258 0.933408
v 0.740556 0.110693 -0.325165
v 0.722513 -0.112100 -0.286063
v 0.799160 -0.459181 -0.406772
v 0.881894 -0.788389 -0.433197
v 1.149825 -1.127041 -0.495803
v 1.083348 -1.436415 -0.508725
v 0.501846 -1.444883 -0.506881
v -0.028275 -1.453352 -0.474715
v -0.570064 -1.455541 -0.478247
v -1.093389 -1.457730 -0.432846
v -1.260865 -1.107077 -0.529219
v -1.093338 -0.789001 -0.501925
v -1.012305 -0.470924 -0.529402
v -0.993893 -0.037932 -0.512875
v -1.029617 0.336750 -0.675093
v -1.076517 0.711432 -0.626614
v -1.085934 1.144852 -0.465818
v -0.961491 1.434471 -0.484159
v -0.473018 1.521147 -0.520121
v 0.085228 1.573055 -0.509876
v 0.466767 1.543601 -0.335847
v 0.984926 1.502811 -0.414957
v 1.152307 1.114403 -0.431220
v 1.140018 0.679161 -0.409011
v 0.937105 1.477781 0.239289
v 0.446998 1.586478 0.425910
v 0.045874 1.575555 0.271620
v -0.431007 1.590228 0.283223
v -0.965207 1.578374 0.323438
v -1.184424 1.194418 0.545822
v -1.171728 0.737147 0.463804
v -1.117159 0.311676 0.322264
v -1.025802 -0.113796 0.366093
v -1.113043 -0.404833 0.404705
v -1.203123 -0.781189 0.554594
v -1.340973 -1.086968 0.631526
v -1.132257 -1.429041 0.565280
v -0.602051 -1.434482 0.562324
v -0.071845 -1.439923 0.559367
v 0.455588 -1.443271 0.519229
v 1.107357 -1.434110 0.467565
v 1.163021 -1.034527 0.535461
v 0.993505 -0.848565 0.453253
v 1.113586 -0.620877 0.412952
v 1.113353 -0.168895 0.466577
v 1.144343 0.348224 0.454391
v 1.175381 0.731376 0.467982
v 1.138510 1.204046 0.383336
v 1.073484 0.442155 -0.849018
v 0.748592 0.468491 -1.104618
v 0.017304 0.540165 -1.072131
v -0.496540 0.532048 -1.088927
v -1.010384 0.523931 -0.971022
v -1.015907 0.524091 -0.668944
v -1.022842 0.524251 -0.262725
v -1.125555 0.524411 0.379557
v -1.025182 0.372613 0.907367
v -0.598630 0.328162 1.160761
v -0.156005 0.424069 0.985976
v 0.423572 0.474687 1.053692
v 0.960472 0.546852 0.897818
v 1.159862 0.539800 0.461186
v 1.153462 0.436675 -0.147877
v 1.028690 0.381422 -0.396117
vt 0.766444 0.498620
vt 0.764964 0.548448
vt 0.730096 0.551823
vt 0.732989 0.500721
vt 0.802725 0.510008
vt 0.803253 0.556367
vt 0.773822 0.607691
vt 0.726349 0.591524
vt 0.697161 0.549682
vt 0.700124 0.502470
vt 0.800658 0.606675
vt 0.766520 0.665897
vt 0.734207 0.659840
vt 0.694346 0.585734
vt 0.653510 0.552062
vt 0.649407 0.507614
vt 0.804366 0.656612
vt 0.738029 0.699215
vt 0.771638 0.709477
vt 0.693836 0.646577
vt 0.657650 0.597598
vt 0.615550 0.535620
vt 0.614412 0.506307
vt 0.806257 0.700531
vt 0.692137 0.687787
vt 0.661800 0.644550
vt 0.625027 0.580033
vt 0.596737 0.535837
vt 0.596725 0.505247
vt 0.663925 0.691540
vt 0.616506 0.638336
vt 0.597229 0.576944
vt 0.577051 0.540055
vt 0.578882 0.504106
vt 0.638655 0.687472
vt 0.594540 0.643325
vt 0.576018 0.584471
vt 0.533523 0.555573
vt 0.533174 0.503871
vt 0.607081 0.699551
vt 0.572260 0.650842
vt 0.534610 0.598870
vt 0.501633 0.553273
vt 0.506152 0.512184
vt 0.565846 0.703660
vt 0.527725 0.655185
vt 0.502408 0.593043
vt 0.453322 0.795558
vt 0.457329 0.776680
vt 0.509307 0.706234
vt 0.491247 0.629433
vt 0.476600 0.661722
vt 0.143165 0.557275
vt 0.322996 0.335484
vt 0.297152 0.370511
vt 0.160515 0.554313
vt 0.112344 0.553734
vt 0.326713 0.287003
vt 0.207424 0.510305
vt 0.194765 0.556406
vt 0.079311 0.557287
vt 0.066781 0.511913
vt 0.355508 0.291927
vt 0.359844 0.344972
vt 0.100669 0.595111
vt 0.133724 0.589457
vt 0.227818 0.557364
vt 0.294515 0.435626
vt 0.181030 0.582373
vt 0.203734 0.586507
vt 0.340249 0.379055
vt 0.337293 0.405297
vt 0.036448 0.558116
vt 0.044953 0.514085
vt 0.354782 0.271224
vt 0.067520 0.609420
vt 0.145111 0.654729
vt 0.098809 0.648855
vt 0.235900 0.589611
vt 0.334730 0.431723
vt 0.271456 0.554320
vt 0.303502 0.477028
vt 0.218825 0.650512
vt 0.198989 0.650978
vt 0.004999 0.558593
vt 0.001609 0.513669
vt 0.354539 0.250746
vt 0.044203 0.615980
vt 0.073742 0.655247
vt 0.102650 0.697521
vt 0.147440 0.704365
vt 0.272500 0.595861
vt 0.238656 0.649979
vt 0.363854 0.492441
vt 0.313958 0.518049
vt 0.311736 0.554019
vt 0.202948 0.700725
vt 0.222487 0.700830
vt 0.010001 0.607812
vt 0.048923 0.662952
vt 0.082773 0.699842
vt 0.284472 0.636711
vt 0.313496 0.585812
vt 0.242402 0.701301
vt 0.009453 0.655157
vt 0.049720 0.714128
vt 0.290058 0.686583
vt 0.314983 0.617782
vt 0.007111 0.702446
vt 0.324040 0.648540
vt 0.452665 0.548421
vt 0.457264 0.509713
vt 0.446924 0.586539
vt 0.398755 0.547861
vt 0.406226 0.513748
vt 0.459935 0.489525
vt 0.513638 0.483557
vt 0.443783 0.623019
vt 0.391620 0.581809
vt 0.361077 0.562625
vt 0.365090 0.519580
vt 0.410952 0.489192
vt 0.442652 0.658746
vt 0.399825 0.621023
vt 0.358372 0.606207
vt 0.453522 0.722690
vt 0.408033 0.661760
vt 0.362276 0.633597
vt 0.409928 0.712165
vt 0.365654 0.658996
vt 0.351063 0.709652
vt 0.529809 0.210075
vt 0.479966 0.215154
vt 0.486757 0.163527
vt 0.540330 0.164256
vt 0.425430 0.210094
vt 0.432298 0.159026
vt 0.492799 0.110240
vt 0.546365 0.113145
vt 0.372124 0.209171
vt 0.378714 0.158414
vt 0.439302 0.107743
vt 0.498599 0.058529
vt 0.552475 0.062523
vt 0.329330 0.201125
vt 0.319441 0.155672
vt 0.386275 0.106325
vt 0.444732 0.054770
vt 0.504148 0.006866
vt 0.550223 0.019111
vt 0.318581 0.104466
vt 0.390777 0.054561
vt 0.450241 0.001992
vt 0.323864 0.055121
vt 0.395582 0.002744
vt 0.343317 0.011290
vt 0.528881 0.280476
vt 0.477835 0.283452
vt 0.480701 0.259763
vt 0.536134 0.247636
vt 0.521372 0.312960
vt 0.474900 0.307282
vt 0.427890 0.278711
vt 0.426743 0.256415
vt 0.513306 0.364507
vt 0.463506 0.361499
vt 0.429123 0.301072
vt 0.515739 0.400741
vt 0.463245 0.397402
vt 0.415096 0.358852
vt 0.516866 0.418893
vt 0.463321 0.415194
vt 0.412493 0.395104
vt 0.314602 0.243539
vt 0.517945 0.437148
vt 0.463252 0.432909
vt 0.411257 0.413082
vt 0.409991 0.430873
vt 0.481210 0.857605
vt 0.433386 0.856043
vt 0.436167 0.829725
vt 0.489751 0.833542
vt 0.495685 0.882806
vt 0.427379 0.884110
vt 0.380593 0.835283
vt 0.400713 0.807522
vt 0.501771 0.801793
vt 0.495788 0.929913
vt 0.432650 0.928051
vt 0.381448 0.859065
vt 0.340069 0.793458
vt 0.331311 0.844061
vt 0.407077 0.787422
vt 0.497159 0.964575
vt 0.433312 0.958371
vt 0.382023 0.905217
vt 0.334158 0.877640
vt 0.348647 0.775096
vt 0.290131 0.781172
vt 0.282500 0.837685
vt 0.411672 0.771706
vt 0.483964 0.998008
vt 0.434892 0.996453
vt 0.381971 0.938870
vt 0.333231 0.911962
vt 0.282087 0.882683
vt 0.357928 0.758639
vt 0.291787 0.760789
vt 0.379509 0.990076
vt 0.321201 0.950312
vt 0.280191 0.902571
vt 0.292616 0.739730
vt 0.510472 0.760797
vt 0.325805 0.983202
vt 0.266717 0.935965
vt 0.274278 0.979340
vt 0.294813 0.402806
vt 0.178679 0.504654
vt 0.320834 0.265292
vt 0.137212 0.504776
vt 0.274934 0.510154
vt 0.236400 0.511813
vt 0.088738 0.509559
vn -0.643060 0.036088 0.764965
vn -0.127359 0.046798 0.990752
vn -0.194299 0.378932 0.904797
vn -0.570119 0.387494 0.724439
vn -0.510037 0.848687 -0.139974
vn -0.133593 0.981133 -0.139756
vn -0.136582 0.904916 -0.403078
vn -0.527380 0.777798 -0.341907
vn -0.727105 0.218427 -0.650852
vn -0.077940 0.027790 -0.996571
vn -0.062938 -0.125996 -0.990032
vn -0.668669 -0.118541 -0.734051
vn -0.399898 -0.804859 -0.438501
vn -0.027805 -0.795518 -0.605292
vn 0.005577 -0.999767 0.020858
vn -0.457468 -0.889186 -0.008448
vn 0.977791 0.174947 -0.115407
vn 0.816922 0.166065 -0.552322
vn 0.830817 0.458018 -0.316170
vn 0.910883 0.360270 -0.201241
vn -0.998495 0.039708 -0.037830
vn -0.950390 0.310720 0.014589
vn -0.704732 0.210175 0.677627
vn -0.147063 0.300095 0.942505
vn 0.000378 -0.124818 0.992180
vn -0.777202 -0.307269 0.549129
vn -0.691704 0.005403 -0.722161
vn -0.997444 0.009546 -0.070811
vn -0.995176 -0.069479 -0.069261
vn -0.661178 -0.096223 -0.744033
vn -0.118380 -0.031511 -0.992468
vn -0.106071 -0.004257 -0.994349
vn 0.903022 -0.159948 -0.398707
vn 0.930448 -0.193932 -0.310896
vn 0.901292 -0.393769 -0.180608
vn 0.880348 -0.419965 -0.220493
vn -0.772002 -0.085251 0.629878
vn -0.125615 -0.109686 0.985997
vn 0.012072 0.316521 0.948509
vn -0.585655 0.390124 0.710501
vn -0.641152 -0.031089 -0.766784
vn -0.992709 -0.085471 -0.084997
vn -0.985343 0.135617 -0.103481
vn -0.664211 0.144980 -0.733352
vn -0.094940 0.204126 -0.974330
vn -0.080136 -0.002260 -0.996781
vn 0.971045 0.201085 -0.128986
vn 0.991439 -0.072446 -0.108628
vn 0.838302 0.056635 -0.542257
vn 0.730191 0.284655 -0.621122
vn -0.382426 -0.808550 0.447210
vn -0.057879 -0.847058 0.528340
vn 0.507610 -0.857938 -0.079220
vn 0.460203 -0.742209 -0.487176
vn -0.726002 0.134694 -0.674373
vn -0.992797 0.112500 -0.041197
vn -0.102620 0.034162 -0.994134
vn 0.954610 0.113937 -0.275204
vn 0.925440 0.201521 -0.320859
vn -0.683183 0.267159 0.679623
vn -0.127121 0.124037 0.984101
vn 0.502291 0.769523 -0.394384
vn 0.537623 0.836704 -0.104346
vn 0.064053 0.898153 0.434992
vn -0.286170 0.863086 0.416161
vn 0.009292 0.222765 -0.974828
vn 0.148360 0.292631 -0.944646
vn 0.256112 0.092289 -0.962232
vn 0.006751 0.024417 -0.999679
vn -0.006304 -0.020189 -0.999776
vn -0.014737 -0.006292 -0.999872
vn 0.254875 -0.121924 -0.959257
vn 0.148047 -0.063483 -0.986941
vn -0.001065 0.006188 -0.999980
vn 0.223784 0.053044 -0.973194
vn -0.012437 -0.115765 -0.993199
vn -0.012105 0.017722 -0.999770
vn 0.173033 0.099726 -0.979854
vn 0.151766 -0.073945 -0.985647
vn 0.000957 -0.798435 -0.602080
vn 0.063806 -0.756486 -0.650890
vn 0.009933 -0.999870 0.012681
vn 0.015775 -0.999874 0.001611
vn 0.029131 0.097141 0.994844
vn 0.026675 -0.841932 0.538924
vn 0.078442 -0.854246 0.513918
vn 0.184574 -0.073945 0.980033
vn 0.019524 0.232533 0.972393
vn 0.176049 0.262391 0.948766
vn -0.049185 0.210525 0.976350
vn 0.044836 0.244791 0.968539
vn 0.126022 0.103401 0.986624
vn 0.042666 0.131662 0.990376
vn -0.012776 -0.151406 0.988389
vn 0.113481 -0.226107 0.967470
vn 0.013606 0.398738 0.916964
vn 0.105842 -0.104125 0.988916
vn 0.074008 -0.074428 0.994476
vn 0.192871 0.368215 0.909516
vn 0.003693 0.867293 0.497784
vn 0.110929 0.846262 0.521091
vn -0.035955 0.934292 -0.354690
vn -0.021473 0.992150 -0.123195
vn 0.119359 0.989982 -0.075423
vn 0.148941 0.921112 -0.359679
vn 0.659972 0.007978 0.751248
vn 0.987666 -0.047343 0.149248
vn 0.987191 -0.050389 0.151376
vn 0.629130 -0.031941 0.776644
vn 0.721540 -0.076919 0.688086
vn 0.984590 -0.115276 0.131511
vn 0.678931 0.070522 0.730807
vn 0.988077 0.116077 0.101144
vn 0.978202 0.186922 0.090451
vn 0.628250 0.314403 0.711655
vn 0.429668 -0.807485 0.404170
vn 0.519764 -0.852017 0.062551
vn -0.008132 -0.999897 0.011792
vn 0.005768 -0.999944 0.008924
vn -0.448300 -0.893531 0.025110
vn -0.010681 -0.999727 0.020805
vn -0.999751 -0.014903 -0.016620
vn -0.964187 0.254274 -0.075417
vn -0.995008 0.044381 0.089387
vn -0.981276 0.189774 -0.032910
vn -0.989689 -0.142183 0.017307
vn -0.967431 0.238455 0.084950
vn -0.993840 -0.103511 0.039604
vn -0.548471 0.835542 -0.032389
vn -0.016109 0.999001 -0.041687
vn 0.068409 0.997655 0.002080
vn 0.002250 0.999307 0.037148
vn 0.688474 0.327945 0.646881
vn 0.942460 0.295092 0.157132
vn 0.575440 0.814743 0.071154
vn 0.493723 0.768659 0.406696
vn 0.658260 -0.010203 0.752721
vn 0.985901 0.015169 0.166641
vn -0.761766 -0.390814 0.516699
vn -0.152649 -0.493299 0.856361
vn -0.977649 -0.210042 0.009176
vn -0.628211 -0.073125 -0.774599
vn -0.987930 -0.152279 -0.028380
vn -0.097636 0.014159 -0.995122
vn 0.250251 0.032933 -0.967621
vn -0.013308 0.049108 -0.998705
vn 0.938699 -0.341363 -0.048129
vn 0.923113 -0.199604 -0.328664
vn 0.646447 -0.233964 0.726201
vn 0.987484 -0.046271 0.150776
vn 0.194836 -0.546628 0.814394
vn 0.120600 -0.518411 0.846585
vn 0.931559 -0.024424 -0.362769
vn 0.939687 -0.142281 -0.311037
vn 0.951328 -0.029393 -0.306775
vn 0.970115 0.214990 -0.112500
vn 0.984412 0.171202 -0.040300
vn 0.471221 -0.882003 -0.004670
vn 0.007486 -0.999960 0.004969
vn 0.001073 -0.999925 0.012202
vn -0.002476 -0.999789 0.020379
vn -0.435385 -0.900244 -0.000201
vn -0.995450 -0.010210 -0.094737
vn -0.967542 0.240393 -0.077935
vn -0.993990 0.066069 -0.087286
vn -0.997227 -0.009800 -0.073774
vn -0.996741 -0.030756 -0.074576
vn -0.983390 -0.159430 -0.086751
vn -0.989284 -0.111483 -0.094278
vn -0.985650 0.142632 -0.090274
vn -0.589055 0.798249 -0.125748
vn -0.105049 0.990643 -0.087129
vn 0.036188 0.997972 -0.052375
vn 0.116802 0.993153 0.002101
vn 0.520689 0.853746 -0.000410
vn 0.980112 0.198436 -0.002180
vn 0.999115 -0.021208 -0.036338
vn 0.984315 -0.113657 -0.134933
s 1
g cliff_LP
usemtl initialShadingGroup
f 18/194/1 95/195/2 113/189/3 114/188/4
f 132/43/5 133/111/6 85/112/7 5/44/8
f 104/157/9 105/158/10 91/159/11 17/160/12
f 7/132/13 92/133/14 123/134/15 124/135/16
f 119/73/17 20/74/18 108/62/19 118/61/20
f 17/1/12 125/2/21 126/3/22 104/4/9
f 10/179/23 97/180/24 98/181/25 60/182/26
f 11/16/27 128/15/28 129/22/29 62/23/30
f 62/168/30 88/169/31 89/166/32 11/165/27
f 116/53/33 12/220/34 64/218/35 115/56/36
f 14/213/37 99/49/38 100/126/39 25/50/40
f 15/34/41 130/33/42 131/38/43 26/39/44
f 26/117/44 86/116/45 87/176/46 15/175/41
f 137/81/47 138/67/48 16/222/49 27/221/50
f 7/5/13 124/6/16 125/2/21 17/1/12
f 1/202/51 94/203/52 95/195/2 18/194/1
f 120/85/53 8/86/54 20/74/18 119/73/17
f 17/160/12 91/159/11 92/133/14 7/132/13
f 22/10/55 127/9/56 128/15/28 11/16/27
f 11/165/27 89/166/32 90/162/57 22/161/55
f 117/57/58 23/223/59 12/220/34 116/53/33
f 21/183/60 96/184/61 97/180/24 10/179/23
f 26/39/44 131/38/43 132/43/5 5/44/8
f 5/44/8 85/112/7 86/116/45 26/117/44
f 137/81/47 27/221/50 6/95/62 136/96/63
f 25/50/40 100/126/39 101/123/64 3/52/65
f 29/122/66 68/94/67 69/80/68 30/178/69
f 31/170/70 63/173/71 70/71/72 71/64/73
f 32/167/74 31/170/70 71/64/73 72/63/75
f 33/164/76 106/163/77 107/75/78 73/87/79
f 34/136/80 33/164/76 73/87/79 74/140/81
f 122/137/82 34/136/80 74/140/81 121/141/83
f 36/204/84 35/209/85 76/214/86 77/210/87
f 112/196/88 36/204/84 77/210/87 111/205/89
f 38/185/90 37/190/91 78/197/92 79/192/93
f 80/191/94 59/186/95 38/185/90 79/192/93
f 40/129/96 39/201/97 81/207/98 82/131/99
f 41/127/100 40/129/96 82/131/99 83/130/101
f 42/115/102 134/114/103 135/120/104 67/121/105
f 29/122/66 42/115/102 67/121/105 68/94/67
f 9/91/106 159/77/107 160/84/108 66/97/109
f 24/90/110 158/78/111 159/77/107 9/91/106
f 19/106/112 156/100/113 157/89/114 110/101/115
f 2/109/116 155/105/117 156/100/113 19/106/112
f 35/153/85 153/148/118 154/152/119 76/155/86
f 151/144/120 152/143/121 94/149/52 1/150/51
f 150/12/122 151/17/120 1/24/51 18/19/1
f 114/18/4 149/13/123 150/12/122 18/19/1
f 147/26/124 148/20/125 21/25/60 10/30/23
f 146/31/126 147/26/124 10/30/23 60/35/26
f 144/46/127 145/41/128 14/45/37 25/50/40
f 143/51/129 144/46/127 25/50/40 3/52/65
f 3/52/65 101/123/64 142/118/130 143/51/129
f 140/128/131 141/124/132 41/127/100 83/130/101
f 28/107/133 162/102/134 139/108/135 4/110/136
f 13/104/137 161/93/138 162/102/134 28/107/133
f 171/187/139 172/48/140 99/49/38 14/213/37
f 145/41/128 170/36/141 171/40/139 14/45/37
f 167/29/142 168/28/143 130/33/42 15/34/41
f 15/175/41 87/176/46 166/172/144 167/171/142
f 164/72/145 165/177/146 30/178/69 69/80/68
f 138/67/48 178/60/147 163/59/148 16/222/49
f 175/98/149 176/83/150 161/93/138 13/104/137
f 39/201/97 173/193/151 174/198/152 81/207/98
f 68/94/67 67/121/105 6/95/62 27/82/50
f 69/80/68 68/94/67 27/82/50 16/68/49
f 163/217/148 164/72/145 69/80/68 16/68/49
f 71/64/73 70/71/72 64/55/35 12/54/34
f 72/63/75 71/64/73 12/54/34 23/58/59
f 73/87/79 107/75/78 108/219/19 20/174/18
f 74/140/81 73/87/79 20/174/18 8/145/54
f 121/141/83 74/140/81 8/145/54 120/146/53
f 76/155/86 154/152/119 155/154/117 2/156/116
f 77/210/87 76/214/86 2/216/116 19/215/112
f 111/205/89 77/210/87 19/215/112 110/211/115
f 79/192/93 78/197/92 24/206/110 9/200/106
f 66/199/109 80/191/94 79/192/93 9/200/106
f 81/207/98 174/198/152 175/208/149 13/212/137
f 82/131/99 81/207/98 13/212/137 28/107/133
f 83/130/101 82/131/99 28/107/133 4/110/136
f 139/108/135 140/128/131 83/130/101 4/110/136
f 67/121/105 135/120/104 136/96/63 6/95/62
f 85/112/7 42/115/102 29/122/66 86/116/45
f 87/176/46 86/116/45 29/122/66 30/178/69
f 166/172/144 87/176/46 30/178/69 165/177/146
f 89/166/32 88/169/31 63/173/71 31/170/70
f 90/162/57 89/166/32 31/170/70 32/167/74
f 91/159/11 105/158/10 106/163/77 33/164/76
f 92/133/14 91/159/11 33/164/76 34/136/80
f 123/134/15 92/133/14 34/136/80 122/137/82
f 94/149/52 152/143/121 153/148/118 35/153/85
f 95/195/2 94/203/52 35/209/85 36/204/84
f 113/189/3 95/195/2 36/204/84 112/196/88
f 97/180/24 96/184/61 37/190/91 38/185/90
f 98/181/25 97/180/24 38/185/90 59/186/95
f 99/49/38 172/48/140 173/193/151 39/201/97
f 100/126/39 99/49/38 39/201/97 40/129/96
f 101/123/64 100/126/39 40/129/96 41/127/100
f 142/118/130 101/123/64 41/127/100 141/124/132
f 85/112/7 133/111/6 134/114/103 42/115/102
f 104/4/9 126/3/22 127/9/56 22/10/55
f 22/161/55 90/162/57 105/158/10 104/157/9
f 106/163/77 105/158/10 90/162/57 32/167/74
f 107/75/78 106/163/77 32/167/74 72/63/75
f 108/219/19 107/75/78 72/63/75 23/58/59
f 118/61/20 108/62/19 23/223/59 117/57/58
f 110/101/115 157/89/114 158/78/111 24/90/110
f 78/197/92 111/205/89 110/211/115 24/206/110
f 37/190/91 112/196/88 111/205/89 78/197/92
f 96/184/61 113/189/3 112/196/88 37/190/91
f 114/188/4 113/189/3 96/184/61 21/183/60
f 148/20/125 149/13/123 114/18/4 21/25/60
f 44/66/153 116/53/33 115/56/36 65/69/154
f 45/65/155 117/57/58 116/53/33 44/66/153
f 109/76/156 118/61/20 117/57/58 45/65/155
f 46/88/157 119/73/17 118/61/20 109/76/156
f 47/99/158 120/85/53 119/73/17 46/88/157
f 75/147/159 121/141/83 120/146/53 47/151/158
f 48/142/160 122/137/82 121/141/83 75/147/159
f 93/138/161 123/134/15 122/137/82 48/142/160
f 124/135/16 123/134/15 93/138/161 49/139/162
f 125/2/21 124/6/16 49/11/162 50/7/163
f 126/3/22 125/2/21 50/7/163 103/8/164
f 127/9/56 126/3/22 103/8/164 51/14/165
f 128/15/28 127/9/56 51/14/165 52/21/166
f 129/22/29 128/15/28 52/21/166 61/27/167
f 130/33/42 168/28/143 169/32/168 53/37/169
f 131/38/43 130/33/42 53/37/169 54/42/170
f 132/43/5 131/38/43 54/42/170 55/47/171
f 55/47/171 102/113/172 133/111/6 132/43/5
f 134/114/103 133/111/6 102/113/172 56/119/173
f 135/120/104 134/114/103 56/119/173 84/125/174
f 136/96/63 135/120/104 84/125/174 57/103/175
f 58/92/176 137/81/47 136/96/63 57/103/175
f 58/92/176 43/79/177 138/67/48 137/81/47
f 177/70/178 178/60/147 138/67/48 43/79/177
f 57/103/175 84/125/174 140/128/131 139/108/135
f 84/125/174 56/119/173 141/124/132 140/128/131
f 102/113/172 142/118/130 141/124/132 56/119/173
f 143/51/129 142/118/130 102/113/172 55/47/171
f 55/47/171 54/42/170 144/46/127 143/51/129
f 54/42/170 53/37/169 145/41/128 144/46/127
f 53/37/169 169/32/168 170/36/141 145/41/128
f 61/27/167 52/21/166 147/26/124 146/31/126
f 52/21/166 51/14/165 148/20/125 147/26/124
f 51/14/165 103/8/164 149/13/123 148/20/125
f 150/12/122 149/13/123 103/8/164 50/7/163
f 50/7/163 49/11/162 151/17/120 150/12/122
f 49/139/162 93/138/161 152/143/121 151/144/120
f 153/148/118 152/143/121 93/138/161 48/142/160
f 154/152/119 153/148/118 48/142/160 75/147/159
f 155/154/117 154/152/119 75/147/159 47/151/158
f 156/100/113 155/105/117 47/99/158 46/88/157
f 157/89/114 156/100/113 46/88/157 109/76/156
f 158/78/111 157/89/114 109/76/156 45/65/155
f 159/77/107 158/78/111 45/65/155 44/66/153
f 160/84/108 159/77/107 44/66/153 65/69/154
f 161/93/138 176/83/150 177/70/178 43/79/177
f 162/102/134 161/93/138 43/79/177 58/92/176
f 139/108/135 162/102/134 58/92/176 57/103/175
f 64/55/35 70/71/72 164/72/145 163/217/148
f 70/71/72 63/173/71 165/177/146 164/72/145
f 88/169/31 166/172/144 165/177/146 63/173/71
f 167/171/142 166/172/144 88/169/31 62/168/30
f 62/23/30 129/22/29 168/28/143 167/29/142
f 169/32/168 168/28/143 129/22/29 61/27/167
f 170/36/141 169/32/168 61/27/167 146/31/126
f 171/40/139 170/36/141 146/31/126 60/35/26
f 60/182/26 98/181/25 172/48/140 171/187/139
f 173/193/151 172/48/140 98/181/25 59/186/95
f 174/198/152 173/193/151 59/186/95 80/191/94
f 175/208/149 174/198/152 80/191/94 66/199/109
f 66/97/109 160/84/108 176/83/150 175/98/149
f 177/70/178 176/83/150 160/84/108 65/69/154
f 65/69/154 115/56/36 178/60/147 177/70/178
f 163/59/148 178/60/147 115/56/36 64/218/35
