# This file uses meters as units for non-parametric coordinates.

mtllib Floor2.mtl
g default
v -1900.000000 -100.000000 -993.937988
v 2100.000000 -1.435364 -993.937988
v -1900.000000 -1.435364 -1800.000000
v 2100.000000 -1.435364 -1800.000000
v -1900.000000 -100.000000 393.938049
v 2100.000000 -1.435364 393.938049
v -1900.000000 -1.435364 1200.000000
v 2100.000000 -1.435364 1200.000000
v 100.000000 0.000000 -1800.000000
v 100.000000 -62.343750 -993.938110
v 100.000000 37.397949 393.938110
v 100.000000 -1.435364 1200.000000
v -1092.419922 0.000000 -1800.000000
v -1092.419922 -8.577454 -1170.162476
v -1092.419922 -62.343750 393.938110
v -1092.419922 -1.435364 1200.000000
v 1292.419922 0.000000 -1800.000000
v 1292.419922 101.435364 -993.938110
v 1292.419922 -62.343750 393.938110
v 1292.419922 -1.435364 1200.000000
v -1900.000000 -100.000000 -1687.875977
v -1092.419922 -62.343750 -1687.876099
v 100.000000 -62.343750 -1687.876099
v 1292.419922 -62.343750 -1687.876099
v 2100.000000 -1.435364 -1687.875977
v -1900.000000 -100.000000 1087.876099
v -1092.419922 -62.343750 1087.876221
v 100.000000 -62.343750 1087.876221
v 1292.419922 -62.343750 1087.876221
v 2100.000000 -1.435364 1087.876099
v -1688.629639 0.000000 -1800.000000
v -1688.629883 -62.343750 -1687.876099
v -1688.629883 -62.343750 -993.938110
v -1688.629883 -62.343750 393.938110
v -1688.629883 -62.343750 1087.876221
v -1688.629639 -1.435364 1200.000000
v 1888.629883 0.000000 -1800.000000
v 1888.629883 -62.343750 -1687.876099
v 1888.629883 -62.343750 -993.938110
v 1888.629883 -62.343750 393.938110
v 1888.629883 -62.343750 1087.876221
v 1888.629883 -1.435364 1200.000000
v -1900.000000 -100.000000 -300.000000
v -1688.629883 -62.343750 -300.000000
v -1092.419922 -8.577454 -123.775650
v 100.000000 37.397949 -300.000000
v 1292.419922 101.435364 -300.000000
v 1888.629883 -62.343750 -300.000000
v 2100.000000 -1.435364 -300.000000
v -496.209961 0.000000 -1800.000000
v -496.209961 -62.343750 -1687.876099
v -312.241150 -62.343689 -1189.519653
v -312.241150 -62.343689 -104.418411
v -496.209961 -62.343750 393.938110
v -496.209961 -62.343750 1087.876221
v -496.209961 -1.435364 1200.000000
v 696.209961 0.000000 -1800.000000
v 696.209961 -62.343750 -1687.876099
v 696.209961 -62.343750 -993.938110
v 696.209961 37.397949 -300.000000
v 696.209961 37.397949 393.938110
v 696.209961 -62.343750 1087.876221
v 696.209961 -1.435364 1200.000000
vt 0.000000 0.000000
vt 1.000000 0.000000
vt 0.000000 1.000000
vt 1.000000 1.000000
vt 0.000000 0.000000
vt 1.000000 0.000000
vt 1.000000 1.000000
vt 0.000000 1.000000
vt 0.000000 0.000000
vt 1.000000 0.000000
vt 1.000000 1.000000
vt 0.000000 1.000000
vt 0.500000 1.000000
vt 0.500000 0.000000
vt 0.500000 1.000000
vt 0.500000 0.500000
vt 0.500000 0.000000
vt 0.250000 1.000000
vt 0.250000 0.500000
vt 0.250000 0.000000
vt 0.250000 1.000000
vt 0.250000 0.000000
vt 0.750000 1.000000
vt 0.750000 0.500000
vt 0.750000 0.000000
vt 0.750000 1.000000
vt 0.750000 0.000000
vt 0.000000 0.500000
vt 0.250000 0.500000
vt 0.500000 0.500000
vt 0.750000 0.500000
vt 1.000000 0.500000
vt 0.000000 0.500000
vt 0.250000 0.500000
vt 0.500000 0.500000
vt 0.750000 0.500000
vt 1.000000 0.500000
vt 0.125000 1.000000
vt 0.125000 0.500000
vt 0.125000 0.000000
vt 0.125000 1.000000
vt 0.125000 0.000000
vt 0.125000 1.000000
vt 0.125000 0.500000
vt 0.125000 0.000000
vt 0.875000 1.000000
vt 0.875000 0.500000
vt 0.875000 0.500000
vt 0.875000 0.000000
vt 0.875000 1.000000
vt 0.875000 0.500000
vt 0.875000 0.000000
vt 0.000000 0.500000
vt 0.125000 0.500000
vt 0.500000 0.500000
vt 0.750000 0.500000
vt 0.875000 0.500000
vt 1.000000 0.500000
vt 0.375000 1.000000
vt 0.375000 0.500000
vt 0.375000 0.500000
vt 0.375000 0.000000
vt 0.375000 1.000000
vt 0.375000 0.500000
vt 0.375000 0.000000
vt 0.625000 1.000000
vt 0.625000 0.500000
vt 0.625000 0.000000
vt 0.625000 1.000000
vt 0.625000 0.500000
vt 0.625000 0.500000
vt 0.625000 0.500000
vt 0.625000 0.000000
vt 0.250000 0.500000
vt 0.375000 0.500000
vn -0.033082 0.899842 0.434960
vn 0.017737 0.999805 -0.008675
vn -0.258365 0.965326 0.037331
vn -0.134316 0.954729 0.265427
vn -0.276893 0.960901 0.000000
vn 0.076384 0.996134 0.043392
vn -0.276893 0.960901 0.000000
vn -0.276893 0.960901 0.000000
vn -0.075207 0.997168 0.000000
vn -0.069631 0.995470 -0.064745
vn -0.258799 0.965243 -0.036468
vn -0.276893 0.960901 0.000000
vn 0.000000 0.873983 0.485957
vn 0.020757 0.997890 0.061517
vn 0.000000 0.996098 0.088257
vn 0.000000 0.873983 0.485957
vn 0.022687 0.999650 -0.013642
vn -0.029982 0.999528 -0.006677
vn -0.065574 0.995977 -0.061076
vn -0.063842 0.993283 -0.096503
vn -0.041760 0.998483 0.035879
vn -0.035947 0.998360 -0.044555
vn -0.035977 0.999204 0.017228
vn -0.041233 0.993366 0.107353
vn -0.106548 0.994308 0.000000
vn -0.101646 0.994762 0.010846
vn 0.005471 0.999798 0.019335
vn 0.015718 0.999876 0.000000
vn -0.046578 0.998915 0.000000
vn -0.043285 0.995648 -0.082536
vn 0.000000 0.997157 -0.075348
vn 0.000000 1.000000 0.000000
vn 0.000000 0.873983 0.485957
vn -0.058999 0.997907 0.026492
vn 0.000000 0.999706 -0.024241
vn 0.000000 0.873983 0.485957
vn -0.093409 0.989847 -0.107137
vn -0.040596 0.998876 -0.024485
vn 0.061963 0.997282 0.039867
vn -0.187194 0.979796 -0.070414
vn 0.041233 0.993366 0.107353
vn 0.035977 0.999204 0.017228
vn 0.035947 0.998360 -0.044555
vn 0.041760 0.998483 0.035879
vn -0.078127 0.994834 0.064814
vn -0.093176 0.995212 -0.029508
vn -0.011443 0.998622 -0.051218
vn -0.006213 0.999007 0.044122
vn 0.014782 0.999623 -0.023141
vn 0.000000 1.000000 -0.000000
vn -0.068395 0.995926 -0.058763
vn 0.093305 0.992651 -0.077057
vn 0.130329 0.990228 -0.049630
vn -0.276893 0.960901 0.000000
vn -0.020100 0.862159 -0.506239
vn 0.000000 0.878718 -0.477341
vn 0.000000 0.878718 -0.477341
vn 0.000000 0.878718 -0.477341
vn 0.000000 0.878718 -0.477341
vn 0.000000 0.878718 -0.477341
vn -0.034081 0.903754 -0.426694
vn -0.137718 0.955841 -0.259618
vn -0.164025 0.982182 0.091732
vn -0.020733 0.857976 0.513271
vn -0.074920 0.810195 0.581353
vn -0.175392 0.984499 0.000000
vn -0.175392 0.984499 0.000000
vn -0.175392 0.984499 0.000000
vn -0.163615 0.982325 -0.090927
vn -0.175392 0.984499 0.000000
vn -0.072401 0.812803 -0.578022
vn -0.175392 0.984499 0.000000
vn -0.087799 0.995643 0.031421
vn -0.007377 0.998624 0.051918
vn -0.045419 0.998569 0.028234
vn -0.083997 0.996382 -0.012961
vn 0.014944 0.998152 0.058894
vn 0.083430 0.989647 0.116785
vn 0.025874 0.995893 0.086763
vn -0.276893 0.960901 0.000000
vn 0.000000 0.873983 0.485957
s 1
g pPlane5
usemtl initialShadingGroup
f 37/46/1 38/47/2 25/32/3 4/4/4
f 39/48/5 48/57/6 49/58/7 2/7/8
s 3
f 40/50/9 41/51/10 30/37/11 6/11/12
s 1
f 50/59/13 51/60/14 23/30/15 9/13/16
f 52/61/17 53/75/18 46/55/19 10/15/20
s 3
f 54/63/21 55/64/22 28/35/23 11/16/24
s 1
f 33/41/25 44/54/26 45/74/27 14/19/28
s 3
f 34/43/29 35/44/30 27/34/31 15/21/32
s 1
f 57/66/33 58/67/34 24/31/35 17/23/36
f 59/69/37 60/70/38 47/56/39 18/24/40
s 3
f 61/71/41 62/72/42 29/36/43 19/26/44
s 1
f 32/39/45 33/40/46 14/19/47 22/29/48
f 23/30/15 51/60/14 52/61/49 10/14/50
f 24/31/35 58/67/34 59/68/51 18/24/52
f 25/32/3 38/47/2 39/48/53 2/2/54
s 3
f 35/44/30 36/45/55 16/22/56 27/34/31
f 28/35/23 55/64/22 56/65/57 12/17/58
f 29/36/43 62/72/42 63/73/59 20/27/60
f 30/37/11 41/51/10 42/52/61 8/10/62
s 1
f 21/28/63 32/39/45 31/38/64 3/3/65
f 1/1/66 33/40/46 32/39/45 21/28/63
f 43/53/67 44/54/26 33/41/25 1/8/68
s 3
f 26/33/69 35/44/30 34/43/29 5/12/70
f 7/9/71 36/45/55 35/44/30 26/33/69
s 1
f 39/48/53 38/47/2 24/31/35 18/24/52
s 3
f 19/26/44 29/36/43 41/51/10 40/50/9
f 42/52/61 41/51/10 29/36/43 20/27/60
s 1
f 5/5/72 34/42/73 44/54/26 43/53/67
f 45/74/27 44/54/26 34/42/73 15/20/74
f 46/55/19 53/75/18 54/62/75 11/16/76
f 47/56/39 60/70/38 61/71/77 19/25/78
f 48/57/6 47/56/39 19/25/78 40/49/79
f 49/58/7 48/57/6 40/49/79 6/6/80
f 13/18/81 22/29/48 51/60/14 50/59/13
f 52/61/49 51/60/14 22/29/48 14/19/47
f 54/62/75 53/75/18 45/74/27 15/20/74
s 3
f 15/21/32 27/34/31 55/64/22 54/63/21
f 56/65/57 55/64/22 27/34/31 16/22/56
s 1
f 9/13/16 23/30/15 58/67/34 57/66/33
f 59/68/51 58/67/34 23/30/15 10/14/50
f 10/15/20 46/55/19 60/70/38 59/69/37
s 3
f 11/16/24 28/35/23 62/72/42 61/71/41
f 63/73/59 62/72/42 28/35/23 12/17/58
s 1
f 46/55/19 11/16/76 61/71/77 60/70/38
f 14/19/28 45/74/27 53/75/18 52/61/17
f 39/48/53 18/24/52 47/56/39 48/57/6
f 17/23/36 24/31/35 38/47/2 37/46/1
f 22/29/48 13/18/81 31/38/64 32/39/45
