# This file uses meters as units for non-parametric coordinates.

mtllib Floor1.mtl
g default
v -1900.000000 -100.000000 -993.937988
v 2100.000000 -100.000000 -993.937988
v -1900.000000 0.000000 -1800.000000
v 2100.000000 0.000000 -1800.000000
v -1900.000000 -100.000000 393.937988
v 2100.000000 -100.000000 393.937988
v -1900.000000 0.000000 1200.000000
v 2100.000000 0.000000 1200.000000
v 100.000000 0.000000 -1800.000000
v 100.000000 -60.908386 -993.937988
v 100.000000 38.833313 393.937988
v 100.000000 0.000000 1200.000000
v -1092.419922 0.000000 -1800.000000
v -1092.419922 -7.142090 -1170.162598
v -1092.419922 -60.908386 393.937988
v -1092.419922 0.000000 1200.000000
v 1292.419922 0.000000 -1800.000000
v 1292.419922 102.870728 -993.937988
v 1292.419922 -60.908386 393.937988
v 1292.419922 0.000000 1200.000000
v -1900.000000 -100.000000 -1687.875977
v -1092.419922 -60.908386 -1687.875977
v 100.000000 -60.908386 -1687.875977
v 1292.419922 -60.908386 -1687.875977
v 2100.000000 -100.000000 -1687.875977
v -1900.000000 -100.000000 1087.875977
v -1092.419922 -60.908386 1087.876221
v 100.000000 -60.908386 1087.876221
v 1292.419922 -60.908386 1087.876221
v 2100.000000 -100.000000 1087.875977
v -1688.629639 0.000000 -1800.000000
v -1688.629883 -60.908386 -1687.875977
v -1688.629883 -60.908386 -993.937988
v -1688.629883 -60.908386 393.937988
v -1688.629883 -60.908386 1087.876221
v -1688.629639 0.000000 1200.000000
v 1888.629883 0.000000 -1800.000000
v 1888.629883 -60.908386 -1687.875977
v 1888.629883 -60.908386 -993.937988
v 1888.629883 -60.908386 393.937988
v 1888.629883 -60.908386 1087.876221
v 1888.629883 0.000000 1200.000000
v -1900.000000 -100.000000 -300.000000
v -1688.629883 -60.908386 -300.000000
v -1092.419922 -7.142090 -123.775635
v 100.000000 38.833313 -300.000000
v 1292.419922 102.870728 -300.000000
v 1888.629883 -60.908386 -300.000000
v 2100.000000 -100.000000 -300.000000
v -496.209961 0.000000 -1800.000000
v -496.209961 -60.908386 -1687.875977
v -312.241150 -60.908325 -1189.519531
v -312.241150 -60.908325 -104.418457
v -496.209961 -60.908386 393.937988
v -496.209961 -60.908386 1087.876221
v -496.209961 0.000000 1200.000000
v 696.209961 0.000000 -1800.000000
v 696.209961 -60.908386 -1687.875977
v 696.209961 -60.908386 -993.937988
v 696.209961 38.833313 -300.000000
v 696.209961 38.833313 393.937988
v 696.209961 -60.908386 1087.876221
v 696.209961 0.000000 1200.000000
vt 0.000000 0.000000
vt 1.000000 0.000000
vt 0.000000 1.000000
vt 1.000000 1.000000
vt 0.000000 0.000000
vt 1.000000 0.000000
vt 1.000000 1.000000
vt 0.000000 1.000000
vt 0.000000 0.000000
vt 1.000000 0.000000
vt 1.000000 1.000000
vt 0.000000 1.000000
vt 0.500000 1.000000
vt 0.500000 0.000000
vt 0.500000 1.000000
vt 0.500000 0.500000
vt 0.500000 0.000000
vt 0.250000 1.000000
vt 0.250000 0.500000
vt 0.250000 0.000000
vt 0.250000 1.000000
vt 0.250000 0.000000
vt 0.750000 1.000000
vt 0.750000 0.500000
vt 0.750000 0.000000
vt 0.750000 1.000000
vt 0.750000 0.000000
vt 0.000000 0.500000
vt 0.250000 0.500000
vt 0.500000 0.500000
vt 0.750000 0.500000
vt 1.000000 0.500000
vt 0.000000 0.500000
vt 0.250000 0.500000
vt 0.500000 0.500000
vt 0.750000 0.500000
vt 1.000000 0.500000
vt 0.125000 1.000000
vt 0.125000 0.500000
vt 0.125000 0.000000
vt 0.125000 1.000000
vt 0.125000 0.000000
vt 0.125000 1.000000
vt 0.125000 0.500000
vt 0.125000 0.000000
vt 0.875000 1.000000
vt 0.875000 0.500000
vt 0.875000 0.500000
vt 0.875000 0.000000
vt 0.875000 1.000000
vt 0.875000 0.500000
vt 0.875000 0.000000
vt 0.000000 0.500000
vt 0.125000 0.500000
vt 0.500000 0.500000
vt 0.750000 0.500000
vt 0.875000 0.500000
vt 1.000000 0.500000
vt 0.375000 1.000000
vt 0.375000 0.500000
vt 0.375000 0.500000
vt 0.375000 0.000000
vt 0.375000 1.000000
vt 0.375000 0.500000
vt 0.375000 0.000000
vt 0.625000 1.000000
vt 0.625000 0.500000
vt 0.625000 0.000000
vt 0.625000 1.000000
vt 0.625000 0.500000
vt 0.625000 0.500000
vt 0.625000 0.500000
vt 0.625000 0.000000
vt 0.250000 0.500000
vt 0.375000 0.500000
vn 0.020851 0.861516 0.507303
vn 0.131109 0.991334 0.008264
vn 0.169703 0.981252 0.091356
vn 0.074920 0.810195 0.581353
vn 0.181860 0.983324 0.000000
vn 0.196416 0.979592 0.042671
vn 0.181860 0.983324 0.000000
vn 0.181860 0.983324 0.000000
vn 0.048349 0.998830 0.000000
vn 0.044934 0.995551 -0.082817
vn 0.169703 0.981252 -0.091356
vn 0.181860 0.983325 0.000000
vn 0.000000 0.878719 0.477340
vn 0.020760 0.998021 0.059360
vn 0.000000 0.996274 0.086240
vn 0.000000 0.878719 0.477340
vn 0.022687 0.999650 -0.013642
vn -0.029982 0.999528 -0.006677
vn -0.065574 0.995977 -0.061076
vn -0.063842 0.993283 -0.096503
vn -0.041760 0.998483 0.035879
vn -0.035947 0.998360 -0.044555
vn -0.035977 0.999204 0.017228
vn -0.041233 0.993366 0.107353
vn -0.107836 0.994169 0.000000
vn -0.103277 0.994594 0.010844
vn 0.005471 0.999798 0.019335
vn 0.015718 0.999877 0.000000
vn -0.048349 0.998830 0.000000
vn -0.044934 0.995551 -0.082817
vn 0.000000 0.997157 -0.075348
vn 0.000000 1.000000 0.000000
vn 0.000000 0.878719 0.477340
vn -0.059001 0.997952 0.024716
vn 0.000000 0.999661 -0.026020
vn 0.000000 0.878719 0.477340
vn -0.093409 0.989847 -0.107137
vn -0.040596 0.998876 -0.024485
vn 0.061963 0.997282 0.039867
vn -0.187194 0.979796 -0.070414
vn 0.041233 0.993366 0.107353
vn 0.035977 0.999204 0.017228
vn 0.035947 0.998360 -0.044555
vn 0.041760 0.998483 0.035879
vn -0.079776 0.994794 0.063417
vn -0.095399 0.995002 -0.029502
vn -0.011443 0.998622 -0.051218
vn -0.006214 0.999094 0.042103
vn 0.014782 0.999623 -0.023141
vn 0.000000 1.000000 -0.000000
vn -0.068395 0.995926 -0.058763
vn 0.093305 0.992651 -0.077058
vn 0.198563 0.978860 -0.049060
vn 0.181860 0.983324 0.000000
vn 0.000000 0.878718 -0.477341
vn 0.000000 0.878718 -0.477341
vn 0.000000 0.878718 -0.477341
vn 0.000000 0.878718 -0.477341
vn 0.020851 0.861515 -0.507304
vn 0.074920 0.810195 -0.581353
vn -0.169703 0.981252 0.091356
vn -0.020851 0.861516 0.507303
vn -0.074920 0.810195 0.581352
vn -0.181860 0.983324 0.000000
vn -0.181860 0.983324 0.000000
vn -0.181860 0.983324 0.000000
vn -0.169703 0.981252 -0.091356
vn -0.181860 0.983325 0.000000
vn -0.074920 0.810195 -0.581353
vn -0.020851 0.861515 -0.507304
vn -0.181860 0.983324 0.000000
vn -0.089736 0.995470 0.031416
vn -0.007377 0.998624 0.051918
vn -0.045419 0.998569 0.028234
vn -0.083997 0.996382 -0.012961
vn 0.014944 0.998152 0.058895
vn 0.083430 0.989647 0.116785
vn 0.147607 0.985314 0.085841
vn 0.181860 0.983324 0.000000
vn 0.000000 0.878718 0.477340
vn 0.000000 0.878718 -0.477341
s 1
g pPlane6
usemtl initialShadingGroup
f 37/46/1 38/47/2 25/32/3 4/4/4
f 39/48/5 48/57/6 49/58/7 2/7/8
s 3
f 40/50/9 41/51/10 30/37/11 6/11/12
s 1
f 50/59/13 51/60/14 23/30/15 9/13/16
f 52/61/17 53/75/18 46/55/19 10/15/20
s 3
f 54/63/21 55/64/22 28/35/23 11/16/24
s 1
f 33/41/25 44/54/26 45/74/27 14/19/28
s 3
f 34/43/29 35/44/30 27/34/31 15/21/32
s 1
f 57/66/33 58/67/34 24/31/35 17/23/36
f 59/69/37 60/70/38 47/56/39 18/24/40
s 3
f 61/71/41 62/72/42 29/36/43 19/26/44
s 1
f 32/39/45 33/40/46 14/19/47 22/29/48
f 23/30/15 51/60/14 52/61/49 10/14/50
f 24/31/35 58/67/34 59/68/51 18/24/52
f 25/32/3 38/47/2 39/48/53 2/2/54
s 3
f 28/35/23 55/64/22 56/65/55 12/17/56
f 29/36/43 62/72/42 63/73/57 20/27/58
f 30/37/11 41/51/10 42/52/59 8/10/60
s 1
f 21/28/61 32/39/45 31/38/62 3/3/63
f 1/1/64 33/40/46 32/39/45 21/28/61
f 43/53/65 44/54/26 33/41/25 1/8/66
s 3
f 26/33/67 35/44/30 34/43/29 5/12/68
f 7/9/69 36/45/70 35/44/30 26/33/67
s 1
f 39/48/53 38/47/2 24/31/35 18/24/52
s 3
f 19/26/44 29/36/43 41/51/10 40/50/9
s 1
f 5/5/71 34/42/72 44/54/26 43/53/65
f 45/74/27 44/54/26 34/42/72 15/20/73
f 46/55/19 53/75/18 54/62/74 11/16/75
f 47/56/39 60/70/38 61/71/76 19/25/77
f 48/57/6 47/56/39 19/25/77 40/49/78
f 49/58/7 48/57/6 40/49/78 6/6/79
f 13/18/80 22/29/48 51/60/14 50/59/13
f 52/61/49 51/60/14 22/29/48 14/19/47
f 54/62/74 53/75/18 45/74/27 15/20/73
s 3
f 15/21/32 27/34/31 55/64/22 54/63/21
f 56/65/55 55/64/22 27/34/31 16/22/81
s 1
f 9/13/16 23/30/15 58/67/34 57/66/33
f 59/68/51 58/67/34 23/30/15 10/14/50
f 10/15/20 46/55/19 60/70/38 59/69/37
s 3
f 11/16/24 28/35/23 62/72/42 61/71/41
f 63/73/57 62/72/42 28/35/23 12/17/56
s 1
f 46/55/19 11/16/75 61/71/76 60/70/38
f 14/19/28 45/74/27 53/75/18 52/61/17
f 39/48/53 18/24/52 47/56/39 48/57/6
f 17/23/36 24/31/35 38/47/2 37/46/1
f 22/29/48 13/18/80 31/38/62 32/39/45
s 3
f 16/22/81 27/34/31 35/44/30 36/45/70
f 29/36/43 20/27/58 42/52/59 41/51/10
