# This file uses centimeters as units for non-parametric coordinates.

mtllib GemLong.mtl
g default
v -0.500000 -2.000000 0.500000
v 0.500000 -2.000000 0.500000
v -0.030374 2.034071 0.030374
v 0.030374 2.034071 0.030374
v -0.030374 2.034071 -0.030374
v 0.030374 2.034071 -0.030374
v -0.500000 -2.000000 -0.500000
v 0.500000 -2.000000 -0.500000
v -0.500000 1.200000 0.500000
v 0.500000 1.200000 0.500000
v 0.500000 1.200000 -0.500000
v -0.500000 1.200000 -0.500000
v -0.357480 -1.648077 0.357480
v 0.357480 -1.648077 0.357480
v 0.357480 -1.648077 -0.357480
v -0.357480 -1.648077 -0.357480
vt 0.375000 0.000000
vt 0.625000 0.000000
vt 0.375000 0.250000
vt 0.625000 0.250000
vt 0.375000 0.500000
vt 0.625000 0.500000
vt 0.375000 0.750000
vt 0.625000 0.750000
vt 0.375000 1.000000
vt 0.625000 1.000000
vt 0.875000 0.000000
vt 0.875000 0.250000
vt 0.125000 0.000000
vt 0.125000 0.250000
vt 0.375000 0.200000
vt 0.625000 0.200000
vt 0.625000 0.550000
vt 0.875000 0.200000
vt 0.125000 0.200000
vt 0.375000 0.550000
vt 0.375000 0.060000
vt 0.625000 0.060000
vt 0.625000 0.690000
vt 0.875000 0.060000
vt 0.125000 0.060000
vt 0.375000 0.690000
vn 0.000000 0.010330 0.999947
vn 0.000000 0.010330 0.999947
vn 0.000000 0.490627 0.871370
vn 0.000000 0.490627 0.871370
vn 0.000000 1.000000 0.000000
vn 0.000000 1.000000 0.000000
vn 0.000000 1.000000 0.000000
vn 0.000000 1.000000 0.000000
vn 0.000000 0.490627 -0.871370
vn 0.000000 0.490627 -0.871370
vn 0.000000 0.010330 -0.999947
vn 0.000000 0.010330 -0.999947
vn 0.000000 -1.000000 0.000000
vn 0.000000 -1.000000 0.000000
vn 0.000000 -1.000000 0.000000
vn 0.000000 -1.000000 0.000000
vn 0.999947 0.010330 0.000000
vn 0.999947 0.010330 0.000000
vn 0.871370 0.490627 0.000000
vn 0.871370 0.490627 0.000000
vn -0.999947 0.010330 0.000000
vn -0.999947 0.010330 0.000000
vn -0.871370 0.490627 0.000000
vn -0.871370 0.490627 0.000000
vn 0.000000 0.012504 0.999922
vn 0.000000 0.012504 0.999922
vn 0.999922 0.012504 0.000000
vn 0.999922 0.012504 0.000000
vn 0.000000 0.012504 -0.999922
vn 0.000000 0.012504 -0.999922
vn -0.999922 0.012504 0.000000
vn -0.999922 0.012504 0.000000
vn 0.000000 0.375362 0.926878
vn 0.000000 0.375362 0.926878
vn 0.926878 0.375362 0.000000
vn 0.926878 0.375362 0.000000
vn 0.000000 0.375362 -0.926878
vn 0.000000 0.375362 -0.926878
vn -0.926878 0.375362 0.000000
vn -0.926878 0.375362 0.000000
s 1
g pCube1
usemtl initialShadingGroup
f 9/15/1 10/16/2 4/4/3 3/3/4
s off
f 3/3/5 4/4/6 6/6/7 5/5/8
s 2
f 5/5/9 6/6/10 11/17/11 12/20/12
s off
f 7/7/13 8/8/14 2/10/15 1/9/16
s 3
f 10/16/17 11/18/18 6/12/19 4/4/20
s 4
f 12/19/21 9/15/22 3/3/23 5/14/24
s 1
f 13/21/25 14/22/26 10/16/2 9/15/1
s 3
f 14/22/27 15/24/28 11/18/18 10/16/17
s 2
f 12/20/12 11/17/11 15/23/29 16/26/30
s 4
f 16/25/31 13/21/32 9/15/22 12/19/21
s 1
f 1/1/33 2/2/34 14/22/26 13/21/25
s 3
f 2/2/35 8/11/36 15/24/28 14/22/27
s 2
f 16/26/30 15/23/29 8/8/37 7/7/38
s 4
f 7/13/39 1/1/40 13/21/32 16/25/31
