# This file uses meters as units for non-parametric coordinates.

mtllib NormalFishGREY.mtl
g default
v 3.239457 37.912959 23.664247
v 13.255414 37.912959 23.664247
v 5.039477 61.793880 -40.514226
v 11.455392 61.793880 -40.514226
v 5.463943 32.408027 -40.514226
v 11.030927 32.408027 -40.514226
v 3.602548 62.055478 13.181594
v 12.892322 62.055478 13.181594
v 13.984528 27.031698 13.181594
v 2.510342 27.031698 13.181594
v 4.122485 27.031698 -6.177790
v 12.372385 27.031698 -6.177790
v 12.892322 62.055478 -6.177790
v 3.602548 62.055478 -6.177790
v 7.184680 40.020683 -28.579978
v 9.310189 40.020683 -28.579978
v 9.570526 49.902448 -28.579981
v 7.543763 49.999787 -28.579981
v 3.667434 43.636504 24.800885
v 12.827438 43.636504 24.800885
v 19.443505 42.147926 13.181594
v 19.443505 42.147926 -6.177790
v 11.958192 43.924845 -28.579978
v 9.676009 42.883419 -37.878550
v 6.818860 42.883419 -37.878550
v 5.248934 43.924845 -28.579981
v -2.948636 42.147926 -6.177790
v -2.948636 42.147926 13.181594
v 6.818860 50.317193 -37.878550
v 9.676009 50.317193 -37.878550
v 11.958192 46.695401 -28.579981
v 18.892136 52.875031 -6.177790
v 18.892136 52.875031 13.181594
v 9.846372 52.402351 21.804522
v 6.648499 52.402351 21.804522
v -2.397266 52.875031 13.181594
v -2.397266 52.875031 -6.177790
v 5.248934 46.695401 -28.579981
v -2.948636 42.147926 3.501902
v -0.503531 34.691663 13.181594
v 16.714017 34.589812 13.181594
v 19.443507 42.147926 5.437841
v 19.790755 32.605182 5.571885
v 24.333495 38.854213 -5.654200
v 21.701518 38.854215 7.727043
v -8.689563 40.074684 -4.618562
v -7.229339 40.074684 5.447176
v -2.992871 32.287420 5.061130
v 12.725512 46.691204 20.474432
v 13.464677 52.591423 18.355351
v 16.084509 44.555653 16.199619
v 18.335356 47.511479 13.181594
v -0.069495 44.476830 15.768473
v -2.218050 48.391934 13.181594
v 2.627448 51.632963 17.493058
v 2.800671 45.045113 19.390104
v 14.401127 46.498476 16.959322
v 14.382159 48.800443 16.216517
v 16.159621 45.850949 15.633758
v 16.486157 48.601263 14.701762
v 1.357463 48.535239 16.647746
v 1.335609 45.981388 16.532135
v -0.857312 47.870389 14.572064
v -0.107076 45.664183 15.361013
v 3.602548 62.055478 0.076273
v 12.892322 62.055478 0.076273
v 8.247435 62.055478 13.181594
v 8.247435 65.393730 5.252309
v 6.001531 67.011085 -18.187832
v 10.493338 67.011085 -18.187832
vt 0.375000 0.000000
vt 0.625000 0.000000
vt 0.375000 0.500000
vt 0.625000 0.500000
vt 0.375000 0.750000
vt 0.625000 0.750000
vt 0.375000 1.000000
vt 0.625000 1.000000
vt 0.875000 0.000000
vt 0.875000 0.250000
vt 0.125000 0.000000
vt 0.125000 0.250000
vt 0.334166 0.250000
vt 0.375000 0.290834
vt 0.625000 0.290834
vt 0.665834 0.250000
vt 0.625000 0.959166
vt 0.665834 0.000000
vt 0.334166 0.000000
vt 0.375000 0.959166
vt 0.258754 0.000000
vt 0.375000 0.883754
vt 0.625000 0.883754
vt 0.741246 0.000000
vt 0.625000 0.366246
vt 0.741246 0.250000
vt 0.258754 0.250000
vt 0.375000 0.366246
vt 0.171489 0.000000
vt 0.375000 0.796489
vt 0.625000 0.796489
vt 0.828511 0.000000
vt 0.625000 0.453511
vt 0.828511 0.250000
vt 0.171489 0.250000
vt 0.375000 0.453511
vt 0.375000 0.107900
vt 0.625000 0.107900
vt 0.665834 0.107900
vt 0.741246 0.107900
vt 0.828511 0.107900
vt 0.625000 0.642100
vt 0.875000 0.107900
vt 0.125000 0.107900
vt 0.375000 0.642100
vt 0.171489 0.107900
vt 0.258754 0.107900
vt 0.334166 0.107900
vt 0.125000 0.184470
vt 0.375000 0.565530
vt 0.625000 0.565530
vt 0.875000 0.184470
vt 0.828511 0.184470
vt 0.741246 0.184470
vt 0.665834 0.184470
vt 0.625000 0.184470
vt 0.375000 0.184470
vt 0.334166 0.184470
vt 0.258754 0.184470
vt 0.171489 0.184470
vt 0.296460 0.107900
vt 0.334166 0.032370
vt 0.665834 0.053950
vt 0.695999 0.107900
vt 0.665834 0.053950
vt 0.695999 0.107900
vt 0.665834 0.107900
vt 0.334166 0.107900
vt 0.296460 0.107900
vt 0.334166 0.032370
vt 0.637250 0.161499
vt 0.641334 0.184470
vt 0.651542 0.134699
vt 0.665834 0.146185
vt 0.346416 0.130871
vt 0.334166 0.153842
vt 0.354583 0.184470
vt 0.363566 0.163030
vt 0.641334 0.184470
vt 0.637250 0.161499
vt 0.651542 0.134699
vt 0.665834 0.146185
vt 0.363566 0.163030
vt 0.354583 0.184470
vt 0.334166 0.153842
vt 0.346416 0.130871
vt 0.296460 0.250000
vt 0.375000 0.328540
vt 0.625000 0.328540
vt 0.703540 0.250000
vt 0.500000 0.290834
vt 0.375000 0.328540
vt 0.500000 0.290834
vt 0.625000 0.328540
vn 0.000000 0.034074 0.999419
vn 0.000000 0.034074 0.999419
vn 0.000000 0.530776 0.847512
vn 0.000000 0.530776 0.847512
vn 0.000000 1.000000 0.000000
vn 0.000000 1.000000 0.000000
vn 0.005396 0.940802 -0.338913
vn 0.005369 0.941410 -0.337222
vn 0.000000 -0.165989 -0.986128
vn 0.000000 -0.165989 -0.986128
vn 0.000000 0.171432 -0.985196
vn 0.000000 0.171432 -0.985196
vn 0.000000 -0.980195 -0.198034
vn 0.000000 -0.980195 -0.198034
vn 0.000000 -0.931405 0.363984
vn 0.000000 -0.931405 0.363984
vn 0.932546 0.325586 -0.156048
vn 0.941199 0.319000 0.111278
vn 0.997088 0.049780 0.057773
vn 0.980744 -0.029034 0.193130
vn 0.984520 -0.174911 -0.011224
vn 0.959211 -0.232918 -0.160198
vn -0.940793 0.319790 0.112446
vn -0.931356 0.322275 -0.169454
vn -0.959273 -0.223910 -0.172218
vn -0.983327 -0.180607 -0.021205
vn -0.980718 -0.028814 0.193290
vn -0.997922 0.050374 0.040178
vn 0.000000 0.829529 0.558464
vn 0.000000 0.790055 0.613036
vn 0.000000 0.829529 0.558464
vn 0.909992 -0.005561 0.414589
vn 0.805719 0.477077 0.351019
vn 0.828865 0.422595 0.366602
vn 0.691430 0.399016 0.602255
vn 0.000000 -0.693793 0.720175
vn 0.000000 -0.693793 0.720175
vn -0.809004 0.471948 0.350395
vn 0.000000 -0.973577 -0.228357
vn 0.000000 -0.973577 -0.228357
vn 0.907596 0.255360 -0.333258
vn 0.915071 -0.244110 -0.321021
vn 0.009367 0.993975 -0.109205
vn 0.009386 0.994648 -0.102890
vn -0.905814 0.251518 -0.340939
vn -0.919900 -0.220675 -0.324170
vn 0.000000 -0.843081 0.537787
vn 0.000000 -0.843081 0.537787
vn 0.994429 -0.065126 -0.082887
vn 0.996657 0.017676 -0.079769
vn 0.008185 0.709904 0.704250
vn 0.008185 0.709904 0.704250
vn -0.998626 0.030136 -0.042882
vn -0.998339 -0.056425 -0.011644
vn 0.000000 -0.194786 0.980846
vn 0.000000 -0.194786 0.980846
vn 0.875661 -0.234424 0.422211
vn 0.929880 -0.364808 0.047312
vn 0.930794 -0.340235 0.133652
vn 0.921251 -0.344183 0.181202
vn 0.921251 -0.344183 0.181202
vn 0.921251 -0.344183 0.181202
vn 0.898108 -0.408374 -0.163196
vn 0.866423 -0.398708 -0.300572
vn 0.000000 0.244002 -0.969775
vn 0.000000 0.244002 -0.969775
vn -0.877658 -0.368880 -0.306013
vn -0.900187 -0.400304 -0.171520
vn -0.868782 -0.478888 0.126033
vn -0.868782 -0.478888 0.126033
vn -0.868782 -0.478888 0.126033
vn -0.908289 -0.002573 0.418335
vn -0.929277 -0.341299 0.141274
vn -0.928584 -0.368183 0.046612
vn -0.870192 -0.232960 0.434161
vn 0.000000 -0.223828 -0.974629
vn 0.000000 -0.223828 -0.974629
vn 0.816360 0.474443 -0.329333
vn 0.823069 0.545300 -0.158759
vn 0.831185 0.543215 0.118529
vn 0.837086 0.547071 0.000000
vn 0.654778 0.347120 0.671397
vn -0.836227 0.532829 0.129684
vn -0.661038 0.301796 0.686985
vn -0.710545 0.366024 0.600960
vn -0.823553 0.541675 -0.168371
vn -0.837086 0.547071 0.000000
vn -0.818641 0.466146 -0.335463
vn 0.991272 0.109890 0.072830
vn -0.991272 0.109889 0.072830
vn 0.988337 -0.152219 0.004422
vn -0.987985 -0.136562 0.072360
vn -0.923223 -0.038965 -0.382285
vn -0.923223 -0.038965 -0.382285
vn -0.923223 -0.038965 -0.382285
vn -0.923223 -0.038965 -0.382285
vn 0.787687 0.608209 0.098138
vn 0.787687 0.608209 0.098138
vn 0.787687 0.608209 0.098138
vn 0.787687 0.608209 0.098138
vn 0.811274 -0.346192 0.471153
vn 0.811274 -0.346192 0.471153
vn 0.811274 -0.346192 0.471153
vn 0.811274 -0.346192 0.471153
vn -0.424096 0.905074 0.031363
vn -0.424096 0.905074 0.031363
vn -0.424096 0.905074 0.031363
vn -0.424096 0.905074 0.031363
vn 0.897583 -0.072780 -0.434795
vn 0.897583 -0.072780 -0.434795
vn 0.897583 -0.072780 -0.434795
vn 0.897583 -0.072780 -0.434795
vn -0.813145 -0.367844 0.451094
vn -0.813145 -0.367844 0.451094
vn -0.813145 -0.367843 0.451094
vn -0.813145 -0.367844 0.451094
vn -0.816330 0.443282 0.370279
vn 0.870101 0.093202 0.483982
vn 0.858097 0.101186 0.503419
vn 0.680293 0.278848 0.677824
vn 0.633930 0.209468 0.744484
vn -0.777164 0.064019 0.626034
vn -0.797807 0.076387 0.598055
vn -0.649654 0.061747 0.757718
vn -0.677130 0.140234 0.722377
vn 0.753985 0.476479 0.452189
vn 0.740933 0.411100 0.531052
vn 0.753985 0.476479 0.452189
vn 0.660619 0.202101 0.723006
vn 0.494804 -0.352585 0.794263
vn 0.494804 -0.352585 0.794263
vn 0.494804 -0.352585 0.794263
vn 0.494804 -0.352585 0.794263
vn -0.695073 0.090010 0.713282
vn -0.695073 0.090010 0.713282
vn -0.695073 0.090010 0.713282
vn -0.695073 0.090010 0.713282
vn -0.631086 0.123486 0.765821
vn -0.711944 0.340369 0.614235
vn -0.721428 0.379854 0.579010
vn -0.721428 0.379854 0.579010
vn 0.000000 1.000000 0.000000
vn 0.000000 1.000000 0.000000
vn 0.000000 0.997628 0.068836
vn 0.000000 0.997628 0.068836
vn 0.000000 0.997628 0.068836
vn -0.688011 0.707606 0.161043
vn -0.688011 0.707606 0.161043
vn -0.688011 0.707606 0.161043
vn -0.688011 0.707606 0.161043
vn 0.688011 0.707606 0.161043
vn 0.688011 0.707606 0.161043
vn 0.688011 0.707606 0.161043
vn 0.688011 0.707606 0.161043
vn 0.000000 -0.965105 -0.261862
vn 0.000000 -0.965105 -0.261862
vn 0.000000 -0.965105 -0.261862
vn 0.000000 -0.965105 -0.261862
s 1
g pCube1
usemtl initialShadingGroup
f 19/37/1 20/38/2 34/56/3 35/57/4
s 2
f 65/88/5 66/89/6 13/25/7 14/28/8
s 3
f 29/50/9 30/51/10 24/42/11 25/45/12
s 4
f 11/22/13 12/23/14 9/17/15 10/20/16
s 5
f 32/54/17 33/55/18 52/74/19 21/39/20 42/64/21 22/40/22
s 6
f 36/58/23 37/59/24 27/47/25 39/61/26 28/48/27 54/76/28
s 1
f 8/15/29 67/91/30 7/14/31 35/57/4 34/56/3
s 5
f 20/38/32 21/39/20 51/73/33 49/71/34 34/56/35
s 4
f 10/20/16 9/17/15 2/8/36 1/7/37
s 6
f 53/75/38 54/76/28 28/48/27
s 4
f 15/30/39 16/31/40 12/23/14 11/22/13
s 5
f 31/53/41 32/54/17 22/40/22 23/41/42
s 2
f 14/28/8 13/25/7 17/33/43 18/36/44
s 6
f 37/59/24 38/60/45 26/46/46 27/47/25
s 4
f 5/5/47 6/6/48 16/31/40 15/30/39
s 5
f 30/52/49 31/53/41 23/41/42 24/43/50
s 2
f 18/36/44 17/33/43 4/4/51 3/3/52
s 6
f 25/44/53 26/46/46 38/60/45 29/49/54
s 1
f 1/1/55 2/2/56 20/38/2 19/37/1
s 5
f 2/2/57 9/18/58 41/63/59 21/39/20 20/38/32
s off
f 43/65/60 44/66/61 45/67/62
s 5
f 23/41/42 22/40/22 12/24/63 16/32/64
f 24/43/50 23/41/42 16/32/64
s 3
f 25/45/12 24/42/11 6/6/65 5/5/66
s 6
f 25/44/53 15/29/67 26/46/46
f 27/47/25 26/46/46 15/29/67 11/21/68
s off
f 47/68/69 46/69/70 48/70/71
s 6
f 19/37/72 28/48/27 40/62/73 10/19/74 1/1/75
s 3
f 3/3/76 4/4/77 30/51/10 29/50/9
s 5
f 17/34/78 31/53/41 30/52/49
f 13/26/79 32/54/17 31/53/41 17/34/78
f 8/16/80 33/55/18 32/54/17 13/26/79 66/90/81
f 34/56/35 50/72/82 33/55/18 8/16/80
s 6
f 7/13/83 36/58/23 55/77/84 35/57/85
f 14/27/86 37/59/24 36/58/23 7/13/83 65/87/87
f 18/35/88 38/60/45 37/59/24 14/27/86
f 18/35/88 29/49/54 38/60/45
s 5
f 24/43/50 16/32/64 6/9/89
s 6
f 5/11/90 15/29/67 25/44/53
s 5
f 17/34/78 30/52/49 4/10/91
s 6
f 3/12/92 29/49/54 18/35/88
f 40/62/73 39/61/26 27/47/25 11/21/68 10/19/74
s 5
f 22/40/22 42/64/21 41/63/59 9/18/58 12/24/63
s off
f 41/63/93 42/64/94 44/66/95 43/65/96
f 42/64/97 21/39/98 45/67/99 44/66/100
f 21/39/101 41/63/102 43/65/103 45/67/104
f 28/48/105 39/61/106 46/69/107 47/68/108
f 39/61/109 40/62/110 48/70/111 46/69/112
f 40/62/113 28/48/114 47/68/115 48/70/116
s 6
f 35/57/85 56/78/117 53/75/38 28/48/27 19/37/72
s 5
f 34/56/35 49/71/34 50/72/82
f 50/72/82 52/74/19 33/55/18
f 52/74/19 51/73/33 21/39/20
f 58/79/118 57/80/119 59/81/120 60/82/121
s 6
f 35/57/85 55/77/84 56/78/117
f 54/76/28 55/77/84 36/58/23
f 62/83/122 61/84/123 63/85/124 64/86/125
s 5
f 50/72/82 49/71/34 57/80/119 58/79/118
f 49/71/126 51/73/127 59/81/120 57/80/128
f 51/73/127 52/74/129 60/82/121 59/81/120
s off
f 52/74/130 50/72/131 58/79/132 60/82/133
s 6
f 56/78/117 55/77/84 61/84/123 62/83/122
s off
f 55/77/134 54/76/135 63/85/136 61/84/137
s 6
f 54/76/138 53/75/139 64/86/125 63/85/124
f 53/75/139 56/78/140 62/83/141 64/86/125
s 1
f 66/89/142 67/91/30 8/15/29
f 7/14/31 67/91/30 65/88/143
s off
f 69/92/144 68/93/145 70/94/146
f 65/88/147 67/91/148 68/93/149 69/92/150
f 67/91/151 66/89/152 70/94/153 68/93/154
f 66/89/155 65/88/156 69/92/157 70/94/158
