# This file uses meters as units for non-parametric coordinates.

mtllib Rocks1.mtl
g default
v -4.262506 1.185559 -0.475507
v -2.663443 1.227938 -0.485868
v -3.076191 1.251442 -1.970833
v -4.315394 1.185559 -1.774341
v -4.111302 1.872859 -1.974699
v -3.164830 1.806976 -1.828190
v -2.655718 1.652022 -0.504181
v -4.251758 1.872859 -0.496396
v -4.373129 0.710079 -0.655728
v -4.272633 0.966449 -0.378157
v -2.594952 0.966449 -0.378157
v -2.926007 0.698536 -0.561931
v -4.405518 0.730809 -1.937566
v -4.485139 0.958161 -2.040195
v -2.985203 0.730809 -1.863882
v -2.871931 0.958161 -2.007997
v -3.792299 1.872859 -0.052172
v -3.852954 1.049415 -0.297178
v -3.976682 0.830304 -0.451009
v -4.133920 0.619506 -0.561931
v -3.936882 0.730809 -2.003283
v -3.726073 0.958161 -2.197896
v -3.746883 1.185559 -2.290597
v -3.781047 1.872859 -1.997901
v -3.313833 1.185559 -2.290597
v -3.287221 0.958161 -2.197896
v -3.320168 0.730809 -2.003283
v -3.150350 0.616210 -0.561931
v -3.093214 0.830304 -0.451009
v -3.279309 1.049415 -0.008278
v -3.291062 1.872859 0.167751
v -3.445757 1.872859 -1.997901
v -2.595645 1.628519 -1.595429
v -2.610869 1.251442 -1.564508
v -2.507592 0.960647 -1.664924
v -2.918906 0.698536 -1.570877
v -3.327330 0.528361 -1.570877
v -4.136761 0.528361 -1.570877
v -4.380231 0.618935 -1.570877
v -4.690421 0.960647 -1.730015
v -4.533020 1.185559 -1.648474
v -4.430809 1.872859 -1.531210
v -2.389825 1.694402 -1.013801
v -2.434754 1.185559 -1.061990
v -2.378835 0.963548 -1.021542
v -2.922457 0.698536 -1.066403
v -3.329887 0.528361 -1.066403
v -4.135340 0.528361 -1.066403
v -4.376680 0.618935 -1.066403
v -4.576795 2.177129 -1.013801
v -4.217912 2.804488 -1.365979
v -3.879729 2.936581 -1.414036
v -3.589655 2.913321 -1.293974
v -3.050228 2.809507 -1.682193
v -2.781694 2.673646 -1.472414
v -2.715864 2.673646 -1.050528
v -2.895525 2.668310 -0.773896
v -3.371400 2.676062 -0.741091
v -3.954490 2.646686 -0.589458
v -4.207770 2.535175 -0.731670
v -4.429500 2.419426 -0.939285
v -4.412099 2.549778 -1.524947
v -2.749750 2.313651 -0.557489
v -2.518772 2.313651 -1.017474
v -2.659156 2.313651 -1.517153
v -3.181731 2.280583 -1.834769
v -3.419686 2.280583 -2.084187
v -3.895982 2.280583 -2.084187
v -4.066452 2.280583 -1.945448
v -4.529983 2.280583 -1.517153
v -4.524149 2.282112 -1.019779
v -4.221571 2.282112 -0.526222
v -3.814813 2.280583 -0.370025
v -3.242015 2.280583 -0.595148
v -5.053033 0.730809 -1.066403
v -5.311422 0.963548 -1.021542
v -5.243856 0.960647 -1.469565
v -5.056585 0.730809 -1.393191
v -5.249840 1.275663 -1.348185
v -5.296449 1.325990 -1.061990
v -5.155409 1.635005 -1.350201
v -5.181363 1.635005 -1.013801
v -5.049483 0.730810 -0.776635
v -5.236936 0.966449 -0.650176
v -5.160349 1.185559 -0.624351
v -5.058940 1.635005 -0.677403
v -4.736844 0.698536 -1.066403
v -4.733293 0.698536 -0.729058
v -4.668505 0.966449 -0.418965
v -4.618213 1.185559 -0.341115
v -4.659115 1.730147 -0.362004
v -4.807491 1.730147 -1.545732
v -4.849016 1.254126 -1.563120
v -4.893884 0.960647 -1.670864
v -4.740394 0.698536 -1.513858
v -5.008077 2.035719 -1.342784
v -5.236696 1.973201 -1.214299
v -5.253750 1.973201 -0.993251
v -4.910579 2.035719 -0.564952
v -5.173305 1.973201 -0.772202
v -4.642904 2.129495 -0.653262
v -4.651965 2.319030 -0.993251
v -4.760559 2.129495 -1.333241
v -5.108226 2.754043 -0.972196
v -5.111174 2.695178 -1.141157
v -5.218416 2.556817 -1.075033
v -5.223158 2.557326 -0.967661
v -5.051626 2.700407 -0.765863
v -5.180710 2.559963 -0.861855
v -4.925527 2.751312 -0.813252
v -4.933456 2.788527 -0.978210
v -4.993277 2.746033 -1.140813
v -3.298322 3.407366 -1.495911
v -3.052562 3.375895 -1.493562
v -3.303005 3.280766 -0.842441
v -2.954206 3.286615 -0.919237
v -2.685329 3.289989 -1.360917
v -2.643704 3.289989 -1.094154
v -3.070713 3.666847 -1.352126
v -2.993838 3.649225 -1.350811
v -3.073335 3.595959 -0.986227
v -2.938766 3.599234 -1.029227
v -2.788213 3.601123 -1.276538
v -2.764906 3.601123 -1.127169
vt 0.875000 0.119097
vt 0.375000 0.630903
vt 0.125000 0.184548
vt 0.375000 0.565452
vt 0.625000 0.565452
vt 0.875000 0.184548
vt 0.625000 0.184548
vt 0.375000 0.184548
vt 0.395715 0.986966
vt 0.410912 0.964088
vt 0.604285 0.986966
vt 0.589088 0.964088
vt 0.605013 0.758118
vt 0.394987 0.758118
vt 0.590351 0.784649
vt 0.409649 0.784649
vt 0.625000 0.061713
vt 0.375000 0.119097
vt 0.875000 0.059543
vt 0.625000 0.119097
vt 0.625000 0.630903
vt 0.625000 0.690458
vt 0.375000 0.690457
vt 0.125000 0.059543
vt 0.375000 0.061713
vt 0.125000 0.119097
vt 0.450000 0.184548
vt 0.450000 0.119097
vt 0.458286 0.986966
vt 0.450000 0.061713
vt 0.464365 0.964088
vt 0.463860 0.784649
vt 0.457995 0.758118
vt 0.450000 0.690457
vt 0.450000 0.630903
vt 0.450000 0.565452
vt 0.590000 0.630903
vt 0.575610 0.758118
vt 0.590000 0.690458
vt 0.565053 0.784649
vt 0.564143 0.964088
vt 0.575085 0.986966
vt 0.590000 0.061713
vt 0.590000 0.119097
vt 0.590000 0.184548
vt 0.590000 0.565452
vt 0.800000 0.184548
vt 0.800000 0.119097
vt 0.604795 0.826772
vt 0.800000 0.060194
vt 0.589972 0.838481
vt 0.564780 0.838481
vt 0.464011 0.838481
vt 0.410028 0.838481
vt 0.395205 0.826772
vt 0.200000 0.060194
vt 0.200000 0.119097
vt 0.200000 0.184548
vt 0.712500 0.184548
vt 0.712500 0.119097
vt 0.604540 0.906869
vt 0.712500 0.060953
vt 0.589530 0.901284
vt 0.564462 0.901284
vt 0.464188 0.901284
vt 0.410470 0.901284
vt 0.395460 0.906869
vt 0.287500 0.060953
vt 0.287500 0.119097
vt 0.287500 0.184548
vt 0.250000 0.375000
vt 0.450000 0.513090
vt 0.590000 0.513090
vt 0.750000 0.375000
vt 0.800000 0.236910
vt 0.712500 0.236910
vt 0.625000 0.236910
vt 0.590000 0.236910
vt 0.450000 0.236910
vt 0.375000 0.236910
vt 0.287500 0.236910
vt 0.200000 0.236910
vt 0.625000 0.189785
vt 0.712500 0.189785
vt 0.800000 0.189785
vt 0.625000 0.560215
vt 0.875000 0.189785
vt 0.590000 0.560215
vt 0.450000 0.560215
vt 0.125000 0.189785
vt 0.375000 0.560215
vt 0.200000 0.189785
vt 0.287500 0.189785
vt 0.375000 0.189785
vt 0.450000 0.189785
vt 0.590000 0.189785
vt 0.395205 0.826772
vt 0.410028 0.838481
vt 0.410470 0.901284
vt 0.200000 0.119097
vt 0.200000 0.060194
vt 0.200000 0.184548
vt 0.287500 0.184548
vt 0.410912 0.964088
vt 0.395715 0.986966
vt 0.375000 0.061713
vt 0.375000 0.119097
vt 0.375000 0.184548
vt 0.410470 0.901284
vt 0.410912 0.964088
vt 0.395715 0.986966
vt 0.375000 0.061713
vt 0.375000 0.119097
vt 0.375000 0.184548
vt 0.287500 0.184548
vt 0.200000 0.184548
vt 0.200000 0.119097
vt 0.200000 0.060194
vt 0.395205 0.826772
vt 0.410028 0.838481
vt 0.200000 0.184548
vt 0.200000 0.184548
vt 0.287500 0.184548
vt 0.375000 0.184548
vt 0.375000 0.184548
vt 0.375000 0.184548
vt 0.287500 0.184548
vt 0.200000 0.184548
vt 0.200000 0.184548
vt 0.200000 0.184548
vt 0.287500 0.184548
vt 0.375000 0.184548
vt 0.375000 0.184548
vt 0.375000 0.184548
vt 0.287500 0.184548
vt 0.200000 0.184548
vt 0.750000 0.375000
vt 0.590000 0.513090
vt 0.590000 0.236910
vt 0.625000 0.236910
vt 0.800000 0.236910
vt 0.712500 0.236910
vt 0.750000 0.375000
vt 0.590000 0.513090
vt 0.590000 0.236910
vt 0.625000 0.236910
vt 0.800000 0.236910
vt 0.712500 0.236910
vn -0.271272 0.231498 -0.934249
vn -0.248149 0.118086 -0.961498
vn 0.306191 0.187791 -0.933264
vn 0.299488 0.236680 -0.924278
vn 0.766563 0.096145 -0.634931
vn 0.798395 0.190952 -0.571055
vn 0.564968 0.255358 -0.784604
vn 0.486284 0.105970 -0.867351
vn -0.699038 0.266687 -0.663494
vn -0.684461 0.327356 -0.651422
vn -0.787607 0.034710 -0.615199
vn -0.735596 0.047534 -0.675751
vn 0.156930 0.457872 -0.875058
vn -0.081469 0.504046 -0.859826
vn -0.049878 0.739353 -0.671469
vn 0.070912 0.718342 -0.692067
vn 0.561785 0.173866 -0.808807
vn 0.743015 0.282533 -0.606715
vn 0.774766 0.191908 -0.602419
vn 0.491424 0.114078 -0.863417
vn 0.161244 0.473419 0.865953
vn -0.004704 0.504406 0.863454
vn -0.183814 0.456596 0.870478
vn 0.235556 0.592823 0.770113
vn -0.689498 0.148355 -0.708931
vn -0.860642 0.212743 -0.462640
vn -0.638613 0.525757 -0.561920
vn -0.486675 0.497165 -0.718314
vn -0.720522 -0.628414 -0.293162
vn -0.720522 -0.628414 -0.293162
vn -0.720522 -0.628414 -0.293162
vn -0.720522 -0.628414 -0.293162
vn -0.058736 -0.481014 0.874743
vn -0.118617 -0.498272 0.858869
vn 0.014858 -0.482043 0.876022
vn 0.032360 -0.503453 0.863416
vn 0.497813 -0.856817 -0.134339
vn 0.500349 -0.852984 -0.148557
vn 0.526336 -0.754689 -0.391682
vn 0.526336 -0.754689 -0.391682
vn -0.110342 -0.552636 -0.826086
vn -0.044128 -0.613283 -0.788630
vn 0.133116 -0.649755 -0.748398
vn 0.138143 -0.649505 -0.747703
vn 0.113379 -0.978053 -0.174806
vn -0.077121 -0.979177 -0.187792
vn -0.029423 -0.907844 -0.418275
vn 0.068268 -0.914003 -0.399922
vn -0.375694 -0.470789 0.798256
vn -0.144099 -0.634901 0.759036
vn 0.146759 -0.638549 0.755458
vn 0.459085 -0.389092 0.798654
vn 0.762327 0.417742 -0.494316
vn 0.592108 0.466543 -0.657073
vn -0.283802 0.147430 -0.947481
vn 0.370584 -0.066092 -0.926445
vn -0.491972 0.725485 -0.481285
vn -0.491972 0.725484 -0.481285
vn -0.495756 0.381173 0.780342
vn -0.429063 0.450157 0.783112
vn -0.545984 -0.090039 0.832943
vn -0.584461 0.043843 0.810237
vn -0.582938 0.062515 0.810108
vn -0.175004 -0.073092 0.981851
vn -0.256362 -0.530489 0.807998
vn -0.256362 -0.530489 0.807998
vn -0.151526 -0.908126 -0.390317
vn -0.243546 -0.943287 -0.225598
vn -0.154101 -0.509099 -0.846801
vn -0.154101 -0.509099 -0.846800
vn -0.477112 0.246924 -0.843441
vn -0.406857 0.438366 -0.801437
vn -0.475751 0.080663 -0.875873
vn -0.405623 0.642285 -0.650339
vn -0.405958 0.490627 -0.771028
vn 0.630448 0.300947 -0.715518
vn 0.593962 0.179726 -0.784160
vn 0.312099 -0.630065 -0.711064
vn 0.312099 -0.630065 -0.711064
vn 0.346200 -0.930789 -0.117380
vn 0.267655 -0.910116 -0.316307
vn 0.090585 -0.571569 0.815539
vn 0.090585 -0.571569 0.815539
vn 0.407449 -0.367073 0.836207
vn 0.626982 -0.147979 0.764851
vn 0.473198 0.411188 0.779107
vn 0.632917 0.157514 0.758027
vn -0.015775 0.430207 0.902593
vn 0.359517 0.531137 0.767229
vn 0.162005 0.465519 -0.870084
vn -0.054704 0.628129 -0.776184
vn 0.649572 0.216460 -0.728836
vn 0.871112 0.478564 0.110180
vn 0.958731 0.271313 0.085001
vn 0.994140 0.079869 0.072846
vn 0.993830 0.104958 0.035848
vn 0.939965 0.332254 0.077932
vn 0.491254 -0.870691 0.023817
vn 0.490721 -0.871097 0.019569
vn 0.378997 -0.925361 0.008299
vn 0.102798 -0.991692 0.077323
vn -0.082596 -0.992255 0.092781
vn -0.365235 -0.926459 0.090978
vn -0.713971 -0.700159 0.004769
vn -0.713121 -0.700861 0.015868
vn -0.717066 -0.694700 -0.056643
vn -0.717066 -0.694700 -0.056643
vn -0.979434 0.135871 -0.149157
vn -0.987275 0.031715 -0.155826
vn -0.992251 0.100230 0.073427
vn -0.973951 0.204843 0.097258
vn -0.942848 0.304859 -0.134531
vn -0.941195 0.282967 0.184613
vn -0.842251 0.422008 0.335443
vn -0.943356 0.229830 0.239286
vn 0.849843 0.271413 0.451776
vn 0.750942 0.507687 0.422303
vn 0.919838 0.093152 0.381079
vn 0.896463 0.061212 0.438870
vn 0.892108 0.325554 0.313302
vn 0.499078 -0.861034 0.097686
vn 0.499078 -0.861033 0.097686
vn 0.139372 -0.983143 0.118347
vn 0.371078 -0.928462 0.016116
vn -0.069264 -0.981533 0.178315
vn -0.377833 -0.907640 0.182846
vn -0.705642 -0.703284 0.086375
vn -0.705642 -0.703284 0.086375
vn -0.949056 0.156300 0.273611
vn -0.927264 0.208033 0.311293
vn -0.900912 0.259388 0.347958
vn -0.770204 0.378326 0.513474
vn -0.805300 0.228986 0.546861
vn -0.962794 0.053623 0.264863
vn -0.813553 0.169768 0.556157
vn -0.322296 -0.594704 -0.736514
vn -0.294681 -0.593381 -0.749041
vn -0.372730 -0.595706 -0.711482
vn -0.372730 -0.595706 -0.711482
vn -0.177994 -0.984031 0.001386
vn -0.169097 -0.985599 0.001333
vn -0.101368 -0.994849 0.000930
vn -0.101368 -0.994849 0.000930
vn -0.367801 0.363648 -0.855852
vn -0.359295 0.365936 -0.858486
vn -0.448517 0.339915 -0.826614
vn -0.448517 0.339915 -0.826614
vn -0.251495 0.118427 -0.960586
vn -0.286721 0.115482 -0.951028
vn -0.485704 0.095040 -0.868941
vn -0.485704 0.095040 -0.868941
vn -0.576489 0.794290 -0.191739
vn -0.616948 0.765296 -0.183568
vn -0.838887 0.531017 -0.119543
vn -0.838887 0.531017 -0.119543
vn -0.185381 -0.695142 0.694558
vn -0.153942 -0.707732 0.689505
vn -0.245630 -0.668452 0.702024
vn -0.245630 -0.668452 0.702024
vn -0.104094 -0.992079 0.070307
vn -0.104318 -0.991530 0.077374
vn -0.101629 -0.994822 0.001152
vn -0.101629 -0.994822 0.001152
vn -0.264285 -0.058524 0.962668
vn -0.179579 -0.039822 0.982937
vn -0.418518 -0.092574 0.903478
vn -0.418518 -0.092574 0.903478
vn -0.124005 0.075375 0.989415
vn -0.092509 0.073347 0.993007
vn -0.540763 0.095087 0.835784
vn -0.540763 0.095087 0.835784
vn -0.535196 0.780663 0.322693
vn -0.575295 0.749629 0.327250
vn -0.804052 0.490955 0.335357
vn -0.804052 0.490955 0.335357
vn -0.105597 -0.986987 0.121265
vn -0.105597 -0.986987 0.121265
vn -0.091071 -0.730239 0.677095
vn -0.091071 -0.730239 0.677095
vn 0.123519 0.027110 0.991972
vn 0.123519 0.027110 0.991972
vn 0.325306 0.040003 0.944762
vn 0.325306 0.040003 0.944762
vn -0.218809 0.938348 0.267630
vn -0.218809 0.938348 0.267630
vn -0.276400 0.932440 -0.232719
vn -0.276400 0.932440 -0.232719
vn -0.114456 0.128169 -0.985126
vn -0.114456 0.128169 -0.985126
vn -0.195570 0.402799 -0.894151
vn -0.195570 0.402799 -0.894151
vn -0.242094 -0.589420 -0.770698
vn -0.242094 -0.589420 -0.770698
vn -0.215683 -0.976462 0.001609
vn -0.215683 -0.976462 0.001609
vn 0.006359 0.934146 0.356835
vn 0.006359 0.934146 0.356835
vn 0.006359 0.934146 0.356835
vn 0.006359 0.934146 0.356835
vn -0.403859 0.860053 0.311781
vn -0.403859 0.860053 0.311781
vn -0.403859 0.860053 0.311781
vn -0.403859 0.860053 0.311781
vn 0.099110 0.981305 0.164979
vn 0.099110 0.981305 0.164979
vn 0.099110 0.981305 0.164979
vn 0.099110 0.981305 0.164979
vn 0.125619 0.988514 0.084023
vn 0.125619 0.988514 0.084023
vn 0.125619 0.988514 0.084023
vn 0.125619 0.988514 0.084023
vn -0.745130 0.635075 0.203619
vn -0.745130 0.635075 0.203619
vn -0.745130 0.635075 0.203619
vn -0.745130 0.635075 0.203619
vn 0.002916 0.798227 0.602350
vn 0.002916 0.798227 0.602350
vn -0.418008 -0.213341 0.883037
vn -0.418008 -0.213341 0.883037
vn -0.418008 -0.213341 0.883037
vn -0.418008 -0.213341 0.883037
vn -0.521745 0.207148 -0.827570
vn -0.521744 0.207148 -0.827570
vn -0.521744 0.207148 -0.827570
vn -0.521744 0.207148 -0.827570
vn -0.976002 -0.204328 -0.075299
vn -0.976002 -0.204328 -0.075299
vn -0.976002 -0.204328 -0.075299
vn -0.976002 -0.204328 -0.075299
vn -0.917390 -0.216644 0.333859
vn -0.917390 -0.216644 0.333859
vn -0.917390 -0.216644 0.333859
vn -0.917390 -0.216644 0.333859
vn -0.620752 0.009830 0.783946
vn -0.620752 0.009830 0.783946
vn -0.620752 0.009830 0.783946
vn -0.620752 0.009830 0.783946
vn 0.598439 0.772662 0.211812
vn 0.598439 0.772662 0.211812
vn 0.598439 0.772662 0.211812
vn 0.598439 0.772662 0.211812
vn 0.060955 0.586548 0.807618
vn 0.060955 0.586548 0.807618
vn 0.060955 0.586548 0.807618
vn 0.060955 0.586548 0.807618
vn 0.517855 0.750885 -0.409876
vn 0.517855 0.750885 -0.409876
vn 0.517855 0.750885 -0.409876
vn 0.517855 0.750885 -0.409876
vn -0.147740 0.478057 -0.865814
vn -0.147740 0.478057 -0.865814
vn -0.147740 0.478057 -0.865814
vn -0.147740 0.478057 -0.865814
vn -0.571703 0.180479 -0.800365
vn -0.571703 0.180479 -0.800365
vn -0.571703 0.180479 -0.800365
vn -0.571703 0.180479 -0.800365
vn -0.996499 0.051052 -0.066213
vn -0.996499 0.051052 -0.066213
vn -0.996499 0.051052 -0.066213
vn -0.996499 0.051052 -0.066213
vn -0.935459 0.037751 0.351414
vn -0.935459 0.037751 0.351415
vn -0.935459 0.037751 0.351414
vn -0.935459 0.037751 0.351415
vn -0.641023 0.100626 0.760897
vn -0.641023 0.100626 0.760897
vn -0.641023 0.100626 0.760897
vn -0.641023 0.100626 0.760897
vn 0.863380 0.470497 0.182229
vn 0.863380 0.470497 0.182229
vn 0.863380 0.470497 0.182229
vn 0.863380 0.470497 0.182229
vn 0.199201 0.324953 0.924513
vn 0.199201 0.324953 0.924513
vn 0.199201 0.324953 0.924513
vn 0.199201 0.324953 0.924513
vn 0.763334 0.449967 -0.463520
vn 0.763334 0.449967 -0.463520
vn 0.763334 0.449967 -0.463521
vn 0.763334 0.449967 -0.463520
vn -0.082586 0.274157 -0.958132
vn -0.082586 0.274157 -0.958132
vn -0.082586 0.274157 -0.958133
vn -0.082586 0.274157 -0.958133
vn -0.424118 0.104296 -0.899581
vn -0.424118 0.104296 -0.899581
vn -0.424118 0.104296 -0.899581
vn -0.424118 0.104296 -0.899581
vn -0.891238 0.365797 0.268116
vn -0.891238 0.365797 0.268116
vn -0.891238 0.365797 0.268116
vn -0.891238 0.365797 0.268116
vn 0.129655 0.195068 0.972182
vn 0.129655 0.195068 0.972182
vn 0.129655 0.195068 0.972182
vn 0.129655 0.195068 0.972182
vn 0.513065 0.172575 -0.840822
vn 0.513065 0.172575 -0.840822
vn 0.513065 0.172575 -0.840822
vn 0.513065 0.172575 -0.840822
vn 0.672808 0.104746 0.732365
vn 0.672808 0.104746 0.732365
vn 0.672808 0.104746 0.732365
vn 0.672808 0.104746 0.732365
vn 0.980221 -0.125588 -0.152951
vn 0.980221 -0.125588 -0.152951
vn 0.980221 -0.125587 -0.152951
vn 0.980221 -0.125587 -0.152951
vn 0.077081 0.439781 -0.894791
vn 0.077081 0.439781 -0.894791
vn 0.077081 0.439781 -0.894791
vn 0.077081 0.439781 -0.894791
vn -0.777374 0.618573 0.114270
vn -0.777374 0.618573 0.114269
vn -0.777374 0.618573 0.114269
vn -0.777374 0.618573 0.114269
vn 0.225216 0.288275 0.930685
vn 0.225216 0.288275 0.930685
vn 0.225216 0.288275 0.930685
vn 0.225216 0.288275 0.930685
vn 0.390223 0.358973 -0.847859
vn 0.390223 0.358973 -0.847859
vn 0.390223 0.358973 -0.847859
vn 0.390223 0.358973 -0.847859
vn 0.470036 0.272196 0.839629
vn 0.470036 0.272196 0.839629
vn 0.470036 0.272196 0.839629
vn 0.470036 0.272196 0.839629
vn 0.927092 0.345796 -0.144660
vn 0.927092 0.345796 -0.144660
vn 0.927092 0.345796 -0.144660
vn 0.927092 0.345796 -0.144660
s 1
g pCube3
usemtl lambert2SG
f 23/35/1 24/36/2 32/46/3 25/37/4
s 2
f 33/47/5 34/48/6 3/1/7 6/6/8
s 3
f 4/26/9 41/57/10 42/58/11 5/3/12
s 1
f 67/88/13 68/89/14 52/72/15 53/73/16
s 2
f 54/74/17 55/75/18 65/85/19 66/87/20
s 5
f 58/78/21 59/79/22 73/95/23 74/96/24
s 3
f 69/90/25 70/92/26 62/82/27 51/71/28
s off
f 39/54/29 40/55/30 14/14/31 13/16/32
s 6
f 19/29/33 20/31/34 28/41/35 29/42/36
s 7
f 35/49/37 36/51/38 15/15/39 16/13/40
s 8
f 21/32/41 22/33/42 26/38/43 27/40/44
s 9
f 37/52/45 38/53/46 21/32/47 27/40/48
s 5
f 18/28/49 19/30/50 29/43/51 30/44/52
s 2
f 34/48/6 35/50/53 16/19/54 3/1/7
s 1
f 22/34/55 23/35/1 25/37/4 26/39/56
s 3
f 14/24/57 40/56/58 41/57/10 4/26/9
s 5
f 72/94/59 73/95/23 59/79/22 60/80/60
f 1/18/61 18/28/49 17/27/62 8/8/63
f 10/25/64 19/30/50 18/28/49 1/18/61
s 6
f 10/9/65 9/10/66 20/31/34 19/29/33
s 9
f 13/16/67 21/32/47 38/53/46 39/54/68
s 8
f 13/16/69 14/14/70 22/33/42 21/32/41
s 1
f 4/2/71 23/35/1 22/34/55 14/23/72
f 5/4/73 24/36/2 23/35/1 4/2/71
f 51/71/74 52/72/15 68/89/14 69/91/75
f 26/39/56 25/37/4 3/21/76 16/22/77
s 8
f 27/40/44 26/38/43 16/13/78 15/15/79
s 9
f 36/51/80 37/52/45 27/40/48 15/15/81
s 6
f 29/42/36 28/41/35 12/12/82 11/11/83
s 5
f 30/44/52 29/43/51 11/17/84 2/20/85
f 31/45/86 30/44/52 2/20/85 7/7/87
f 57/77/88 58/78/21 74/96/24 63/83/89
s 1
f 66/86/90 67/88/13 53/73/16 54/74/91
f 25/37/4 32/46/3 6/5/92 3/21/76
s 2
f 55/75/18 56/76/93 64/84/94 65/85/19
f 43/59/95 44/60/96 34/48/6 33/47/5
f 44/60/96 45/62/97 35/50/53 34/48/6
s 7
f 45/61/98 46/63/99 36/51/38 35/49/37
s 9
f 46/63/100 47/64/101 37/52/45 36/51/80
f 47/64/101 48/65/102 38/53/46 37/52/45
f 39/54/68 38/53/46 48/65/102 49/66/103
s 11
f 75/99/104 76/67/105 77/97/106 78/98/107
s 12
f 79/100/108 77/101/109 76/68/110 80/69/111
f 81/102/112 79/100/108 80/69/111 82/103/113
s 3
f 61/81/114 62/82/27 70/92/26 71/93/115
s 2
f 63/83/116 64/84/94 56/76/93 57/77/117
f 2/20/118 44/60/96 43/59/95 7/7/119
f 11/17/120 45/62/97 44/60/96 2/20/118
s 7
f 11/11/121 12/12/122 46/63/99 45/61/98
s 9
f 28/41/123 47/64/101 46/63/100 12/12/124
f 20/31/125 48/65/102 47/64/101 28/41/123
f 49/66/103 48/65/102 20/31/125 9/10/126
s 11
f 83/104/127 84/105/128 76/67/105 75/99/104
s 12
f 80/69/111 76/68/110 84/106/129 85/107/130
f 82/103/113 80/69/111 85/107/130 86/108/131
s 3
f 60/80/132 61/81/114 71/93/115 72/94/133
s 2
f 7/7/119 43/59/95 64/84/94 63/83/116
f 65/85/19 64/84/94 43/59/95 33/47/5
f 66/87/20 65/85/19 33/47/5 6/6/8
s 1
f 32/46/3 67/88/13 66/86/90 6/5/92
f 24/36/2 68/89/14 67/88/13 32/46/3
f 69/91/75 68/89/14 24/36/2 5/4/73
s 3
f 5/3/12 42/58/11 70/92/26 69/90/25
f 71/93/115 70/92/26 42/58/11 50/70/134
f 72/94/133 71/93/115 50/70/134 8/8/135
s 5
f 8/8/63 17/27/62 73/95/23 72/94/59
f 63/83/89 74/96/24 31/45/86 7/7/87
s 13
f 94/119/136 95/120/137 78/98/138 77/97/139
s 14
f 95/120/140 87/109/141 75/99/142 78/98/143
s 15
f 93/117/144 94/118/145 77/101/146 79/100/147
s 16
f 92/116/148 93/117/149 79/100/150 81/102/151
s 17
f 104/115/152 105/129/153 106/130/154 107/131/155
s 18
f 88/110/156 89/111/157 84/105/158 83/104/159
s 19
f 87/109/160 88/110/161 83/104/162 75/99/163
s 20
f 89/112/164 90/113/165 85/107/166 84/106/167
s 21
f 90/113/168 91/114/169 86/108/170 85/107/171
s 22
f 108/133/172 104/115/173 107/131/174 109/132/175
s 19
f 49/66/176 9/10/177 88/110/161 87/109/160
s 18
f 9/10/178 10/9/179 89/111/157 88/110/156
s 20
f 10/25/180 1/18/181 90/113/165 89/112/164
s 21
f 1/18/182 8/8/183 91/114/169 90/113/168
s 22
f 110/134/184 111/135/185 104/115/173 108/133/172
s 17
f 111/135/186 112/136/187 105/129/153 104/115/152
s 16
f 42/58/188 41/57/189 93/117/149 92/116/148
s 15
f 41/57/190 40/56/191 94/118/145 93/117/144
s 13
f 40/55/192 39/54/193 95/120/137 94/119/136
s 14
f 39/54/194 49/66/195 87/109/141 95/120/140
s off
f 53/73/196 52/72/197 59/79/198 58/78/199
f 52/72/200 51/71/201 60/80/202 59/79/203
f 120/143/204 119/144/205 121/145/206 122/146/207
f 123/147/208 120/143/209 122/146/210 124/148/211
f 61/81/212 60/80/213 51/71/214 62/82/215
s 5
f 31/45/86 74/96/24 73/95/216 17/27/217
s off
f 17/27/218 18/28/219 30/44/220 31/45/221
f 92/116/222 81/102/223 97/122/224 96/121/225
f 81/102/226 82/103/227 98/123/228 97/122/229
f 82/103/230 86/108/231 100/124/232 98/123/233
f 86/108/234 91/114/235 99/125/236 100/124/237
f 8/8/238 50/70/239 102/127/240 101/126/241
f 91/114/242 8/8/243 101/126/244 99/125/245
f 50/70/246 42/58/247 103/128/248 102/127/249
f 42/58/250 92/116/251 96/121/252 103/128/253
f 96/121/254 97/122/255 106/130/256 105/129/257
f 97/122/258 98/123/259 107/131/260 106/130/261
f 98/123/262 100/124/263 109/132/264 107/131/265
f 100/124/266 99/125/267 108/133/268 109/132/269
f 101/126/270 102/127/271 111/135/272 110/134/273
f 99/125/274 101/126/275 110/134/276 108/133/277
f 102/127/278 103/128/279 112/136/280 111/135/281
f 103/128/282 96/121/283 105/129/284 112/136/285
f 54/74/286 53/73/287 113/138/288 114/137/289
f 53/73/290 58/78/291 115/139/292 113/138/293
f 58/78/294 57/77/295 116/140/296 115/139/297
f 55/75/298 54/74/299 114/137/300 117/141/301
f 57/77/302 56/76/303 118/142/304 116/140/305
f 56/76/306 55/75/307 117/141/308 118/142/309
f 114/137/310 113/138/311 119/144/312 120/143/313
f 113/138/314 115/139/315 121/145/316 119/144/317
f 115/139/318 116/140/319 122/146/320 121/145/321
f 117/141/322 114/137/323 120/143/324 123/147/325
f 116/140/326 118/142/327 124/148/328 122/146/329
f 118/142/330 117/141/331 123/147/332 124/148/333
