# This file uses meters as units for non-parametric coordinates.

mtllib Rocks2.mtl
g default
v -16.003579 0.746302 -1.308059
v -15.196026 0.640809 -1.202602
v -16.040478 0.727198 -2.047779
v -15.274321 0.727198 -2.099892
v -16.147575 -0.919469 -0.914412
v -14.757734 -0.877097 -0.924771
v -14.961463 -0.853597 -2.409483
v -16.200455 -0.919469 -2.213025
v -15.996397 -0.232287 -2.413348
v -15.050087 -0.298158 -2.266865
v -14.750010 -0.453085 -0.943081
v -16.136828 -0.232287 -0.935298
v -16.003579 1.153535 -1.347128
v -15.312643 1.172639 -1.255458
v -15.421084 1.172639 -1.874852
v -16.040478 1.172639 -1.874852
v -16.258179 -1.394867 -1.094601
v -16.157701 -1.138542 -0.817079
v -14.689255 -1.138542 -0.817079
v -14.811305 -1.406409 -1.000821
v -16.290563 -1.374141 -2.376222
v -16.370170 -1.146828 -2.478832
v -14.870491 -1.374141 -2.302550
v -14.757238 -1.146828 -2.446640
v -15.957431 1.568392 -1.204825
v -15.508206 1.568392 -1.204825
v -15.508206 1.568392 -1.654050
v -15.957431 1.568392 -1.654050
v -15.854660 0.762324 -1.203479
v -16.051110 -0.232287 -0.787027
v -15.854609 -1.055590 -0.556759
v -15.861800 -1.274663 -0.710564
v -16.019011 -1.485425 -1.000821
v -15.822007 -1.374141 -2.441927
v -15.611234 -1.146828 -2.636507
v -15.632041 -0.919469 -2.729192
v -15.666199 -0.232287 -2.436547
v -15.854660 0.727198 -2.178623
v -15.854660 1.172639 -2.005696
v -15.803958 1.568392 -1.746683
v -15.803958 1.568392 -1.145074
v -15.854660 1.172639 -1.155479
v -15.199064 -0.919469 -2.729192
v -15.172457 -1.146828 -2.636507
v -15.205399 -1.374141 -2.441927
v -15.035610 -1.488720 -1.000821
v -14.978483 -1.274663 -0.710564
v -14.980458 -1.055590 -0.556759
v -14.998367 -0.232287 -0.787027
v -15.507799 0.762324 -1.203479
v -15.507799 1.172639 -1.155479
v -15.604768 1.568392 -1.145074
v -15.604768 1.568392 -1.746683
v -15.507799 1.172639 -2.005696
v -15.460863 0.727198 -2.230736
v -15.330966 -0.232287 -2.436547
v -16.179725 0.727198 -1.794273
v -16.179725 1.172639 -1.689034
v -16.059017 1.568392 -1.500576
v -15.803958 1.720328 -1.566201
v -15.604768 1.720328 -1.566201
v -15.340206 1.568392 -1.500576
v -15.219498 1.172639 -1.689034
v -15.079500 0.727198 -1.879702
v -14.689947 -0.476584 -2.034143
v -14.705169 -0.853597 -2.003228
v -14.601910 -1.144342 -2.103627
v -14.804205 -1.406409 -2.009595
v -15.212560 -1.576554 -2.009595
v -16.021851 -1.576554 -2.009595
v -16.265280 -1.485996 -2.009595
v -16.575417 -1.144342 -2.168707
v -16.418043 -0.919469 -2.087179
v -16.315850 -0.232287 -1.969933
v -16.106811 0.746302 -1.527321
v -16.106811 1.153535 -1.507846
v -16.059017 1.568392 -1.376083
v -15.803958 1.720328 -1.355638
v -15.604768 1.720328 -1.355638
v -15.340206 1.568392 -1.376083
v -15.219498 1.172639 -1.472246
v -15.003945 0.700447 -1.498672
v -14.484163 -0.410713 -1.452615
v -14.529084 -0.919469 -1.500796
v -14.473175 -1.141442 -1.460353
v -14.807755 -1.406409 -1.505208
v -15.215116 -1.576554 -1.505208
v -16.020431 -1.576554 -1.505208
v -16.261730 -1.485996 -1.505208
v -16.461810 -0.110992 -1.452615
v -16.019811 0.535301 -2.063924
v -15.894579 0.535301 -2.253448
v -15.464786 0.535301 -2.253448
v -15.357338 0.535301 -2.120893
v -15.013540 0.568363 -1.911149
v -14.947722 0.568363 -1.489335
v -15.092173 0.394129 -1.212750
v -15.472190 0.486046 -1.142083
v -15.839612 0.486046 -1.142083
v -15.925186 0.390424 -1.233507
v -16.037442 0.390424 -1.512380
v -16.095773 0.375141 -1.829405
v -14.844027 0.208430 -0.996379
v -14.613088 0.208430 -1.456287
v -14.753448 0.208430 -1.955880
v -15.066985 0.175368 -2.273441
v -15.304900 0.175368 -2.522817
v -15.781114 0.175368 -2.522817
v -15.951555 0.175368 -2.384103
v -16.415007 0.175368 -1.955880
v -16.409174 0.176896 -1.458592
v -16.106648 0.176896 -0.965118
v -15.889532 0.175368 -0.808947
v -15.127259 0.175368 -0.831399
v -16.735153 -1.374141 -1.505208
v -16.993496 -1.141442 -1.460353
v -16.925942 -1.144342 -1.908300
v -16.738703 -1.374141 -1.831939
v -16.931925 -0.829380 -1.786942
v -16.978526 -0.779062 -1.500796
v -16.837510 -0.470099 -1.788957
v -16.863459 -0.470099 -1.452615
v -16.731602 -1.374141 -1.215489
v -16.919024 -1.138542 -1.089051
v -16.842450 -0.919469 -1.063230
v -16.741058 -0.470099 -1.116274
v -16.621832 -1.406409 -1.505208
v -16.618282 -1.406409 -1.167919
v -16.553505 -1.138542 -0.857879
v -16.503222 -0.919469 -0.780042
v -16.508252 -0.374974 -0.800928
v -16.656602 -0.194399 -1.452615
v -16.656602 -0.374974 -1.984455
v -16.733985 -0.850913 -2.001840
v -16.778846 -1.144342 -2.109565
v -16.625382 -1.406409 -1.952586
v -15.865830 -0.245027 -0.493525
v -15.646455 -0.873969 -0.460472
v -15.198236 -0.873969 -0.460472
v -15.173726 -0.245027 -0.493525
v -15.804585 0.053612 -0.708758
v -15.236096 0.053612 -0.708758
vt 0.375000 0.250000
vt 0.625000 0.250000
vt 0.375000 0.500000
vt 0.625000 0.500000
vt 0.875000 0.250000
vt 0.125000 0.250000
vt 0.875000 0.119097
vt 0.375000 0.630903
vt 0.125000 0.184548
vt 0.375000 0.565452
vt 0.625000 0.565452
vt 0.875000 0.184548
vt 0.625000 0.184548
vt 0.375000 0.184548
vt 0.375000 0.250000
vt 0.625000 0.250000
vt 0.625000 0.500000
vt 0.375000 0.500000
vt 0.395715 0.986966
vt 0.410912 0.964088
vt 0.604285 0.986966
vt 0.589088 0.964088
vt 0.605013 0.758118
vt 0.394987 0.758118
vt 0.590351 0.784649
vt 0.409649 0.784649
vt 0.625000 0.061713
vt 0.375000 0.119097
vt 0.875000 0.059543
vt 0.625000 0.119097
vt 0.625000 0.630903
vt 0.625000 0.690458
vt 0.375000 0.690457
vt 0.125000 0.059543
vt 0.375000 0.061713
vt 0.125000 0.119097
vt 0.375000 0.250000
vt 0.625000 0.250000
vt 0.625000 0.500000
vt 0.375000 0.500000
vt 0.450000 0.250000
vt 0.450000 0.184548
vt 0.450000 0.119097
vt 0.458286 0.986966
vt 0.450000 0.061713
vt 0.464365 0.964088
vt 0.463860 0.784649
vt 0.457995 0.758118
vt 0.450000 0.690457
vt 0.450000 0.630903
vt 0.450000 0.565452
vt 0.450000 0.500000
vt 0.450000 0.500000
vt 0.450000 0.500000
vt 0.450000 0.250000
vt 0.450000 0.250000
vt 0.590000 0.630903
vt 0.575610 0.758118
vt 0.590000 0.690458
vt 0.565053 0.784649
vt 0.564143 0.964088
vt 0.575085 0.986966
vt 0.590000 0.061713
vt 0.590000 0.119097
vt 0.590000 0.184548
vt 0.590000 0.250000
vt 0.590000 0.250000
vt 0.590000 0.250000
vt 0.590000 0.500000
vt 0.590000 0.500000
vt 0.590000 0.500000
vt 0.590000 0.565452
vt 0.200000 0.250000
vt 0.375000 0.425000
vt 0.375000 0.425000
vt 0.375000 0.425000
vt 0.450000 0.425000
vt 0.590000 0.425000
vt 0.625000 0.425000
vt 0.625000 0.425000
vt 0.625000 0.425000
vt 0.800000 0.250000
vt 0.800000 0.184548
vt 0.800000 0.119097
vt 0.604795 0.826772
vt 0.800000 0.060194
vt 0.589972 0.838481
vt 0.564780 0.838481
vt 0.464011 0.838481
vt 0.410028 0.838481
vt 0.395205 0.826772
vt 0.200000 0.060194
vt 0.200000 0.119097
vt 0.200000 0.184548
vt 0.287500 0.250000
vt 0.375000 0.337500
vt 0.375000 0.337500
vt 0.375000 0.337500
vt 0.450000 0.337500
vt 0.590000 0.337500
vt 0.625000 0.337500
vt 0.625000 0.337500
vt 0.625000 0.337500
vt 0.712500 0.250000
vt 0.712500 0.184548
vt 0.712500 0.119097
vt 0.604540 0.906869
vt 0.712500 0.060953
vt 0.589530 0.901284
vt 0.564462 0.901284
vt 0.464188 0.901284
vt 0.410470 0.901284
vt 0.395460 0.906869
vt 0.287500 0.060953
vt 0.287500 0.119097
vt 0.287500 0.184548
vt 0.125000 0.236910
vt 0.375000 0.513090
vt 0.450000 0.513090
vt 0.590000 0.513090
vt 0.625000 0.513090
vt 0.875000 0.236910
vt 0.800000 0.236910
vt 0.712500 0.236910
vt 0.625000 0.236910
vt 0.590000 0.236910
vt 0.450000 0.236910
vt 0.375000 0.236910
vt 0.287500 0.236910
vt 0.200000 0.236910
vt 0.625000 0.189785
vt 0.712500 0.189785
vt 0.800000 0.189785
vt 0.625000 0.560215
vt 0.875000 0.189785
vt 0.590000 0.560215
vt 0.450000 0.560215
vt 0.125000 0.189785
vt 0.375000 0.560215
vt 0.200000 0.189785
vt 0.287500 0.189785
vt 0.375000 0.189785
vt 0.450000 0.189785
vt 0.590000 0.189785
vt 0.395205 0.826772
vt 0.410028 0.838481
vt 0.410470 0.901284
vt 0.200000 0.119097
vt 0.200000 0.060194
vt 0.200000 0.184548
vt 0.287500 0.184548
vt 0.410912 0.964088
vt 0.395715 0.986966
vt 0.375000 0.061713
vt 0.375000 0.119097
vt 0.375000 0.184548
vt 0.410470 0.901284
vt 0.410912 0.964088
vt 0.395715 0.986966
vt 0.375000 0.061713
vt 0.375000 0.119097
vt 0.375000 0.184548
vt 0.287500 0.184548
vt 0.200000 0.184548
vt 0.200000 0.119097
vt 0.200000 0.060194
vt 0.395205 0.826772
vt 0.410028 0.838481
vt 0.450000 0.184548
vt 0.450000 0.119097
vt 0.590000 0.119097
vt 0.590000 0.184548
vt 0.590000 0.189785
vt 0.450000 0.189785
vn 0.000000 0.289452 0.957192
vn 0.000000 0.052481 0.998622
vn 0.000000 0.052481 0.998622
vn 0.000000 0.260194 0.965556
vn -0.185576 0.780044 -0.597573
vn -0.250779 0.917510 -0.308683
vn 0.257873 0.911324 -0.320921
vn 0.177238 0.751441 -0.635549
vn -0.271272 0.231498 -0.934249
vn -0.248149 0.118087 -0.961498
vn 0.306190 0.187791 -0.933264
vn 0.299488 0.236680 -0.924278
vn 0.860114 0.089080 -0.502264
vn 0.887125 0.173044 -0.427861
vn 0.760121 0.285172 -0.583861
vn 0.673134 0.107164 -0.731715
vn -0.699039 0.266687 -0.663492
vn -0.684462 0.327356 -0.651421
vn -0.815520 0.028563 -0.578023
vn -0.735597 0.047534 -0.675750
vn 0.299332 0.247099 -0.921598
vn -0.147060 0.245839 -0.958090
vn -0.311711 0.456947 -0.833088
vn 0.208608 0.553448 -0.806336
vn 0.524786 0.465745 -0.712518
vn 0.689982 0.556473 -0.462885
vn 0.816284 0.331184 -0.473284
vn 0.590776 0.306923 -0.746178
vn 0.066639 0.602300 0.795483
vn -0.181183 0.591145 0.785951
vn -0.247291 0.672297 0.697757
vn 0.295346 0.635082 0.713752
vn -0.762659 0.190286 -0.618176
vn -0.872882 0.309591 -0.377134
vn -0.807597 0.570081 -0.150979
vn -0.810330 0.382017 -0.444329
vn -0.263528 -0.084279 0.960963
vn -0.301634 -0.078945 0.950150
vn 0.101017 -0.042919 0.993959
vn 0.088790 -0.051884 0.994698
vn 0.831479 0.445210 -0.332311
vn 0.793972 0.459178 -0.398452
vn 0.625277 0.486138 -0.610490
vn 0.625277 0.486138 -0.610490
vn 0.203174 0.453855 -0.867604
vn 0.177126 0.450444 -0.875058
vn -0.231253 0.381861 -0.894821
vn -0.266437 0.375602 -0.887657
vn -0.833037 0.164884 -0.528075
vn -0.968633 0.093496 -0.230236
vn -0.991672 0.063995 -0.111760
vn -0.833037 0.164884 -0.528075
vn -0.720522 -0.628414 -0.293162
vn -0.720522 -0.628414 -0.293162
vn -0.720522 -0.628414 -0.293162
vn -0.720522 -0.628414 -0.293162
vn -0.086052 -0.780668 0.618993
vn -0.188537 -0.739616 0.646082
vn 0.067654 -0.801474 0.594190
vn 0.104550 -0.797063 0.594777
vn 0.713894 -0.684496 -0.147714
vn 0.709587 -0.692693 -0.129085
vn 0.736289 -0.613578 -0.285308
vn 0.736289 -0.613578 -0.285308
vn -0.110343 -0.552635 -0.826087
vn -0.044128 -0.613283 -0.788630
vn 0.133116 -0.649754 -0.748398
vn 0.138143 -0.649505 -0.747703
vn 0.113379 -0.978053 -0.174805
vn -0.077120 -0.979177 -0.187792
vn -0.029423 -0.907844 -0.418275
vn 0.068268 -0.914003 -0.399922
vn -0.393988 -0.361499 0.845040
vn -0.173712 -0.478028 0.860995
vn 0.189784 -0.455591 0.869723
vn 0.396608 -0.290468 0.870822
vn 0.844362 0.418080 -0.335055
vn 0.759160 0.498355 -0.418710
vn -0.283803 0.147428 -0.947481
vn 0.370584 -0.066092 -0.926445
vn -0.491972 0.725484 -0.481286
vn -0.491972 0.725484 -0.481286
vn -0.257789 -0.045183 0.965144
vn -0.316976 -0.049257 0.947153
vn 0.223458 0.036237 0.974040
vn 0.154332 0.016741 0.987877
vn 0.818749 0.431055 -0.379264
vn 0.747769 0.457935 -0.480767
vn 0.590436 0.487585 -0.643153
vn 0.590436 0.487585 -0.643153
vn 0.244444 0.563597 -0.789054
vn 0.224353 0.563606 -0.794993
vn -0.194170 0.550139 -0.812185
vn -0.210343 0.549381 -0.808663
vn -0.726671 0.453765 -0.515798
vn -0.877978 0.373913 -0.298905
vn -0.940231 0.307267 -0.146809
vn -0.726670 0.453765 -0.515798
vn -0.658945 0.476360 0.582128
vn -0.627781 0.553006 0.547791
vn -0.776332 -0.011410 0.630221
vn -0.777184 0.054913 0.626872
vn -0.774463 0.060734 0.629697
vn -0.638124 -0.073560 0.766412
vn -0.487254 -0.552865 0.675961
vn -0.487254 -0.552865 0.675961
vn -0.151526 -0.908126 -0.390316
vn -0.243546 -0.943287 -0.225597
vn -0.154102 -0.509097 -0.846801
vn -0.154102 -0.509097 -0.846802
vn -0.477113 0.246924 -0.843441
vn -0.406858 0.438364 -0.801438
vn -0.475751 0.080664 -0.875873
vn -0.703177 0.269556 -0.657938
vn -0.536432 0.134559 -0.833147
vn -0.548757 0.302542 -0.779317
vn -0.548757 0.302542 -0.779317
vn -0.471839 0.513994 -0.716364
vn -0.471839 0.513994 -0.716364
vn -0.510858 0.848244 -0.139664
vn -0.463038 0.745192 -0.479881
vn -0.635184 -0.069030 0.769270
vn -0.635184 -0.069030 0.769270
vn -0.704707 -0.007750 0.709456
vn -0.704707 -0.007750 0.709456
vn 0.630448 0.300946 -0.715518
vn 0.593962 0.179726 -0.784160
vn 0.312099 -0.630065 -0.711064
vn 0.312099 -0.630065 -0.711064
vn 0.346201 -0.930788 -0.117380
vn 0.267655 -0.910116 -0.316306
vn 0.419488 -0.711022 0.564339
vn 0.419488 -0.711022 0.564339
vn 0.670511 0.027162 0.741402
vn 0.731253 0.118377 0.671756
vn 0.631504 0.170820 0.756322
vn 0.704441 0.149396 0.693862
vn 0.243821 0.738874 0.628185
vn 0.456941 0.509784 0.728920
vn 0.198615 0.029633 0.979630
vn 0.198615 0.029633 0.979630
vn 0.477392 0.109203 0.871878
vn 0.477392 0.109203 0.871878
vn 0.518097 0.846278 -0.124050
vn 0.517371 0.650390 -0.556166
vn 0.673417 0.491421 -0.552281
vn 0.673417 0.491421 -0.552281
vn 0.614834 0.458032 -0.642017
vn 0.614834 0.458032 -0.642017
vn 0.646756 0.239183 -0.724222
vn 0.625342 0.494028 -0.604056
vn 0.649571 0.216460 -0.728836
vn -0.922564 -0.020220 0.385315
vn -0.920991 -0.018942 0.389123
vn -0.926515 0.022400 0.375591
vn -0.903126 -0.012380 0.429198
vn -0.477287 0.863768 0.161562
vn -0.233865 0.931537 0.278470
vn 0.238459 0.927651 0.287403
vn 0.490689 0.858470 0.149174
vn 0.891960 0.255289 0.373142
vn 0.923360 0.269338 0.273613
vn 0.909028 0.343972 0.235267
vn 0.913825 0.348417 0.208639
vn 0.759174 0.635950 0.138647
vn 0.929164 0.359712 0.085210
vn 0.994140 0.079869 0.072846
vn 0.993830 0.104958 0.035848
vn 0.939965 0.332253 0.077933
vn 0.712928 -0.700308 0.036090
vn 0.711519 -0.702228 0.024814
vn 0.378998 -0.925360 0.008299
vn 0.102798 -0.991692 0.077322
vn -0.082596 -0.992255 0.092781
vn -0.365235 -0.926459 0.090978
vn -0.713971 -0.700159 0.004768
vn -0.713121 -0.700861 0.015868
vn -0.717066 -0.694700 -0.056643
vn -0.717066 -0.694700 -0.056643
vn -0.979434 0.135871 -0.149156
vn -0.987275 0.031714 -0.155825
vn -0.992251 0.100230 0.073427
vn -0.973951 0.204843 0.097258
vn -0.942848 0.304859 -0.134530
vn -0.941195 0.282967 0.184612
vn -0.795277 0.549897 0.255241
vn -0.868874 0.439459 0.227891
vn -0.878611 0.011485 0.477399
vn -0.878611 0.011485 0.477399
vn -0.848540 -0.076853 0.523520
vn -0.848540 -0.076853 0.523520
vn -0.387649 0.816418 0.428007
vn -0.164335 0.831049 0.531367
vn 0.159100 0.810566 0.563621
vn 0.428245 0.758992 0.490446
vn 0.808878 0.222255 0.544352
vn 0.808878 0.222255 0.544352
vn 0.823153 0.285256 0.490967
vn 0.823153 0.285256 0.490967
vn 0.804416 0.360143 0.472452
vn 0.573293 0.667893 0.474609
vn 0.919838 0.093152 0.381079
vn 0.896463 0.061212 0.438869
vn 0.892108 0.325554 0.313302
vn 0.721436 -0.678227 0.139777
vn 0.721436 -0.678227 0.139777
vn 0.139372 -0.983143 0.118347
vn 0.371078 -0.928462 0.016116
vn -0.069264 -0.981533 0.178314
vn -0.377832 -0.907640 0.182846
vn -0.705642 -0.703284 0.086375
vn -0.705642 -0.703284 0.086375
vn -0.949056 0.156301 0.273610
vn -0.927264 0.208034 0.311292
vn -0.900913 0.259388 0.347956
vn -0.682566 0.648130 0.337683
vn -0.769247 0.431988 0.470792
vn -0.703380 0.197159 -0.682924
vn -0.293359 0.247958 -0.923286
vn 0.193081 0.160096 -0.968034
vn 0.665830 -0.066187 -0.743162
vn 0.826951 0.260932 -0.498063
vn 0.618234 0.086749 -0.781192
vn 0.895496 0.382545 0.227476
vn 0.755015 0.317861 0.573513
vn 0.048975 0.188451 0.980861
vn 0.140171 0.133525 0.981083
vn -0.254034 0.171889 0.951799
vn -0.657812 0.064155 0.750445
vn -0.935906 -0.180215 0.302660
vn -0.908863 -0.139247 0.393164
vn -0.981138 -0.192439 -0.018297
vn -0.890703 -0.130252 -0.435526
vn -0.969535 0.040386 0.241601
vn -0.835858 0.126735 0.534116
vn 0.000000 0.584686 0.811259
vn 0.000000 0.584686 0.811259
vn -0.424024 -0.633364 -0.647343
vn -0.373466 -0.623912 -0.686482
vn -0.625694 -0.642954 -0.441720
vn -0.625694 -0.642954 -0.441720
vn -0.221764 -0.975099 0.001704
vn -0.227439 -0.973791 0.001793
vn -0.272630 -0.962116 0.002501
vn -0.272630 -0.962116 0.002501
vn -0.528335 0.349139 -0.773928
vn -0.482210 0.360177 -0.798590
vn -0.731701 0.280651 -0.621167
vn -0.731701 0.280651 -0.621167
vn -0.287623 0.147285 -0.946351
vn -0.372768 0.153358 -0.915164
vn -0.739317 0.164090 -0.653058
vn -0.739317 0.164090 -0.653058
vn -0.509479 0.821340 -0.256578
vn -0.501413 0.825373 -0.259507
vn -0.723355 0.671381 -0.161263
vn -0.723355 0.671381 -0.161263
vn -0.251261 -0.702063 0.666314
vn -0.178236 -0.717382 0.673495
vn -0.413871 -0.651783 0.635522
vn -0.413871 -0.651783 0.635522
vn -0.142429 -0.985118 0.096207
vn -0.131550 -0.985876 0.103648
vn -0.274465 -0.961592 0.003109
vn -0.274465 -0.961592 0.003109
vn -0.346244 -0.002869 0.938140
vn -0.214643 0.005990 0.976674
vn -0.589409 -0.020407 0.807577
vn -0.589409 -0.020407 0.807577
vn -0.180804 0.086201 0.979734
vn -0.079770 0.076894 0.993843
vn -0.727155 0.120770 0.675766
vn -0.727155 0.120770 0.675766
vn -0.403254 0.847415 0.345360
vn -0.485760 0.804087 0.342756
vn -0.733212 0.604505 0.311405
vn -0.733212 0.604505 0.311405
vn -0.105597 -0.986987 0.121264
vn -0.105597 -0.986987 0.121264
vn -0.091071 -0.730238 0.677095
vn -0.091071 -0.730238 0.677095
vn 0.123519 0.027110 0.991972
vn 0.123519 0.027110 0.991972
vn 0.341304 0.030276 0.939465
vn 0.341304 0.030276 0.939465
vn -0.276738 0.897350 0.343773
vn -0.276738 0.897350 0.343773
vn -0.363529 0.880603 -0.303947
vn -0.363529 0.880603 -0.303947
vn -0.121052 0.132559 -0.983755
vn -0.121052 0.132559 -0.983755
vn -0.195570 0.402799 -0.894151
vn -0.195570 0.402799 -0.894151
vn -0.242094 -0.589420 -0.770697
vn -0.242094 -0.589420 -0.770697
vn -0.215684 -0.976462 0.001609
vn -0.215684 -0.976462 0.001609
vn -0.687857 -0.065913 0.722847
vn -0.687857 -0.065913 0.722847
vn -0.687857 -0.065913 0.722847
vn -0.687857 -0.065913 0.722847
vn 0.000000 -0.468400 0.883517
vn 0.000000 -0.468399 0.883517
vn 0.000000 -0.468400 0.883517
vn 0.000000 -0.468400 0.883517
vn 0.724481 0.119788 0.678806
vn 0.724481 0.119788 0.678806
vn 0.724481 0.119788 0.678806
vn 0.724481 0.119788 0.678806
vn 0.012456 0.674363 0.738295
vn 0.012456 0.674363 0.738295
vn 0.012456 0.674363 0.738295
vn 0.012456 0.674363 0.738295
vn -0.676500 0.417195 0.606874
vn -0.676500 0.417195 0.606874
vn -0.676500 0.417195 0.606874
vn -0.676500 0.417195 0.606874
vn 0.687601 0.407169 0.601180
vn 0.687601 0.407169 0.601180
vn 0.687601 0.407169 0.601180
vn 0.687601 0.407169 0.601180
s 1
g pCube2
usemtl lambert2SG
f 137/169/1 138/170/2 139/171/3 140/172/4
s 2
f 40/54/5 60/77/6 61/78/7 53/69/8
s 3
f 36/50/9 37/51/10 56/72/11 43/57/12
s 4
f 65/83/13 66/84/14 7/7/15 10/12/16
s 5
f 8/36/17 73/93/18 74/94/19 9/9/20
s 3
f 107/136/21 108/137/22 92/119/23 93/120/24
s 4
f 94/122/25 95/123/26 105/133/27 106/135/28
s 7
f 98/126/29 99/127/30 113/143/31 114/144/32
s 5
f 109/138/33 110/140/34 102/130/35 91/117/36
s 8
f 42/56/37 29/41/38 50/66/39 51/67/40
s 9
f 63/80/41 64/81/42 4/4/43 15/17/44
s 10
f 54/70/45 55/71/46 38/52/47 39/53/48
s 11
f 3/3/49 57/74/50 58/75/51 16/18/52
s off
f 71/90/53 72/91/54 22/24/55 21/26/56
s 12
f 32/44/57 33/46/58 46/61/59 47/62/60
s 13
f 67/85/61 68/87/62 23/25/63 24/23/64
s 14
f 34/47/65 35/48/66 44/58/67 45/60/68
s 15
f 69/88/69 70/89/70 34/47/71 45/60/72
s 7
f 31/43/73 32/45/74 47/63/75 48/64/76
s 4
f 66/84/14 67/86/77 24/29/78 7/7/15
s 3
f 35/49/79 36/50/9 43/57/12 44/59/80
s 5
f 22/34/81 72/92/82 73/93/18 8/36/17
s 17
f 41/55/83 42/56/84 51/67/85 52/68/86
s 18
f 62/79/87 63/80/88 15/17/89 27/39/90
s 19
f 53/69/91 54/70/92 39/53/93 40/54/94
s 20
f 16/18/95 58/75/96 59/76/97 28/40/98
s 7
f 112/142/99 113/143/31 99/127/30 100/128/100
f 5/28/101 31/43/73 30/42/102 12/14/103
f 18/35/104 32/45/74 31/43/73 5/28/101
s 12
f 18/19/105 17/20/106 33/46/58 32/44/57
s 15
f 21/26/107 34/47/71 70/89/70 71/90/108
s 14
f 21/26/109 22/24/110 35/48/66 34/47/65
s 3
f 8/8/111 36/50/9 35/49/79 22/33/112
f 9/10/113 37/51/10 36/50/9 8/8/111
f 91/118/114 92/119/23 108/137/22 109/139/115
s 10
f 39/53/48 38/52/47 3/3/116 16/18/117
s 19
f 40/54/94 39/53/93 16/18/118 28/40/119
s 2
f 59/76/120 60/77/6 40/54/5 28/40/121
s 17
f 13/15/122 42/56/84 41/55/83 25/37/123
s 8
f 1/1/124 29/41/38 42/56/37 13/15/125
s 3
f 44/59/80 43/57/12 7/31/126 24/32/127
s 14
f 45/60/68 44/58/67 24/23/128 23/25/129
s 15
f 68/87/130 69/88/69 45/60/72 23/25/131
s 12
f 47/62/60 46/61/59 20/22/132 19/21/133
s 7
f 48/64/76 47/63/75 19/27/134 6/30/135
f 49/65/136 48/64/76 6/30/135 11/13/137
f 97/125/138 98/126/29 114/144/32 103/131/139
s 8
f 51/67/40 50/66/39 2/2/140 14/16/141
s 17
f 52/68/86 51/67/85 14/16/142 26/38/143
s 2
f 53/69/8 61/78/7 62/79/144 27/39/145
s 19
f 15/17/146 54/70/92 53/69/91 27/39/147
s 10
f 4/4/148 55/71/46 54/70/45 15/17/149
s 3
f 106/134/150 107/136/21 93/120/24 94/121/151
f 43/57/12 56/72/11 10/11/152 7/31/126
s 11
f 58/75/51 57/74/50 75/96/153 76/97/154
s 20
f 59/76/97 58/75/96 76/97/155 77/98/156
s 2
f 77/98/157 78/99/158 60/77/6 59/76/120
f 61/78/7 60/77/6 78/99/158 79/100/159
f 62/79/144 61/78/7 79/100/159 80/101/160
s 18
f 80/101/161 81/102/162 63/80/88 62/79/87
s 9
f 81/102/163 82/103/164 64/81/42 63/80/41
s 4
f 95/123/26 96/124/165 104/132/166 105/133/27
f 83/105/167 84/106/168 66/84/14 65/83/13
f 84/106/168 85/108/169 67/86/77 66/84/14
s 13
f 85/107/170 86/109/171 68/87/62 67/85/61
s 15
f 86/109/172 87/110/173 69/88/69 68/87/130
f 87/110/173 88/111/174 70/89/70 69/88/69
f 71/90/108 70/89/70 88/111/174 89/112/175
s 21
f 115/147/176 116/113/177 117/145/178 118/146/179
s 22
f 119/148/180 117/149/181 116/114/182 120/115/183
f 121/150/184 119/148/180 120/115/183 122/151/185
s 5
f 101/129/186 102/130/35 110/140/34 111/141/187
s 11
f 76/97/154 75/96/153 1/1/188 13/15/189
s 20
f 77/98/156 76/97/155 13/15/190 25/37/191
s 2
f 25/37/192 41/55/193 78/99/158 77/98/157
f 79/100/159 78/99/158 41/55/193 52/68/194
f 80/101/160 79/100/159 52/68/194 26/38/195
s 18
f 14/16/196 81/102/162 80/101/161 26/38/197
s 9
f 2/2/198 82/103/164 81/102/163 14/16/199
s 4
f 103/131/200 104/132/166 96/124/165 97/125/201
f 6/30/202 84/106/168 83/105/167 11/13/203
f 19/27/204 85/108/169 84/106/168 6/30/202
s 13
f 19/21/205 20/22/206 86/109/171 85/107/170
s 15
f 46/61/207 87/110/173 86/109/172 20/22/208
f 33/46/209 88/111/174 87/110/173 46/61/207
f 89/112/175 88/111/174 33/46/209 17/20/210
s 21
f 123/152/211 124/153/212 116/113/177 115/147/176
s 22
f 120/115/183 116/114/182 124/154/213 125/155/214
f 122/151/185 120/115/183 125/155/214 126/156/215
s 5
f 100/128/216 101/129/186 111/141/187 112/142/217
s 3
f 3/3/218 38/52/219 92/119/23 91/118/114
f 93/120/24 92/119/23 38/52/219 55/71/220
f 94/121/151 93/120/24 55/71/220 4/4/221
s 4
f 64/82/222 95/123/26 94/122/25 4/5/223
f 82/104/224 96/124/165 95/123/26 64/82/222
f 97/125/201 96/124/165 82/104/224 2/2/225
s 7
f 50/66/226 98/126/29 97/125/138 2/2/227
f 29/41/228 99/127/30 98/126/29 50/66/226
f 100/128/100 99/127/30 29/41/228 1/1/229
s 5
f 75/95/230 101/129/186 100/128/216 1/1/231
f 57/73/232 102/130/35 101/129/186 75/95/230
f 91/117/36 102/130/35 57/73/232 3/6/233
s 4
f 11/13/203 83/105/167 104/132/166 103/131/200
f 105/133/27 104/132/166 83/105/167 65/83/13
f 106/135/28 105/133/27 65/83/13 10/12/16
s 3
f 56/72/11 107/136/21 106/134/150 10/11/152
f 37/51/10 108/137/22 107/136/21 56/72/11
f 109/139/115 108/137/22 37/51/10 9/10/113
s 5
f 9/9/20 74/94/19 110/140/34 109/138/33
f 111/141/187 110/140/34 74/94/19 90/116/234
f 112/142/217 111/141/187 90/116/234 12/14/235
s 7
f 12/14/103 30/42/102 113/143/31 112/142/99
s 1
f 142/173/236 141/174/237 137/169/1 140/172/4
s 7
f 103/131/139 114/144/32 49/65/136 11/13/137
s 23
f 135/167/238 136/168/239 118/146/240 117/145/241
s 24
f 136/168/242 127/157/243 115/147/244 118/146/245
s 25
f 134/165/246 135/166/247 117/149/248 119/148/249
s 26
f 133/164/250 134/165/251 119/148/252 121/150/253
s 27
f 132/163/254 133/164/255 121/150/256 122/151/257
s 28
f 128/158/258 129/159/259 124/153/260 123/152/261
s 29
f 127/157/262 128/158/263 123/152/264 115/147/265
s 30
f 129/160/266 130/161/267 125/155/268 124/154/269
s 31
f 130/161/270 131/162/271 126/156/272 125/155/273
s 32
f 131/162/274 132/163/275 122/151/276 126/156/277
s 29
f 89/112/278 17/20/279 128/158/263 127/157/262
s 28
f 17/20/280 18/19/281 129/159/259 128/158/258
s 30
f 18/35/282 5/28/283 130/161/267 129/160/266
s 31
f 5/28/284 12/14/285 131/162/271 130/161/270
s 32
f 12/14/286 90/116/287 132/163/275 131/162/274
s 27
f 90/116/288 74/94/289 133/164/255 132/163/254
s 26
f 74/94/290 73/93/291 134/165/251 133/164/250
s 25
f 73/93/292 72/92/293 135/166/247 134/165/246
s 23
f 72/91/294 71/90/295 136/168/239 135/167/238
s 24
f 71/90/296 89/112/297 127/157/243 136/168/242
s off
f 30/42/298 31/43/299 138/170/300 137/169/301
f 31/43/302 48/64/303 139/171/304 138/170/305
f 48/64/306 49/65/307 140/172/308 139/171/309
f 114/144/310 113/143/311 141/174/312 142/173/313
f 113/143/314 30/42/315 137/169/316 141/174/317
f 49/65/318 114/144/319 142/173/320 140/172/321
