# This file uses centimeters as units for non-parametric coordinates.

mtllib SubMarineGlass.mtl
g default
v -0.441315 1.313171 -1.510722
v 0.000000 1.320515 -1.542991
v -0.353858 1.225573 -1.687299
v 0.000000 1.238907 -1.702933
v 0.000000 -1.044136 -1.851001
v -0.272043 -1.044136 -1.835693
v -1.199987 0.921859 -1.199283
v -1.051761 0.853996 -1.467462
v -0.760406 1.101167 -1.611225
v -0.867831 1.187464 -1.391962
v -0.965293 -0.805385 -1.524314
v -1.063303 -0.912524 -1.188626
v -1.291375 -0.298939 -1.073422
v -1.392632 -0.299911 -0.844323
v -0.641174 -1.003685 -1.750217
v -0.743838 -1.166453 -1.395975
v -1.402078 0.328617 -0.876252
v -1.290864 0.309758 -1.154684
v 0.000000 -1.244620 -1.501068
v -0.327148 -1.246896 -1.487123
v 0.000000 1.037010 -1.790306
v -0.292097 1.024152 -1.767622
v -0.674061 0.889993 -1.717038
v 0.000000 -0.698395 -2.031100
v -0.268570 -0.691892 -2.009186
v -0.593533 -0.666272 -1.955342
v -0.928655 0.699338 -1.622618
v -0.895754 -0.612368 -1.655281
v -1.160484 0.292655 -1.393523
v -1.156772 -0.244164 -1.392447
v 0.292097 1.024152 -1.767622
v 0.353858 1.225573 -1.687299
v 0.441315 1.313171 -1.510722
v 0.760406 1.101167 -1.611225
v 0.867831 1.187464 -1.391962
v 1.051761 0.853996 -1.467462
v 1.199987 0.921859 -1.199283
v 0.641174 -1.003685 -1.750217
v 0.743838 -1.166453 -1.395975
v 1.063303 -0.912524 -1.188626
v 0.965293 -0.805385 -1.524314
v 1.392632 -0.299911 -0.844323
v 1.291375 -0.298939 -1.073422
v 1.290864 0.309758 -1.154684
v 1.402078 0.328617 -0.876252
v 0.272043 -1.044136 -1.835693
v 0.327148 -1.246896 -1.487123
v 0.674061 0.889993 -1.717038
v 0.268570 -0.691892 -2.009186
v 0.593533 -0.666272 -1.955342
v 0.928655 0.699338 -1.622618
v 1.160484 0.292655 -1.393523
v 0.895754 -0.612368 -1.655281
v 1.156772 -0.244164 -1.392447
vn -0.070019 0.373823 -0.924854
vn -0.070019 0.373822 -0.924854
vn -0.070019 0.373822 -0.924854
vn -0.070019 0.373822 -0.924854
vn -0.267823 0.820203 -0.505507
vn 0.000000 0.888059 -0.459729
vn 0.000000 0.679329 -0.733834
vn -0.194764 0.633283 -0.749013
vn -0.267823 0.820203 -0.505507
vn -0.194764 0.633283 -0.749013
vn -0.471893 0.518946 -0.712750
vn -0.602227 0.596474 -0.530604
vn -0.602227 0.596474 -0.530604
vn -0.471893 0.518946 -0.712750
vn -0.784317 0.242545 -0.570981
vn -0.863135 0.193730 -0.466334
vn -0.453516 -0.612246 -0.647671
vn -0.535827 -0.702860 -0.467843
vn -0.843490 -0.368062 -0.391222
vn -0.795056 -0.358607 -0.489169
vn -0.795056 -0.358607 -0.489169
vn -0.843490 -0.368062 -0.391222
vn -0.915327 -0.136824 -0.378756
vn -0.903059 -0.151422 -0.401941
vn -0.863135 0.193730 -0.466334
vn -0.784317 0.242545 -0.570981
vn -0.896190 0.029539 -0.442687
vn -0.912004 0.020060 -0.409691
vn -0.912004 0.020060 -0.409691
vn -0.896190 0.029539 -0.442687
vn -0.903059 -0.151422 -0.401941
vn -0.915327 -0.136824 -0.378756
vn -0.146292 -0.690597 -0.708290
vn 0.000000 -0.695717 -0.718316
vn 0.000000 -0.865320 -0.501220
vn -0.158228 -0.853304 -0.496826
vn -0.535827 -0.702860 -0.467843
vn -0.453516 -0.612246 -0.647671
vn -0.146292 -0.690597 -0.708290
vn -0.158228 -0.853304 -0.496826
vn -0.471893 0.518946 -0.712750
vn -0.194764 0.633283 -0.749013
vn -0.130130 0.171065 -0.976628
vn -0.326374 0.143127 -0.934342
vn -0.133613 0.026630 -0.990676
vn -0.130130 0.171065 -0.976628
vn 0.000000 0.169108 -0.985598
vn 0.000000 0.032785 -0.999462
vn -0.326374 0.143127 -0.934342
vn -0.130130 0.171065 -0.976628
vn -0.133613 0.026630 -0.990676
vn -0.360881 0.010743 -0.932550
vn -0.146292 -0.690597 -0.708290
vn -0.133613 0.026630 -0.990676
vn 0.000000 0.032785 -0.999462
vn 0.000000 -0.695717 -0.718316
vn -0.360881 0.010743 -0.932550
vn -0.133613 0.026630 -0.990676
vn -0.146292 -0.690597 -0.708290
vn -0.453516 -0.612246 -0.647671
vn -0.784317 0.242545 -0.570981
vn -0.635785 0.069708 -0.768712
vn -0.780351 0.010750 -0.625249
vn -0.896190 0.029539 -0.442687
vn -0.360881 0.010743 -0.932550
vn -0.453516 -0.612246 -0.647671
vn -0.795056 -0.358607 -0.489169
vn -0.679454 -0.050398 -0.731985
vn -0.360881 0.010743 -0.932550
vn -0.679454 -0.050398 -0.731985
vn -0.635785 0.069708 -0.768712
vn -0.326374 0.143127 -0.934342
vn -0.326374 0.143127 -0.934342
vn -0.635785 0.069708 -0.768712
vn -0.784317 0.242545 -0.570981
vn -0.471893 0.518946 -0.712750
vn -0.679454 -0.050398 -0.731985
vn -0.797181 -0.053593 -0.601358
vn -0.780351 0.010750 -0.625249
vn -0.635785 0.069708 -0.768712
vn -0.903059 -0.151422 -0.401941
vn -0.797181 -0.053593 -0.601358
vn -0.679454 -0.050398 -0.731985
vn -0.795056 -0.358607 -0.489169
vn -0.896190 0.029539 -0.442687
vn -0.780351 0.010750 -0.625249
vn -0.797181 -0.053593 -0.601358
vn -0.903059 -0.151422 -0.401941
vn 0.130130 0.171065 -0.976628
vn 0.000000 0.169108 -0.985598
vn 0.000000 0.679329 -0.733834
vn 0.194764 0.633283 -0.749013
vn 0.267824 0.820204 -0.505506
vn 0.194764 0.633283 -0.749013
vn 0.000000 0.679329 -0.733834
vn 0.000000 0.888059 -0.459729
vn 0.267824 0.820204 -0.505506
vn 0.602227 0.596474 -0.530604
vn 0.471893 0.518946 -0.712750
vn 0.194764 0.633283 -0.749013
vn 0.602227 0.596474 -0.530604
vn 0.863135 0.193730 -0.466334
vn 0.784317 0.242545 -0.570981
vn 0.471893 0.518946 -0.712750
vn 0.453516 -0.612246 -0.647671
vn 0.795056 -0.358607 -0.489169
vn 0.843490 -0.368062 -0.391222
vn 0.535827 -0.702860 -0.467843
vn 0.795056 -0.358607 -0.489169
vn 0.903059 -0.151422 -0.401941
vn 0.915327 -0.136824 -0.378756
vn 0.843490 -0.368062 -0.391222
vn 0.863135 0.193730 -0.466334
vn 0.912004 0.020060 -0.409691
vn 0.896190 0.029539 -0.442687
vn 0.784317 0.242545 -0.570981
vn 0.912004 0.020060 -0.409691
vn 0.915327 -0.136824 -0.378756
vn 0.903059 -0.151422 -0.401941
vn 0.896190 0.029539 -0.442687
vn 0.146292 -0.690597 -0.708290
vn 0.158228 -0.853304 -0.496826
vn 0.000000 -0.865320 -0.501220
vn 0.000000 -0.695717 -0.718316
vn 0.535827 -0.702860 -0.467843
vn 0.158228 -0.853304 -0.496826
vn 0.146292 -0.690597 -0.708290
vn 0.453516 -0.612246 -0.647671
vn 0.471893 0.518946 -0.712750
vn 0.326375 0.143127 -0.934342
vn 0.130130 0.171065 -0.976628
vn 0.194764 0.633283 -0.749013
vn 0.133613 0.026630 -0.990676
vn 0.000000 0.032785 -0.999462
vn 0.000000 0.169108 -0.985598
vn 0.130130 0.171065 -0.976628
vn 0.326375 0.143127 -0.934342
vn 0.360881 0.010743 -0.932550
vn 0.133613 0.026630 -0.990676
vn 0.130130 0.171065 -0.976628
vn 0.146292 -0.690597 -0.708290
vn 0.000000 -0.695717 -0.718316
vn 0.000000 0.032785 -0.999462
vn 0.133613 0.026630 -0.990676
vn 0.360881 0.010743 -0.932550
vn 0.453516 -0.612246 -0.647671
vn 0.146292 -0.690597 -0.708290
vn 0.133613 0.026630 -0.990676
vn 0.784317 0.242545 -0.570981
vn 0.896190 0.029539 -0.442687
vn 0.780351 0.010750 -0.625249
vn 0.635785 0.069708 -0.768712
vn 0.360881 0.010743 -0.932550
vn 0.679454 -0.050398 -0.731986
vn 0.795056 -0.358607 -0.489169
vn 0.453516 -0.612246 -0.647671
vn 0.360881 0.010743 -0.932550
vn 0.326375 0.143127 -0.934342
vn 0.635785 0.069708 -0.768712
vn 0.679454 -0.050398 -0.731986
vn 0.326375 0.143127 -0.934342
vn 0.471893 0.518946 -0.712750
vn 0.784317 0.242545 -0.570981
vn 0.635785 0.069708 -0.768712
vn 0.679454 -0.050398 -0.731986
vn 0.635785 0.069708 -0.768712
vn 0.780351 0.010750 -0.625249
vn 0.797181 -0.053593 -0.601358
vn 0.903059 -0.151422 -0.401941
vn 0.795056 -0.358607 -0.489169
vn 0.679454 -0.050398 -0.731986
vn 0.797181 -0.053593 -0.601358
vn 0.896190 0.029539 -0.442687
vn 0.903059 -0.151422 -0.401941
vn 0.797181 -0.053593 -0.601358
vn 0.780351 0.010750 -0.625249
s off
g polySurface1 SubMarineV1:thruster2
usemtl initialShadingGroup
f 22//1 3//2 4//3 21//4
f 1//5 2//6 4//7 3//8
f 1//9 3//10 9//11 10//12
f 10//13 9//14 8//15 7//16
f 15//17 16//18 12//19 11//20
f 11//21 12//22 14//23 13//24
f 7//25 8//26 18//27 17//28
f 17//29 18//30 13//31 14//32
f 6//33 5//34 19//35 20//36
f 16//37 15//38 6//39 20//40
f 9//41 3//42 22//43 23//44
f 25//45 22//46 21//47 24//48
f 23//49 22//50 25//51 26//52
f 6//53 25//54 24//55 5//56
f 26//57 25//58 6//59 15//60
f 8//61 27//62 29//63 18//64
f 26//65 15//66 11//67 28//68
f 26//69 28//70 27//71 23//72
f 23//73 27//74 8//75 9//76
f 28//77 30//78 29//79 27//80
f 13//81 30//82 28//83 11//84
f 18//85 29//86 30//87 13//88
f 31//89 21//90 4//91 32//92
f 33//93 32//94 4//95 2//96
f 33//97 35//98 34//99 32//100
f 35//101 37//102 36//103 34//104
f 38//105 41//106 40//107 39//108
f 41//109 43//110 42//111 40//112
f 37//113 45//114 44//115 36//116
f 45//117 42//118 43//119 44//120
f 46//121 47//122 19//123 5//124
f 39//125 47//126 46//127 38//128
f 34//129 48//130 31//131 32//132
f 49//133 24//134 21//135 31//136
f 48//137 50//138 49//139 31//140
f 46//141 5//142 24//143 49//144
f 50//145 38//146 46//147 49//148
f 36//149 44//150 52//151 51//152
f 50//153 53//154 41//155 38//156
f 50//157 48//158 51//159 53//160
f 48//161 34//162 36//163 51//164
f 53//165 51//166 52//167 54//168
f 43//169 41//170 53//171 54//172
f 44//173 43//174 54//175 52//176
