# This file uses centimeters as units for non-parametric coordinates.

mtllib seaPlant_2.mtl
g default
v -0.083695 0.170144 0.161639
v -0.015168 -0.001408 0.058063
v -0.083695 0.170144 -0.161639
v -0.015168 -0.001408 -0.058063
v -0.032563 -0.001408 0.000000
v -0.194918 0.298805 0.000000
v -0.098136 0.170144 -0.153302
v -0.042700 -0.001408 -0.042168
v 0.181831 0.170144 0.008337
v 0.057868 -0.001408 0.015895
v 0.016282 -0.001408 -0.028200
v 0.097459 0.298805 -0.168804
v 0.181831 0.170144 -0.008337
v 0.057868 -0.001408 -0.015895
v -0.098136 0.170144 0.153302
v -0.042700 -0.001408 0.042168
v 0.016282 -0.001408 0.028200
v 0.097459 0.298805 0.168804
vt 0.001920 0.296306
vt 0.166938 0.001992
vt 0.259443 0.001992
vt 0.259443 0.517038
vt 0.351949 0.001992
vt 0.516966 0.296306
vt 0.447054 0.433996
vt 0.612071 0.139682
vt 0.704577 0.139682
vt 0.704577 0.654728
vt 0.797082 0.139682
vt 0.962100 0.433996
vt 0.145268 0.777276
vt 0.310286 0.482962
vt 0.402791 0.482962
vt 0.402791 0.998008
vt 0.495297 0.482962
vt 0.660314 0.777276
vn 0.854390 0.467806 -0.226220
vn 0.854390 0.467806 -0.226220
vn 0.854390 0.467806 -0.226220
vn 0.854390 0.467806 -0.226220
vn 0.854390 0.467806 0.226220
vn 0.854390 0.467806 0.226220
vn 0.854390 0.467806 0.226220
vn 0.854390 0.467806 0.226220
vn -0.231283 0.467806 0.853033
vn -0.231283 0.467806 0.853033
vn -0.231283 0.467806 0.853033
vn -0.231283 0.467806 0.853033
vn -0.623107 0.467806 0.626813
vn -0.623107 0.467806 0.626813
vn -0.623107 0.467806 0.626813
vn -0.623107 0.467806 0.626813
vn -0.623107 0.467806 -0.626813
vn -0.623107 0.467806 -0.626813
vn -0.623107 0.467806 -0.626813
vn -0.623107 0.467806 -0.626813
vn -0.231283 0.467806 -0.853033
vn -0.231283 0.467806 -0.853033
vn -0.231283 0.467806 -0.853033
vn -0.231283 0.467806 -0.853033
s off
g modelPanel4ViewSelectedSet seaPlant_2
usemtl initialShadingGroup
f 1/1/1 2/2/2 5/3/3 6/4/4
f 6/4/5 5/3/6 4/5/7 3/6/8
f 7/7/9 8/8/10 11/9/11 12/10/12
f 12/10/13 11/9/14 10/11/15 9/12/16
f 13/13/17 14/14/18 17/15/19 18/16/20
f 18/16/21 17/15/22 16/17/23 15/18/24
