# This file uses centimeters as units for non-parametric coordinates.

mtllib Roman_Pillar_Single_Broken2.mtl
g default
v -0.500000 1.527185 0.500000
v 0.500000 1.527185 0.500000
v -0.500000 1.527185 -0.500000
v 0.500000 1.527185 -0.500000
v -0.382940 0.927185 0.363979
v 0.382940 0.927185 0.363979
v 0.382940 0.927185 -0.363979
v -0.382940 0.927185 -0.363979
v 0.232308 0.791722 -0.267769
v 0.232308 0.791722 0.267769
v -0.232308 0.791722 0.267769
v -0.232308 0.791722 -0.267769
v -0.500000 1.227185 -0.500000
v 0.500000 1.227185 -0.500000
v 0.500000 1.227185 0.500000
v -0.500000 1.227185 0.500000
v -0.382940 1.077185 0.363979
v 0.382940 1.077185 0.363979
v 0.382940 1.077185 -0.363979
v -0.382940 1.077185 -0.363979
v -0.232308 -0.612459 0.267769
v 0.232308 -0.705633 0.267769
v 0.232308 -1.527185 -0.267769
v -0.232308 -1.527185 -0.267769
v -0.165554 -0.743882 0.190825
v 0.165554 -0.810282 0.190825
v 0.165554 -1.395762 -0.190825
v -0.165554 -1.395762 -0.190825
v -0.165554 -0.402571 0.190825
v 0.165554 -0.468972 0.190825
v 0.165554 -1.054451 -0.190825
v -0.165554 -1.054451 -0.190825
vt 0.375000 0.231250
vt 0.625000 0.231250
vt 0.625000 0.237500
vt 0.375000 0.237500
vt 0.375000 0.250000
vt 0.625000 0.250000
vt 0.625000 0.500000
vt 0.375000 0.500000
vt 0.375000 0.512500
vt 0.625000 0.512500
vt 0.625000 0.518750
vt 0.375000 0.518750
vt 0.875000 0.231250
vt 0.875000 0.237500
vt 0.125000 0.231250
vt 0.125000 0.237500
vt 0.375000 0.160848
vt 0.625000 0.156966
vt 0.625000 0.219356
vt 0.375000 0.219356
vt 0.875000 0.122735
vt 0.875000 0.219356
vt 0.375000 0.530644
vt 0.625000 0.530644
vt 0.625000 0.627265
vt 0.375000 0.627265
vt 0.125000 0.122735
vt 0.125000 0.219356
vt 0.875000 0.225000
vt 0.625000 0.225000
vt 0.375000 0.225000
vt 0.125000 0.225000
vt 0.375000 0.525000
vt 0.625000 0.525000
vt 0.875000 0.250000
vt 0.125000 0.250000
vt 0.000000 0.000000
vt 1.000000 0.000000
vt 1.000000 1.000000
vt 0.000000 1.000000
vt 0.000000 0.000000
vt 1.000000 0.000000
vt 1.000000 1.000000
vt 0.000000 1.000000
vt 0.000000 0.000000
vt 1.000000 0.000000
vt 1.000000 1.000000
vt 0.000000 1.000000
vt 0.000000 0.000000
vt 1.000000 0.000000
vt 1.000000 1.000000
vt 0.000000 1.000000
vt 0.000000 0.000000
vt 1.000000 0.000000
vt 1.000000 1.000000
vt 0.000000 1.000000
vt 0.000000 0.000000
vt 1.000000 0.000000
vt 1.000000 1.000000
vt 0.000000 1.000000
vt 0.000000 0.000000
vt 1.000000 0.000000
vt 1.000000 1.000000
vt 0.000000 1.000000
vt 0.000000 0.000000
vt 1.000000 0.000000
vt 1.000000 1.000000
vt 0.000000 1.000000
vn 0.000000 -0.493212 0.869909
vn 0.000000 -0.493212 0.869909
vn 0.000000 -0.175146 0.984543
vn 0.000000 -0.175145 0.984543
vn 0.000000 1.000000 0.000000
vn 0.000000 1.000000 0.000000
vn 0.000000 1.000000 0.000000
vn 0.000000 1.000000 0.000000
vn 0.000000 -0.175146 -0.984543
vn 0.000000 -0.175146 -0.984542
vn 0.000000 -0.493211 -0.869909
vn 0.000000 -0.493212 -0.869909
vn 0.892819 -0.450417 0.000000
vn 0.892819 -0.450417 0.000000
vn 0.991752 -0.128169 0.000000
vn 0.991752 -0.128169 0.000000
vn -0.892818 -0.450417 0.000000
vn -0.892818 -0.450417 0.000000
vn -0.991752 -0.128169 0.000000
vn -0.991752 -0.128169 0.000000
vn -0.000000 0.000000 1.000000
vn -0.000000 0.000000 1.000000
vn -0.000000 -0.118317 0.992976
vn -0.000000 -0.118317 0.992976
vn 1.000000 0.000000 0.000000
vn 1.000000 0.000000 0.000000
vn 0.993609 -0.112872 0.000000
vn 0.993609 -0.112872 0.000000
vn 0.000000 -0.079291 -0.996852
vn 0.000000 -0.079291 -0.996852
vn 0.000000 0.000000 -1.000000
vn 0.000000 0.000000 -1.000000
vn -1.000000 0.000000 0.000000
vn -1.000000 0.000000 0.000000
vn -0.993323 -0.115369 0.000000
vn -0.993323 -0.115369 0.000000
vn 0.937261 -0.348627 0.000000
vn 0.937261 -0.348627 0.000000
vn 0.000000 -0.148518 0.988910
vn 0.000000 -0.148518 0.988910
vn -0.937261 -0.348627 0.000000
vn -0.937261 -0.348627 0.000000
vn 0.000000 -0.148518 -0.988910
vn 0.000000 -0.148518 -0.988910
vn 0.000000 0.000000 -1.000000
vn 0.000000 0.000000 -1.000000
vn 1.000000 0.000000 0.000000
vn 1.000000 0.000000 0.000000
vn 0.000000 0.000000 1.000000
vn 0.000000 0.000000 1.000000
vn -1.000000 0.000000 0.000000
vn -1.000000 0.000000 0.000000
vn -0.108861 -0.542839 0.832752
vn -0.108861 -0.542839 0.832752
vn -0.108861 -0.542839 0.832752
vn -0.108861 -0.542839 0.832752
vn -0.108860 -0.542838 0.832752
vn -0.108860 -0.542838 0.832752
vn -0.108860 -0.542838 0.832752
vn -0.108860 -0.542838 0.832752
vn 0.000000 -0.505243 0.862977
vn 0.000000 -0.505243 0.862977
vn 0.000000 -0.505243 0.862977
vn 0.000000 -0.505243 0.862977
vn -0.000002 -0.505241 0.862978
vn -0.000002 -0.505241 0.862978
vn -0.000002 -0.505241 0.862978
vn -0.000002 -0.505241 0.862978
vn 0.000000 0.000000 -1.000000
vn 0.000000 0.000000 -1.000000
vn 0.000000 0.000000 -1.000000
vn 0.000000 0.000000 -1.000000
vn -1.000000 0.000000 0.000000
vn -1.000000 0.000000 0.000000
vn -1.000000 0.000000 0.000000
vn -1.000000 0.000000 0.000000
vn 0.000000 0.000000 1.000000
vn 0.000000 0.000000 1.000000
vn 0.000000 0.000000 1.000000
vn 0.000000 0.000000 1.000000
vn 1.000000 0.000000 0.000000
vn 1.000000 0.000000 0.000000
vn 1.000000 0.000000 0.000000
vn 1.000000 0.000000 0.000000
vn -0.052571 -0.524294 0.849913
vn -0.052571 -0.524294 0.849913
vn -0.052571 -0.524294 0.849913
vn -0.052571 -0.524294 0.849913
s 1
g polySurface1 pCube2
usemtl initialShadingGroup
f 17/1/1 18/2/2 15/3/3 16/4/4
s off
f 1/5/5 2/6/6 4/7/7 3/8/8
s 2
f 13/9/9 14/10/10 19/11/11 20/12/12
s 3
f 18/2/13 19/13/14 14/14/15 15/3/16
s 4
f 20/15/17 17/1/18 16/4/19 13/16/20
s 1
f 21/17/21 22/18/22 10/19/23 11/20/24
s 3
f 22/18/25 23/21/26 9/22/27 10/19/28
s 2
f 12/23/29 9/24/30 23/25/31 24/26/32
s 4
f 24/27/33 21/17/34 11/20/35 12/28/36
s 3
f 10/19/28 9/22/27 7/29/37 6/30/38
s 1
f 11/20/24 10/19/23 6/30/39 5/31/40
s 4
f 12/28/36 11/20/35 5/31/41 8/32/42
s 2
f 8/33/43 7/34/44 9/24/30 12/23/29
f 3/8/45 4/7/46 14/10/10 13/9/9
s 3
f 15/3/16 14/14/15 4/35/47 2/6/48
s 1
f 16/4/4 15/3/3 2/6/49 1/5/50
s 4
f 13/16/20 16/4/19 1/5/51 3/36/52
s 1
f 5/31/40 6/30/39 18/2/2 17/1/1
s 3
f 6/30/38 7/29/37 19/13/14 18/2/13
s 2
f 20/12/12 19/11/11 7/34/44 8/33/43
s 4
f 8/32/42 5/31/41 17/1/18 20/15/17
s off
f 22/37/53 21/38/54 25/39/55 26/40/56
f 23/41/57 22/42/58 26/43/59 27/44/60
f 24/45/61 23/46/62 27/47/63 28/48/64
f 21/49/65 24/50/66 28/51/67 25/52/68
f 26/53/69 25/54/70 29/55/71 30/56/72
f 27/57/73 26/58/74 30/59/75 31/60/76
f 28/61/77 27/62/78 31/63/79 32/64/80
f 25/65/81 28/66/82 32/67/83 29/68/84
f 30/56/85 29/68/86 32/64/87 31/60/88
