# This file uses centimeters as units for non-parametric coordinates.

mtllib Roman_Pillar_Single.mtl
g default
v -0.500000 -3.000000 0.500000
v 0.500000 -3.000000 0.500000
v -0.500000 3.000000 0.500000
v 0.500000 3.000000 0.500000
v -0.500000 3.000000 -0.500000
v 0.500000 3.000000 -0.500000
v -0.500000 -3.000000 -0.500000
v 0.500000 -3.000000 -0.500000
v -0.349658 2.400000 0.363979
v 0.349658 2.400000 0.363979
v 0.349658 2.400000 -0.363979
v -0.349658 2.400000 -0.363979
v -0.333502 -2.460000 0.360376
v 0.333502 -2.460000 0.360376
v 0.333502 -2.460000 -0.360376
v -0.333502 -2.460000 -0.360376
v 0.232308 2.264537 -0.267769
v 0.232308 2.264537 0.267769
v -0.232308 2.264537 0.267769
v -0.232308 2.264537 -0.267769
v -0.232308 -2.373275 0.267769
v 0.232308 -2.373275 0.267769
v 0.232308 -2.373276 -0.267769
v -0.232308 -2.373276 -0.267769
v -0.500000 2.700000 -0.500000
v 0.500000 2.700000 -0.500000
v 0.500000 2.700000 0.500000
v -0.500000 2.700000 0.500000
v -0.349658 2.550000 0.363979
v 0.349658 2.550000 0.363979
v 0.349658 2.550000 -0.363979
v -0.349658 2.550000 -0.363979
v -0.500000 -2.784000 0.500000
v 0.500000 -2.784000 0.500000
v 0.500000 -2.784000 -0.500000
v -0.500000 -2.784000 -0.500000
v 0.333502 -2.622000 -0.360376
v 0.333502 -2.622000 0.360376
v -0.333502 -2.622000 0.360376
v -0.333502 -2.622000 -0.360376
vt 0.375000 0.000000
vt 0.625000 0.000000
vt 0.375000 0.250000
vt 0.625000 0.250000
vt 0.375000 0.500000
vt 0.625000 0.500000
vt 0.375000 0.750000
vt 0.625000 0.750000
vt 0.375000 1.000000
vt 0.625000 1.000000
vt 0.875000 0.000000
vt 0.875000 0.250000
vt 0.125000 0.000000
vt 0.125000 0.250000
vt 0.375000 0.225000
vt 0.625000 0.225000
vt 0.625000 0.525000
vt 0.875000 0.225000
vt 0.125000 0.225000
vt 0.375000 0.525000
vt 0.375000 0.022500
vt 0.625000 0.022500
vt 0.625000 0.727500
vt 0.875000 0.022500
vt 0.125000 0.022500
vt 0.375000 0.727500
vt 0.625000 0.530644
vt 0.875000 0.219356
vt 0.625000 0.219356
vt 0.375000 0.219356
vt 0.125000 0.219356
vt 0.375000 0.530644
vt 0.375000 0.026114
vt 0.625000 0.026114
vt 0.625000 0.723886
vt 0.875000 0.026113
vt 0.125000 0.026113
vt 0.375000 0.723886
vt 0.125000 0.237500
vt 0.375000 0.512500
vt 0.625000 0.512500
vt 0.875000 0.237500
vt 0.625000 0.237500
vt 0.375000 0.237500
vt 0.375000 0.231250
vt 0.625000 0.231250
vt 0.625000 0.518750
vt 0.875000 0.231250
vt 0.125000 0.231250
vt 0.375000 0.518750
vt 0.375000 0.009000
vt 0.625000 0.009000
vt 0.625000 0.741000
vt 0.875000 0.009000
vt 0.125000 0.009000
vt 0.375000 0.741000
vt 0.625000 0.734250
vt 0.875000 0.015750
vt 0.625000 0.015750
vt 0.375000 0.015750
vt 0.125000 0.015750
vt 0.375000 0.734250
vn 0.000000 -0.507608 0.861588
vn 0.000000 -0.507608 0.861588
vn 0.000000 -0.150128 0.988667
vn 0.000000 -0.150128 0.988667
vn 0.000000 1.000000 0.000000
vn 0.000000 1.000000 0.000000
vn 0.000000 1.000000 0.000000
vn 0.000000 1.000000 0.000000
vn 0.000000 -0.150128 -0.988667
vn 0.000000 -0.150128 -0.988667
vn 0.000000 -0.507608 -0.861588
vn 0.000000 -0.507608 -0.861588
vn 0.000000 -1.000000 0.000000
vn 0.000000 -1.000000 0.000000
vn 0.000000 -1.000000 0.000000
vn 0.000000 -1.000000 0.000000
vn 0.843748 -0.536740 0.000000
vn 0.843748 -0.536740 0.000000
vn 0.982698 -0.185217 0.000000
vn 0.982698 -0.185217 0.000000
vn -0.843748 -0.536740 0.000000
vn -0.843748 -0.536740 0.000000
vn -0.982697 -0.185218 0.000000
vn -0.982697 -0.185218 0.000000
vn 0.000000 0.035801 0.999359
vn 0.000000 0.035801 0.999359
vn 0.000000 -0.038190 0.999271
vn 0.000000 -0.038190 0.999271
vn 0.999338 0.036388 -0.000000
vn 0.999338 0.036388 -0.000000
vn 0.999172 -0.040687 0.000000
vn 0.999172 -0.040687 0.000000
vn 0.000000 -0.038190 -0.999271
vn 0.000000 -0.038190 -0.999271
vn 0.000000 0.035801 -0.999359
vn 0.000000 0.035801 -0.999359
vn -0.999338 0.036388 -0.000000
vn -0.999338 0.036388 -0.000000
vn -0.999172 -0.040687 0.000000
vn -0.999172 -0.040687 0.000000
vn 0.000000 0.185929 0.982563
vn 0.000000 0.185929 0.982563
vn 0.000000 0.494161 0.869371
vn 0.000000 0.494161 0.869370
vn 0.964760 0.263130 0.000000
vn 0.964760 0.263130 0.000000
vn 0.838521 0.544870 -0.000000
vn 0.838521 0.544870 -0.000000
vn 0.000000 0.494161 -0.869370
vn 0.000000 0.494161 -0.869370
vn 0.000000 0.185929 -0.982563
vn 0.000000 0.185929 -0.982563
vn -0.964760 0.263130 0.000000
vn -0.964760 0.263130 0.000000
vn -0.838521 0.544870 0.000000
vn -0.838521 0.544870 0.000000
vn 0.966155 -0.257964 0.000000
vn 0.966155 -0.257964 0.000000
vn 0.000000 -0.175409 0.984496
vn 0.000000 -0.175409 0.984496
vn -0.966155 -0.257964 0.000000
vn -0.966155 -0.257964 0.000000
vn 0.000000 -0.175409 -0.984496
vn 0.000000 -0.175409 -0.984496
vn 0.000000 0.186350 0.982483
vn 0.000000 0.186350 0.982483
vn 0.974168 0.225826 -0.000000
vn 0.974168 0.225826 -0.000000
vn 0.000000 0.186351 -0.982483
vn 0.000000 0.186351 -0.982483
vn -0.974168 0.225826 -0.000000
vn -0.974168 0.225826 -0.000000
vn 0.000000 0.000000 -1.000000
vn 0.000000 0.000000 -1.000000
vn 1.000000 0.000000 0.000000
vn 1.000000 0.000000 0.000000
vn 0.000000 0.000000 1.000000
vn 0.000000 0.000000 1.000000
vn -1.000000 0.000000 0.000000
vn -1.000000 0.000000 0.000000
vn 0.000000 0.000000 1.000000
vn 0.000000 0.000000 1.000000
vn 1.000000 -0.000000 0.000000
vn 1.000000 -0.000000 0.000000
vn 0.000000 0.000000 -1.000000
vn 0.000000 0.000000 -1.000000
vn -1.000000 0.000000 0.000000
vn -1.000000 0.000000 0.000000
s 1
g pCube12
usemtl initialShadingGroup
f 29/45/1 30/46/2 27/43/3 28/44/4
s off
f 3/3/5 4/4/6 6/6/7 5/5/8
s 2
f 25/40/9 26/41/10 31/47/11 32/50/12
s off
f 7/7/13 8/8/14 2/10/15 1/9/16
s 3
f 30/46/17 31/48/18 26/42/19 27/43/20
s 4
f 32/49/21 29/45/22 28/44/23 25/39/24
s 1
f 21/33/25 22/34/26 18/29/27 19/30/28
s 3
f 22/34/29 23/36/30 17/28/31 18/29/32
s 2
f 20/32/33 17/27/34 23/35/35 24/38/36
s 4
f 24/37/37 21/33/38 19/30/39 20/31/40
s 1
f 33/51/41 34/52/42 38/59/43 39/60/44
s 3
f 34/52/45 35/54/46 37/58/47 38/59/48
s 2
f 40/62/49 37/57/50 35/53/51 36/56/52
s 4
f 36/55/53 33/51/54 39/60/55 40/61/56
s 3
f 18/29/32 17/28/31 11/18/57 10/16/58
s 1
f 19/30/28 18/29/27 10/16/59 9/15/60
s 4
f 20/31/40 19/30/39 9/15/61 12/19/62
s 2
f 12/20/63 11/17/64 17/27/34 20/32/33
s 1
f 13/21/65 14/22/66 22/34/26 21/33/25
s 3
f 14/22/67 15/24/68 23/36/30 22/34/29
s 2
f 24/38/36 23/35/35 15/23/69 16/26/70
s 4
f 16/25/71 13/21/72 21/33/38 24/37/37
s 2
f 5/5/73 6/6/74 26/41/10 25/40/9
s 3
f 27/43/20 26/42/19 6/12/75 4/4/76
s 1
f 28/44/4 27/43/3 4/4/77 3/3/78
s 4
f 25/39/24 28/44/23 3/3/79 5/14/80
s 1
f 9/15/60 10/16/59 30/46/2 29/45/1
s 3
f 10/16/58 11/18/57 31/48/18 30/46/17
s 2
f 32/50/12 31/47/11 11/17/64 12/20/63
s 4
f 12/19/62 9/15/61 29/45/22 32/49/21
s 1
f 1/1/81 2/2/82 34/52/42 33/51/41
s 3
f 2/2/83 8/11/84 35/54/46 34/52/45
s 2
f 36/56/52 35/53/51 8/8/85 7/7/86
s 4
f 7/13/87 1/1/88 33/51/54 36/55/53
s 3
f 38/59/48 37/58/47 15/24/68 14/22/67
s 1
f 39/60/44 38/59/43 14/22/66 13/21/65
s 4
f 40/61/56 39/60/55 13/21/72 16/25/71
s 2
f 16/26/70 15/23/69 37/57/50 40/62/49
