# This file uses centimeters as units for non-parametric coordinates.

mtllib crystal.mtl
g default
v 0.073665 -0.601828 -0.184216
v 0.086933 -0.567307 -0.208062
v 0.120058 -0.566976 -0.197169
v 0.110860 -0.600279 -0.176251
v -0.127367 -0.603056 -0.094105
v -0.145040 -0.567532 -0.111370
v -0.124653 -0.567329 -0.139309
v -0.107686 -0.601967 -0.125138
v -0.107686 -0.601967 0.125138
v -0.124653 -0.567329 0.139309
v -0.145040 -0.567532 0.111370
v -0.127367 -0.603056 0.094105
v 0.110860 -0.600279 0.176251
v 0.120058 -0.566976 0.197169
v 0.086933 -0.567307 0.208062
v 0.073665 -0.601828 0.184216
v 0.225424 -0.600206 -0.018731
v 0.250580 -0.566964 -0.017524
v 0.250580 -0.566964 0.017524
v 0.225424 -0.600206 0.018731
v 0.160212 0.348828 -0.382327
v 0.164444 0.311822 -0.393744
v 0.130613 0.311925 -0.404826
v 0.124539 0.349187 -0.393187
v -0.302266 0.349224 -0.254477
v -0.311423 0.311946 -0.261204
v -0.332407 0.312017 -0.232425
v -0.323774 0.349448 -0.224163
v -0.323774 0.349448 0.224163
v -0.332407 0.312017 0.232425
v -0.311423 0.311946 0.261204
v -0.302266 0.349224 0.254477
v 0.124539 0.349187 0.393187
v 0.130613 0.311925 0.404826
v 0.164444 0.311822 0.393744
v 0.160212 0.348828 0.382327
v 0.424461 0.348806 0.018655
v 0.437589 0.311811 0.017789
v 0.437589 0.311811 -0.017789
v 0.424461 0.348806 -0.018655
v 0.031147 -0.718685 0.018788
v -0.004622 -0.717295 0.030420
v -0.026209 -0.716594 -0.000000
v -0.004622 -0.717295 -0.030420
v 0.031147 -0.718685 -0.018788
v 0.027007 0.709197 -0.018702
v -0.008550 0.708896 -0.030212
v -0.030444 0.708722 -0.000000
v -0.008550 0.708896 0.030212
v 0.027007 0.709197 0.018702
vt 0.001845 0.488987
vt 0.086300 0.717058
vt 0.096575 0.731926
vt 0.370364 0.989014
vt 0.096787 0.248668
vt 0.108803 0.236862
vt 0.135687 0.321130
vt 0.068062 0.572932
vt 0.052541 0.567686
vt 0.082402 0.503010
vt 0.139209 0.627511
vt 0.152519 0.640043
vt 0.157309 0.545215
vt 0.096802 0.508265
vt 0.166934 0.531884
vt 0.183088 0.535465
vt 0.168372 0.445733
vt 0.106314 0.496345
vt 0.164162 0.422860
vt 0.181042 0.424283
vt 0.077207 0.395699
vt 0.097799 0.483319
vt 0.082874 0.487392
vt 0.153084 0.319604
vt 0.924109 0.491619
vt 0.424963 0.001992
vt 0.516568 0.167171
vt 0.504308 0.178180
vt 0.379594 0.977603
vt 0.490531 0.815801
vt 0.503200 0.825508
vt 0.741521 0.513142
vt 0.514498 0.804010
vt 0.498089 0.802998
vt 0.555436 0.614137
vt 0.570750 0.618503
vt 0.727621 0.517590
vt 0.557826 0.599816
vt 0.560166 0.397727
vt 0.718939 0.505503
vt 0.573853 0.375869
vt 0.559160 0.382961
vt 0.508882 0.192133
vt 0.524693 0.189472
vt 0.799256 0.321755
vt 0.741503 0.498203
vt 0.727455 0.493260
vt 0.147044 0.653497
vt 0.181257 0.549790
vt 0.183990 0.438482
vt 0.159026 0.333012
vt 0.409626 0.007430
vt 0.001873 0.472071
vt 0.061236 0.399976
vt 0.924095 0.508631
vt 0.799848 0.680627
vt 0.783619 0.685758
vt 0.583263 0.616312
vt 0.573717 0.602202
vt 0.576143 0.399379
vt 0.585642 0.385275
vt 0.783033 0.316748
vt 0.086693 0.742476
vt 0.075739 0.729357
vt 0.135686 0.632951
vt 0.131236 0.647705
vt 0.165711 0.535071
vt 0.163540 0.550558
vt 0.164157 0.429452
vt 0.137355 0.327498
vt 0.144252 0.341687
vt 0.384352 0.998008
vt 0.393870 0.985096
vt 0.511807 0.812367
vt 0.575703 0.383449
vt 0.520495 0.174042
vn -0.111907 -0.688025 -0.717007
vn 0.483015 -0.734147 -0.477204
vn 0.373462 -0.881703 -0.288315
vn -0.189418 -0.838885 -0.510287
vn -0.251773 -0.205650 -0.945684
vn -0.333673 -0.665718 -0.667444
vn -0.349765 -0.207618 -0.913542
vn 0.764190 -0.184847 -0.617937
vn -0.248637 -0.178606 -0.951987
vn 0.762381 -0.155632 -0.628135
vn 0.824832 -0.183559 -0.534750
vn 0.596156 -0.743219 -0.303682
vn -0.768492 -0.628442 -0.120334
vn -0.594994 -0.803730 -0.000001
vn -0.974084 -0.220221 -0.051600
vn -0.768492 -0.628442 0.120333
vn -0.974084 -0.220221 0.051600
vn -0.979288 -0.193942 -0.058152
vn -0.360117 -0.179896 -0.915398
vn -0.333673 -0.665718 0.667444
vn -0.189418 -0.838885 0.510287
vn -0.349765 -0.207618 0.913542
vn -0.111907 -0.688025 0.717007
vn -0.251773 -0.205650 0.945684
vn -0.360117 -0.179896 0.915398
vn -0.979288 -0.193942 0.058152
vn 0.483015 -0.734147 0.477204
vn 0.373462 -0.881704 0.288314
vn 0.764190 -0.184847 0.617937
vn 0.596157 -0.743219 0.303681
vn 0.824832 -0.183559 0.534750
vn 0.762381 -0.155632 0.628135
vn -0.248636 -0.178606 0.951987
vn 0.832439 -0.154803 -0.532053
vn 0.832439 -0.154803 0.532054
vn 0.583804 0.627016 -0.515775
vn -0.169686 0.607182 -0.776232
vn -0.218210 0.718559 -0.660346
vn 0.546950 0.735393 -0.400055
vn 0.671178 0.627878 -0.394067
vn -0.316906 0.605589 -0.729954
vn -0.801606 0.592665 -0.078589
vn -0.706674 0.707540 0.000000
vn -0.801606 0.592665 0.078589
vn -0.316906 0.605589 0.729954
vn -0.218210 0.718559 0.660346
vn -0.169686 0.607182 0.776232
vn 0.583804 0.627016 0.515775
vn 0.546950 0.735392 0.400055
vn 0.671178 0.627878 0.394067
s 1
g Crystal
usemtl initialShadingGroup
f 1/1/1 4/53/2 45/23/3 44/10/4
f 2/3/5 1/2/1 8/66/6 7/48/7
f 3/63/8 2/3/5 23/29/9 22/4/10
f 4/5/2 3/6/8 18/24/11 17/7/12
f 5/8/13 8/9/6 44/10/4 43/14/14
f 6/12/15 5/11/13 12/68/16 11/49/17
f 7/48/7 6/12/15 27/34/18 26/30/19
f 9/15/20 12/13/16 43/14/14 42/18/21
f 10/16/22 9/15/20 16/17/23 15/50/24
f 11/49/17 10/16/22 31/38/25 30/35/26
f 13/69/27 16/17/23 42/18/21 41/22/28
f 14/20/29 13/19/27 20/71/30 19/51/31
f 15/50/24 14/20/29 35/42/32 34/39/33
f 17/54/12 20/21/30 41/22/28 45/23/3
f 19/51/31 18/24/11 39/28/34 38/43/35
f 21/25/36 24/55/37 47/32/38 46/46/39
f 22/52/10 21/26/36 40/27/40 39/28/34
f 24/73/37 23/29/9 26/30/19 25/31/41
f 25/56/41 28/57/42 48/37/43 47/32/38
f 28/33/42 27/34/18 30/35/26 29/36/44
f 29/58/44 32/59/45 49/40/46 48/37/43
f 32/59/45 31/38/25 34/39/33 33/60/47
f 33/60/47 36/61/48 50/47/49 49/40/46
f 36/41/48 35/42/32 38/43/35 37/44/50
f 37/62/50 40/45/40 46/46/39 50/47/49
f 2/3/5 7/48/7 26/30/19 23/29/9
f 6/12/15 11/49/17 30/35/26 27/34/18
f 10/16/22 15/50/24 34/39/33 31/38/25
f 14/20/29 19/51/31 38/43/35 35/42/32
f 18/24/11 3/6/8 22/52/10 39/28/34
f 8/9/6 1/1/1 44/10/4
f 12/13/16 5/8/13 43/14/14
f 16/17/23 9/15/20 42/18/21
f 20/21/30 13/69/27 41/22/28
f 4/53/2 17/54/12 45/23/3
f 24/55/37 25/56/41 47/32/38
f 28/57/42 29/58/44 48/37/43
f 32/59/45 33/60/47 49/40/46
f 36/61/48 37/62/50 50/47/49
f 40/45/40 21/25/36 46/46/39
f 1/2/1 2/3/5 3/63/8 4/64/2
f 5/65/13 6/12/15 7/48/7 8/66/6
f 9/67/20 10/16/22 11/49/17 12/68/16
f 13/69/27 14/20/29 15/50/24 16/17/23
f 17/70/12 18/24/11 19/51/31 20/71/30
f 21/72/36 22/4/10 23/29/9 24/73/37
f 25/31/41 26/30/19 27/34/18 28/74/42
f 29/36/44 30/35/26 31/38/25 32/59/45
f 33/60/47 34/39/33 35/42/32 36/75/48
f 37/44/50 38/43/35 39/28/34 40/76/40
f 41/22/28 42/18/21 43/14/14 44/10/4 45/23/3
f 46/46/39 47/32/38 48/37/43 49/40/46 50/47/49
