# This file uses centimeters as units for non-parametric coordinates.

mtllib coral6.mtl
g default
v 0.213569 -3.256905 -0.828463
v -0.431309 -3.256905 -0.828463
v -0.753748 -3.256905 -0.269982
v -0.431309 -3.256905 0.288499
v 0.213569 -3.256905 0.288499
v 0.536009 -3.256905 -0.269982
v 0.153700 -2.649505 -0.724765
v -0.371439 -2.649505 -0.724765
v -0.634008 -2.649505 -0.269982
v -0.371439 -2.649505 0.184801
v 0.153698 -2.649505 0.184801
v 0.416269 -2.649505 -0.269982
v 0.223215 -2.140496 -0.845169
v -0.440955 -2.140496 -0.845169
v -0.773039 -2.140496 -0.269982
v -0.440955 -2.140496 0.305205
v 0.223215 -2.140496 0.305205
v 0.555299 -2.140496 -0.269982
v 0.104890 -1.659895 -0.640225
v -0.322629 -1.659895 -0.640225
v -0.536390 -1.659895 -0.269982
v -0.322629 -1.659895 0.100261
v 0.104890 -1.659895 0.100261
v 0.318650 -1.659895 -0.269982
v 0.123718 -0.668805 -0.662724
v -0.165701 -0.668805 -0.662724
v -0.310411 -0.668805 -0.412080
v -0.165701 -0.668805 -0.161436
v 0.123718 -0.668805 -0.161436
v 0.268427 -0.668805 -0.412080
v 0.091485 0.713120 -0.518038
v -0.314265 0.713120 -0.518038
v -0.517140 0.713120 -0.166649
v -0.314265 0.713120 0.184741
v 0.091485 0.713120 0.184741
v 0.294360 0.713120 -0.166649
v 0.323217 1.717524 -0.821527
v -0.182268 1.717524 -0.821527
v -0.435011 1.717524 -0.383764
v -0.182268 1.717524 0.054000
v 0.323217 1.717524 0.054000
v 0.575960 1.717524 -0.383764
v 0.259351 1.982977 -0.637651
v -0.033813 1.982977 -0.637651
v -0.180395 1.982977 -0.383764
v -0.033813 1.982977 -0.129876
v 0.259351 1.982977 -0.129876
v 0.405934 1.982977 -0.383764
v 0.432011 3.108547 -0.780111
v -0.061004 2.811830 -0.780111
v -0.307511 2.663472 -0.281786
v -0.061004 2.811830 0.216539
v 0.432011 3.108547 0.216539
v 0.678518 3.256905 -0.281786
v -0.795157 1.109427 0.083570
v -0.669864 1.125960 0.294668
v -0.602391 1.519581 0.273677
v -0.758482 1.498983 0.010689
v -1.323219 1.435208 0.275429
v -1.208116 1.441605 0.547779
v -0.984406 1.698473 0.439862
v -1.127802 1.690504 0.100567
v -1.760178 1.648645 0.341609
v -1.570294 1.659198 0.790908
v -1.201238 2.082956 0.612876
v -1.437798 2.069809 0.053137
v 0.537240 -0.129055 0.253487
v 0.727628 -0.136862 -0.043797
v 0.795350 0.303404 0.001092
v 0.573416 0.288435 0.379026
v 1.169101 0.036799 0.650363
v 1.341805 0.029829 0.342448
v 1.152889 0.422637 0.240227
v 0.963844 0.422840 0.635923
v 1.541998 0.398505 0.845169
v 1.760178 0.412055 0.402385
v 1.261864 0.721491 0.183488
v 1.027588 0.715700 0.750215
vt 0.260984 0.130950
vt 0.332492 0.141477
vt 0.317099 0.212042
vt 0.253698 0.202366
vt 0.401976 0.159299
vt 0.379759 0.227996
vt 0.470486 0.184824
vt 0.064557 0.201970
vt 0.121485 0.125430
vt 0.125752 0.197133
vt 0.191852 0.125916
vt 0.189413 0.197063
vt 0.305620 0.267739
vt 0.246929 0.258469
vt 0.364601 0.283036
vt 0.779564 0.385932
vt 0.058388 0.262031
vt 0.833789 0.394460
vt 0.682149 0.312453
vt 0.126693 0.253381
vt 0.723547 0.357667
vt 0.835425 0.187858
vt 0.870085 0.197017
vt 0.187641 0.253541
vt 0.292700 0.324552
vt 0.239561 0.316908
vt 0.343212 0.335713
vt 0.260722 0.898482
vt 0.201295 0.863484
vt 0.259741 0.967223
vt 0.144668 0.893728
vt 0.199299 0.998008
vt 0.141847 0.963430
vt 0.086032 0.319085
vt 0.134483 0.310309
vt 0.186517 0.312003
vt 0.259369 0.444371
vt 0.224326 0.439625
vt 0.292985 0.451034
vt 0.122488 0.430866
vt 0.153584 0.432789
vt 0.190610 0.436569
vt 0.251001 0.615752
vt 0.203082 0.610787
vt 0.296882 0.620442
vt 0.595781 0.247151
vt 0.652088 0.242122
vt 0.071476 0.577980
vt 0.701568 0.207825
vt 0.528983 0.222028
vt 0.113633 0.589390
vt 0.569888 0.012709
vt 0.156355 0.605842
vt 0.225495 0.726192
vt 0.183608 0.725423
vt 0.272296 0.726446
vt 0.595709 0.001992
vt 0.101237 0.698680
vt 0.316104 0.752372
vt 0.142312 0.717049
vt 0.215976 0.761638
vt 0.626611 0.090916
vt 0.580541 0.101232
vt 0.174652 0.756254
vt 0.737088 0.063257
vt 0.681400 0.114644
vt 0.475669 0.135232
vt 0.546721 0.139578
vt 0.634954 0.182605
vt 0.597999 0.187173
vt 0.685784 0.175041
vt 0.551854 0.191716
vt 0.353369 0.012692
vt 0.233613 0.061220
vt 0.279002 0.002238
vt 0.380075 0.082954
vt 0.848796 0.254489
vt 0.816860 0.247020
vt 0.700267 0.233735
vt 0.735632 0.261586
vt 0.730679 0.202067
vt 0.765863 0.254425
vt 0.831459 0.336602
vt 0.796114 0.329827
vt 0.725177 0.288754
vt 0.756189 0.310045
vt 0.254794 0.767559
vt 0.067301 0.721595
vt 0.098609 0.735024
vt 0.135664 0.746222
vt 0.077510 0.897550
vt 0.023432 0.857862
vt 0.001872 0.796187
vt 0.260946 0.848864
vt 0.288112 0.776509
vt 0.319607 0.867570
vt 0.052503 0.683978
vt 0.343866 0.623474
vt 0.325534 0.457658
vt 0.388347 0.356085
vt 0.428684 0.308835
vt 0.438355 0.247616
vt 0.048892 0.132533
vt 0.753091 0.189546
vt 0.584493 0.319713
vt 0.657549 0.317097
vt 0.733290 0.165443
vt 0.725310 0.128906
vt 0.770163 0.084846
vt 0.751733 0.452767
vt 0.897377 0.377001
vt 0.823267 0.463956
vt 0.871998 0.329772
vt 0.883420 0.284889
vt 0.938026 0.278950
vn 0.344804 -0.724181 -0.597220
vn -0.344805 -0.724181 -0.597220
vn -0.499883 -0.021630 -0.865823
vn 0.499883 -0.021630 -0.865823
vn -0.689610 -0.724181 -0.000000
vn -0.999766 -0.021630 0.000000
vn -0.344805 -0.724181 0.597219
vn -0.499883 -0.021630 0.865823
vn 0.344805 -0.724181 0.597220
vn 0.499882 -0.021630 0.865823
vn 0.689610 -0.724181 0.000000
vn 0.999766 -0.021629 0.000001
vn -0.498781 0.069775 -0.863915
vn 0.498781 0.069775 -0.863915
vn -0.997563 0.069775 0.000000
vn -0.498782 0.069775 0.863914
vn 0.498782 0.069775 0.863915
vn 0.997563 0.069775 0.000000
vn -0.504846 0.254622 -0.824802
vn 0.488757 0.203857 -0.848268
vn -0.941410 0.336437 0.023610
vn -0.465470 0.368832 0.804550
vn 0.450182 0.332608 0.828678
vn 0.967999 0.249805 0.023973
vn -0.458948 0.047471 -0.887194
vn 0.494895 0.045807 -0.867745
vn -0.998724 0.015797 -0.047958
vn -0.503886 -0.023169 0.863460
vn 0.289690 -0.167655 0.942322
vn 0.954469 -0.057235 -0.292767
vn -0.550283 -0.072320 -0.831841
vn 0.493568 -0.139004 -0.858527
vn -0.970446 -0.185787 -0.154004
vn -0.290952 -0.180962 0.939468
vn 0.202148 0.019311 0.979165
vn 0.606814 0.286964 0.741234
vn 0.942110 0.317927 -0.106538
vn 0.253570 0.857373 -0.447900
vn -0.129169 0.820722 0.556535
vn 0.976026 0.048513 -0.212180
vn -0.442300 -0.039399 -0.896001
vn 0.496533 -0.181695 -0.848788
vn -0.875162 0.278812 -0.395417
vn -0.988057 0.103938 -0.113757
vn -0.566174 0.169707 0.806626
vn 0.089344 0.864837 0.494040
vn -0.372727 0.762481 -0.528863
vn 0.550188 0.093876 0.829747
vn -0.079377 0.421002 0.903580
vn 0.989442 -0.132425 -0.058891
vn -0.460991 0.120819 -0.879142
vn 0.591291 0.005245 -0.806441
vn -0.990924 0.130896 -0.030579
vn -0.441817 -0.037382 0.896326
vn 0.632308 -0.123262 0.764848
vn 0.997054 -0.075054 -0.015819
vn -0.551904 0.452823 -0.700252
vn 0.366554 0.574757 -0.731637
vn -0.925310 0.378335 0.025766
vn -0.525913 0.358088 0.771485
vn 0.383777 0.492963 0.780834
vn 0.794045 0.606677 0.037878
vn 0.070117 -0.362010 0.929533
vn -0.781004 -0.477364 -0.402687
vn 0.320279 0.467452 0.823960
vn -0.611523 0.405845 -0.679213
vn 0.079246 -0.617750 0.782371
vn -0.483699 -0.740415 -0.466713
vn 0.757470 0.402254 0.514228
vn 0.141593 0.232470 -0.962242
vn 0.644391 -0.346489 -0.681694
vn -0.287038 -0.539991 0.791214
vn 0.530255 0.437329 -0.726342
vn -0.396529 0.220922 0.891043
vn 0.556235 -0.754962 -0.347325
vn 0.026577 -0.743926 0.667733
vn 0.015965 0.308445 -0.951108
vn -0.710201 0.168398 0.683562
s 1
g coral6_LP corals
usemtl initialShadingGroup
f 1/1/1 2/2/2 8/3/3 7/4/4
f 2/2/2 3/5/5 9/6/6 8/3/3
f 3/5/5 4/7/7 10/102/8 9/6/6
f 4/103/7 5/9/9 11/10/10 10/8/8
f 5/9/9 6/11/11 12/12/12 11/10/10
f 6/11/11 1/1/1 7/4/4 12/12/12
f 7/4/4 8/3/3 14/13/13 13/14/14
f 8/3/3 9/6/6 15/15/15 14/13/13
f 9/6/6 10/102/8 16/101/16 15/15/15
f 10/8/8 11/10/10 17/20/17 16/17/16
f 11/10/10 12/12/12 18/24/18 17/20/17
f 12/12/12 7/4/4 13/14/14 18/24/18
f 13/14/14 14/13/13 20/25/19 19/26/20
f 14/13/13 15/15/15 21/27/21 20/25/19
f 15/15/15 16/101/16 22/100/22 21/27/21
f 16/17/16 17/20/17 23/35/23 22/34/22
f 17/20/17 18/24/18 24/36/24 23/35/23
f 18/24/18 13/14/14 19/26/20 24/36/24
f 19/26/20 20/25/19 26/37/25 25/38/26
f 20/25/19 21/27/21 27/39/27 26/37/25
f 21/27/21 22/100/22 28/99/28 27/39/27
f 22/34/22 23/35/23 29/41/29 28/40/28
f 23/35/23 24/36/24 30/42/30 29/41/29
f 24/36/24 19/26/20 25/38/26 30/42/30
f 25/38/26 26/37/25 32/43/31 31/44/32
f 26/37/25 27/39/27 33/45/33 32/43/31
f 27/39/27 28/99/28 34/98/34 33/45/33
f 28/40/28 29/41/29 35/51/35 34/48/34
f 75/46/36 76/47/37 77/106/38 78/105/39
f 30/42/30 25/38/26 31/44/32 36/53/40
f 31/44/32 32/43/31 38/54/41 37/55/42
f 32/43/31 33/45/33 39/56/43 38/54/41
f 63/16/44 64/18/45 65/112/46 66/110/47
f 34/48/34 35/51/35 41/58/48 40/97/49
f 35/51/35 36/53/40 42/60/50 41/58/48
f 36/53/40 31/44/32 37/55/42 42/60/50
f 37/55/42 38/54/41 44/61/51 43/64/52
f 38/54/41 39/56/43 45/87/53 44/61/51
f 39/56/43 40/59/49 46/95/54 45/87/53
f 40/97/49 41/58/48 47/89/55 46/88/54
f 41/58/48 42/60/50 48/90/56 47/89/55
f 42/60/50 37/55/42 43/64/52 48/90/56
f 43/64/52 44/61/51 50/29/57 49/31/58
f 44/61/51 45/87/53 51/94/59 50/29/57
f 45/87/53 46/95/54 52/96/60 51/94/59
f 46/88/54 47/89/55 53/92/61 52/93/60
f 47/89/55 48/90/56 54/91/62 53/92/61
f 48/90/56 43/64/52 49/31/58 54/91/62
f 49/31/58 52/30/60 53/32/61 54/33/62
f 4/73/7 1/1/1 6/74/11 5/75/9
f 33/22/33 34/23/34 56/77/63 55/78/64
f 34/23/34 40/115/49 57/114/65 56/77/63
f 40/79/49 39/81/43 58/82/66 57/80/65
f 39/81/43 33/22/33 55/78/64 58/82/66
f 55/78/64 56/77/63 60/83/67 59/84/68
f 56/77/63 57/114/65 61/113/69 60/83/67
f 57/80/65 58/82/66 62/86/70 61/85/69
f 58/82/66 55/78/64 59/84/68 62/86/70
f 59/84/68 60/83/67 64/18/45 63/16/44
f 60/83/67 61/113/69 65/111/46 64/18/45
f 61/85/69 62/86/70 66/21/47 65/19/46
f 62/86/70 59/84/68 63/16/44 66/21/47
f 29/52/29 30/57/30 68/62/71 67/63/72
f 30/57/30 36/65/40 69/66/73 68/62/71
f 36/65/40 35/109/35 70/108/74 69/66/73
f 35/67/35 29/52/29 67/63/72 70/68/74
f 67/63/72 68/62/71 72/69/75 71/70/76
f 68/62/71 69/66/73 73/71/77 72/69/75
f 69/66/73 70/108/74 74/107/78 73/71/77
f 70/68/74 67/63/72 71/70/76 74/72/78
f 71/70/76 72/69/75 76/47/37 75/46/36
f 72/69/75 73/71/77 77/49/38 76/47/37
f 73/71/77 74/107/78 78/104/39 77/49/38
f 74/72/78 71/70/76 75/46/36 78/50/39
f 50/29/57 51/28/59 52/30/60 49/31/58
f 2/2/2 1/1/1 4/73/7 3/76/5
