# This file uses centimeters as units for non-parametric coordinates.

mtllib coral4.mtl
g default
v -0.367423 -1.670049 0.500682
v 1.386744 -1.670049 0.500682
v -0.340993 -0.804134 0.599379
v 1.522785 -0.944606 0.378740
v -0.222822 -0.720999 -0.630950
v 1.412244 -0.994029 -0.671372
v -0.367423 -1.670049 -0.728930
v 1.386744 -1.670049 -0.615823
v 0.058990 -0.743791 0.462457
v 0.198094 -0.778163 -0.577545
v 0.023277 -1.670049 -0.728930
v 0.023277 -1.670049 0.500682
v 0.330472 0.067274 0.209812
v 1.032437 -0.055677 0.282583
v 1.133615 0.079282 -0.465385
v 0.431649 0.202234 -0.538155
v 0.277508 0.825987 0.494320
v 1.222851 0.660408 0.592321
v 1.359108 0.842158 -0.414973
v 0.413765 1.007737 -0.512974
v 0.527827 1.542432 0.520483
v 1.191604 1.426169 0.589295
v 1.287277 1.553787 -0.117981
v 0.623500 1.670049 -0.186793
v -1.497144 -1.670049 -0.615823
v -1.497144 -1.670049 0.500682
v -1.522784 -0.878588 0.537777
v -1.491432 -0.892368 -0.490330
v -0.616243 -0.220843 0.299004
v -0.616243 -0.220843 -0.400589
v -1.186691 -0.220843 -0.400589
v -1.186691 -0.220843 0.299004
v -0.623602 0.521260 0.549832
v -0.623602 0.521260 -0.431660
v -1.423911 0.521260 -0.431660
v -1.423911 0.521260 0.549832
v -0.847875 1.069923 0.400409
v -0.847875 1.069923 -0.187058
v -1.326896 1.069923 -0.187058
v -1.326896 1.069923 0.400409
v -0.315850 -0.849868 -1.198511
v 0.290152 -0.968954 -1.200599
v 0.023277 -1.670049 -1.381744
v -0.588618 -1.670049 -1.442843
v 0.989372 -1.204193 -1.043976
v 1.066401 -1.670049 -0.990486
v -1.277822 -1.670049 -0.990486
v -1.208207 -1.085604 -1.054108
v -0.367423 -1.670049 1.166333
v 0.023277 -1.670049 1.166333
v 0.198632 -1.169023 1.356920
v -0.506425 -1.175634 1.378681
v 1.066401 -1.670049 0.779727
v 1.042764 -1.095298 0.883457
v -1.331523 -1.302049 0.909720
v -1.277822 -1.670049 0.779727
v -0.247907 -0.288297 0.701612
v 0.090995 -0.288297 0.677054
v -0.247907 -0.288297 1.129259
v 0.090995 -0.288297 1.104701
v -0.362563 0.187028 0.568929
v 0.206559 0.187028 0.527689
v -0.362563 0.187028 1.287082
v 0.206559 0.187028 1.245842
v -0.279934 0.585862 0.657276
v 0.145533 0.585862 0.626445
v -0.279934 0.585862 1.194155
v 0.145533 0.585862 1.163325
v -0.044824 -0.481951 -0.833518
v 0.164217 -0.510341 -0.806995
v 0.209937 -0.605094 -1.116426
v -0.091025 -0.545952 -1.115388
v -0.007833 -0.159186 -0.859007
v 0.278254 -0.198039 -0.822708
v 0.340824 -0.327716 -1.246184
v -0.071062 -0.246776 -1.244765
v 0.106763 0.087021 -0.961952
v 0.290123 0.062119 -0.938687
v 0.330225 -0.020994 -1.210103
v 0.066238 0.030882 -1.209194
v -0.747181 -0.874561 0.842142
v -1.155746 -0.900300 0.812790
v -1.089624 -1.046698 0.990010
v -0.804373 -1.002994 1.213457
v -0.855904 -0.526144 1.048459
v -1.169303 -0.545889 0.994955
v -1.143432 -0.658186 1.244684
v -0.899775 -0.624662 1.395125
v -0.982301 -0.292609 1.262337
v -1.141055 -0.302611 1.248068
v -1.115363 -0.359495 1.334220
v -1.004524 -0.342514 1.442844
vt 0.545063 0.709817
vt 0.549136 0.759379
vt 0.487753 0.801991
vt 0.475914 0.687322
vt 0.952981 0.667135
vt 0.941292 0.769451
vt 0.521279 0.042349
vt 0.560822 0.118606
vt 0.856473 0.726031
vt 0.847191 0.662536
vt 0.479027 0.160252
vt 0.700182 0.001992
vt 0.001902 0.125511
vt 0.702500 0.412531
vt 0.775532 0.693781
vt 0.781153 0.738161
vt 0.041998 0.159415
vt 0.634634 0.750773
vt 0.630005 0.703142
vt 0.143546 0.691332
vt 0.296842 0.160368
vt 0.362726 0.348250
vt 0.659763 0.909436
vt 0.789432 0.893648
vt 0.186814 0.728884
vt 0.134724 0.719768
vt 0.332085 0.293245
vt 0.312480 0.220964
vt 0.216439 0.684578
vt 0.217855 0.730060
vt 0.174355 0.837676
vt 0.170111 0.817345
vt 0.085240 0.019337
vt 0.183155 0.820122
vt 0.198672 0.833295
vt 0.661613 0.286762
vt 0.746372 0.218983
vt 0.605374 0.470072
vt 0.555260 0.332873
vt 0.456204 0.473705
vt 0.817343 0.143924
vt 0.610318 0.199447
vt 0.688048 0.135326
vt 0.223168 0.429995
vt 0.134232 0.166694
vt 0.097473 0.396347
vt 0.186225 0.362750
vt 0.053235 0.294766
vt 0.151289 0.258050
vt 0.304617 0.406318
vt 0.227746 0.165712
vt 0.363050 0.449855
vt 0.461748 0.551361
vt 0.398198 0.534827
vt 0.346903 0.518458
vt 0.207294 0.640914
vt 0.166127 0.615261
vt 0.418965 0.646691
vt 0.253838 0.597376
vt 0.352996 0.768284
vt 0.362102 0.638256
vt 0.272287 0.740068
vt 0.312198 0.622149
vt 0.457313 0.602188
vt 0.267079 0.537805
vt 0.383203 0.579945
vt 0.333150 0.564046
vt 0.164656 0.621284
vt 0.129411 0.685812
vt 0.126976 0.647224
vt 0.132324 0.612561
vt 0.034055 0.751743
vt 0.014025 0.706169
vt 0.053228 0.689051
vt 0.060063 0.716174
vt 0.001902 0.638526
vt 0.047793 0.640803
vt 0.010980 0.573469
vt 0.056293 0.595149
vt 0.095230 0.690385
vt 0.097846 0.723606
vt 0.090293 0.643902
vt 0.094551 0.603082
vt 0.172047 0.774430
vt 0.134402 0.773859
vt 0.199648 0.785329
vt 0.251448 0.763431
vt 0.222679 0.806466
vt 0.904385 0.213867
vt 0.824591 0.962760
vt 0.669153 0.998008
vt 0.759732 0.569707
vt 0.627789 0.568253
vt 0.612054 0.474092
vt 0.765640 0.475428
vt 0.880691 0.872258
vt 0.827373 0.854580
vt 0.621539 0.881245
vt 0.568888 0.932722
vt 0.557401 0.555670
vt 0.595045 0.590517
vt 0.800939 0.591557
vt 0.857826 0.544969
vt 0.783083 0.423710
vt 0.900336 0.390070
vt 0.513271 0.246999
vt 0.777769 0.059584
vt 0.270716 0.325968
vt 0.249573 0.233494
vt 0.068259 0.474750
vt 0.146607 0.562763
vt 0.203692 0.514180
vt 0.470409 0.554089
vt 0.563797 0.533793
vt 0.388530 0.200405
vt 0.299733 0.087636
vt 0.372404 0.139681
vt 0.226620 0.060193
vt 0.146245 0.072470
vt 0.631966 0.066314
vt 0.395669 0.182969
vt 0.439035 0.084617
vt 0.406747 0.277065
vt 0.463275 0.354023
vt 0.285613 0.494689
vt 0.234876 0.472522
vt 0.415619 0.466853
vt 0.207428 0.519142
vt 0.212962 0.578897
vt 0.439962 0.703710
vt 0.134503 0.709925
vt 0.146848 0.582399
vt 0.164470 0.644808
vt 0.115298 0.562383
vt 0.075968 0.559868
vt 0.055828 0.521783
vt 0.149332 0.818264
vt 0.218415 0.849020
vt 0.259699 0.828182
vt 0.435183 0.763479
vt 0.013147 0.206782
vt 0.018342 0.254427
vt 0.295952 0.788256
vt 0.394587 0.792338
vt 0.298696 0.775733
vt 0.817398 0.299931
vt 0.034856 0.002867
vn -0.137524 -0.795022 0.590786
vn 0.173516 -0.766284 0.618629
vn 0.375769 0.269851 0.886554
vn -0.321667 0.030694 0.946355
vn -0.133591 0.947097 0.291823
vn -0.060117 0.900979 0.429678
vn -0.308738 0.703109 -0.640561
vn 0.089853 0.956838 -0.276384
vn -0.215682 0.596464 -0.773118
vn 0.283565 0.433088 -0.855585
vn 0.141530 -0.539611 -0.829933
vn -0.195075 -0.407835 -0.891973
vn 0.000000 -1.000000 -0.000000
vn 0.000000 -1.000000 -0.000000
vn 0.000000 -1.000000 0.000000
vn 0.000000 -1.000000 0.000000
vn 0.444571 -0.887682 0.119902
vn 0.436235 -0.893477 -0.106761
vn 0.830108 0.268372 -0.488771
vn 0.858228 0.327600 0.395125
vn -0.543045 -0.833824 -0.099190
vn -0.548096 -0.834943 0.049605
vn -0.906949 0.295916 0.299796
vn -0.877089 0.368332 -0.308297
vn -0.557767 0.585037 0.588751
vn 0.579318 0.401261 0.709493
vn 0.722858 0.604374 -0.334975
vn -0.413889 0.788006 -0.455787
vn 0.401936 0.454440 -0.794941
vn 0.315020 -0.766899 -0.559132
vn 0.345027 -0.781543 0.519757
vn 0.372034 0.594199 0.713104
vn 0.635554 0.065299 0.769290
vn -0.801080 0.083816 0.592660
vn 0.676830 0.118212 -0.726586
vn -0.576225 0.133662 -0.806287
vn 0.623451 -0.228558 0.747710
vn -0.808482 -0.017221 0.588269
vn 0.808173 0.042918 -0.587379
vn -0.623208 0.252525 -0.740164
vn -0.615484 -0.202260 0.761755
vn -0.339486 -0.839890 0.423479
vn 0.556396 0.674098 0.485813
vn 0.550109 0.709295 -0.440773
vn -0.628846 0.636022 -0.447246
vn -0.632745 0.599815 0.489751
vn -0.487682 -0.632380 -0.601883
vn -0.478502 0.575105 -0.663543
vn 0.667379 0.323928 -0.670579
vn 0.713047 0.282848 0.641530
vn -0.705473 0.132652 -0.696212
vn -0.749940 0.097775 0.654240
vn 0.750907 0.191749 -0.631958
vn 0.739376 0.045688 0.671741
vn -0.787528 -0.012652 -0.616149
vn -0.756602 -0.132938 0.640219
vn -0.472834 0.817879 0.327875
vn 0.720351 0.562913 0.405245
vn 0.733117 0.346729 -0.585080
vn -0.469912 0.600968 -0.646545
vn 0.580148 0.667883 -0.466220
vn -0.586862 0.684316 -0.432786
vn -0.562253 0.680337 0.470120
vn 0.604027 0.666979 0.436222
vn 0.635207 0.735983 -0.234180
vn -0.595528 0.688858 -0.413305
vn -0.814835 0.036521 0.578541
vn 0.458226 0.234543 0.857332
vn -0.873869 0.034234 -0.484955
vn 0.865020 -0.063401 -0.497715
vn -0.701625 0.103557 0.704981
vn 0.785618 0.009061 0.618645
vn -0.790603 -0.040292 -0.611002
vn 0.748355 -0.060936 -0.660494
vn -0.754515 -0.052005 0.654219
vn 0.784019 -0.067505 0.617056
vn 0.777644 0.211953 0.591900
vn -0.685871 0.536310 0.491887
vn 0.782035 -0.019071 -0.622942
vn -0.650553 0.304533 -0.695730
vn 0.744289 -0.011272 0.667762
vn -0.746166 0.320979 0.583273
vn 0.738576 -0.274016 -0.615971
vn -0.706418 0.046486 -0.706267
vn -0.470296 0.863701 0.181227
vn 0.233155 0.962053 0.141751
vn -0.675434 0.026435 0.736947
vn 0.039442 0.437350 0.898426
vn -0.584427 0.444703 -0.678737
vn 0.740439 0.527081 -0.417055
vn -0.763132 -0.338540 0.550474
vn 0.524863 -0.147007 0.838396
s 1
g coral4_LP corals
usemtl initialShadingGroup
f 49/1/1 50/2/2 51/3/3 52/4/4
f 3/17/5 9/13/6 10/147/7 5/33/8
f 41/5/9 42/6/10 43/9/11 44/10/12
f 7/15/13 11/16/14 12/18/15 1/19/16
f 2/23/17 8/24/18 6/90/19 4/91/20
f 25/92/21 26/93/22 27/94/23 28/95/24
f 21/7/25 22/8/26 23/11/27 24/122/28
f 43/9/11 42/6/10 45/96/29 46/97/30
f 12/18/15 11/16/14 8/24/18 2/23/17
f 51/3/3 50/2/2 53/98/31 54/99/32
f 9/146/6 4/14/20 14/36/33 13/37/34
f 4/14/20 6/38/19 15/39/35 14/36/33
f 6/38/19 10/40/7 16/124/36 15/39/35
f 10/89/7 9/146/6 13/37/34 16/41/36
f 13/37/34 14/36/33 18/42/37 17/43/38
f 14/36/33 15/39/35 19/106/39 18/42/37
f 15/39/35 16/124/36 20/123/40 19/106/39
f 16/41/36 13/37/34 17/43/38 20/107/40
f 17/43/38 18/42/37 22/8/26 21/120/25
f 18/42/37 19/106/39 23/11/27 22/8/26
f 19/106/39 20/123/40 24/121/28 23/11/27
f 20/107/40 17/43/38 21/120/25 24/12/28
f 7/15/13 1/19/16 26/93/22 25/92/21
f 49/1/1 52/4/4 55/100/41 56/101/42
f 37/21/43 38/117/44 39/115/45 40/28/46
f 41/5/9 44/10/12 47/102/47 48/103/48
f 3/17/5 5/33/8 30/119/49 29/45/50
f 5/112/8 28/46/24 31/47/51 30/44/49
f 28/46/24 27/48/23 32/49/52 31/47/51
f 27/48/23 3/17/5 29/45/50 32/49/52
f 29/45/50 30/119/49 34/118/53 33/51/54
f 30/44/49 31/47/51 35/108/55 34/50/53
f 31/47/51 32/49/52 36/109/56 35/108/55
f 32/49/52 29/45/50 33/51/54 36/109/56
f 33/51/54 34/118/53 38/116/44 37/21/43
f 34/50/53 35/108/55 39/27/45 38/22/44
f 35/108/55 36/109/56 40/28/46 39/27/45
f 36/109/56 33/51/54 37/21/43 40/28/46
f 77/68/57 78/133/58 79/70/59 80/71/60
f 11/16/14 7/15/13 44/10/12 43/9/11
f 10/40/7 6/38/19 45/114/29 42/113/10
f 6/90/19 8/24/18 46/97/30 45/96/29
f 8/24/18 11/16/14 43/9/11 46/97/30
f 7/15/13 25/92/21 47/102/47 44/10/12
f 25/92/21 28/95/24 48/103/48 47/102/47
f 28/46/24 5/112/8 41/111/9 48/110/48
f 1/19/16 12/18/15 50/2/2 49/1/1
f 66/52/61 65/127/62 67/54/63 68/55/64
f 12/18/15 2/23/17 53/98/31 50/2/2
f 2/23/17 4/91/20 54/99/32 53/98/31
f 4/14/20 9/146/6 51/105/3 54/104/32
f 89/31/65 90/32/66 91/34/67 92/35/68
f 27/94/23 26/93/22 56/101/42 55/100/41
f 26/93/22 1/19/16 49/1/1 56/101/42
f 9/56/6 3/57/5 57/129/69 58/59/70
f 3/130/5 52/60/4 59/61/71 57/58/69
f 52/60/4 51/62/3 60/63/72 59/61/71
f 51/62/3 9/56/6 58/59/70 60/63/72
f 58/59/70 57/129/69 61/128/73 62/65/74
f 57/58/69 59/61/71 63/66/75 61/64/73
f 59/61/71 60/63/72 64/67/76 63/66/75
f 60/63/72 58/59/70 62/65/74 64/67/76
f 62/65/74 61/128/73 65/126/62 66/125/61
f 61/64/73 63/66/75 67/54/63 65/53/62
f 63/66/75 64/67/76 68/55/64 67/54/63
f 64/67/76 62/65/74 66/125/61 68/55/64
f 5/72/8 10/73/7 70/74/77 69/75/78
f 10/73/7 42/76/10 71/77/79 70/74/77
f 42/76/10 41/78/9 72/79/80 71/77/79
f 41/78/9 5/136/8 69/135/78 72/79/80
f 69/75/78 70/74/77 74/80/81 73/81/82
f 70/74/77 71/77/79 75/82/83 74/80/81
f 71/77/79 72/79/80 76/83/84 75/82/83
f 72/79/80 69/135/78 73/134/82 76/83/84
f 73/81/82 74/80/81 78/69/58 77/131/57
f 74/80/81 75/82/83 79/70/59 78/69/58
f 75/82/83 76/83/84 80/71/60 79/70/59
f 76/83/84 73/134/82 77/132/57 80/71/60
f 3/17/5 27/48/23 82/142/85 81/141/86
f 27/20/23 55/29/41 83/30/87 82/25/85
f 55/29/41 52/145/4 84/87/88 83/30/87
f 52/60/4 3/130/5 81/140/86 84/144/88
f 81/26/86 82/25/85 86/84/89 85/85/90
f 82/25/85 83/30/87 87/86/91 86/84/89
f 83/30/87 84/87/88 88/88/92 87/86/91
f 84/87/88 81/143/86 85/139/90 88/88/92
f 85/85/90 86/84/89 90/32/66 89/137/65
f 86/84/89 87/86/91 91/34/67 90/32/66
f 87/86/91 88/88/92 92/35/68 91/34/67
f 88/88/92 85/139/90 89/138/65 92/35/68
