# This file uses centimeters as units for non-parametric coordinates.

mtllib GateRightSocket.mtl
g default
v -0.267789 0.287994 0.093152
v 0.267789 0.284847 0.093152
v 0.267789 -0.283299 0.093152
v -0.267789 -0.287994 0.093152
v -0.351244 -0.000000 0.093152
v 0.351244 0.000511 0.093152
v -0.232497 -0.000000 0.093152
v 0.232497 0.000338 0.093152
v 0.177257 -0.193645 0.093152
v -0.177257 -0.196753 0.093152
v -0.177257 0.207973 0.093152
v 0.177257 0.205890 0.093152
v 0.178588 0.000260 -0.054323
v 0.136156 -0.150165 -0.054323
v -0.136156 -0.152552 -0.054323
v -0.178588 -0.000000 -0.054323
v -0.136156 0.144441 -0.054323
v 0.136156 0.142841 -0.054323
v 0.092323 0.000134 -0.155103
v 0.070388 -0.080587 -0.155103
v -0.070387 -0.081821 -0.155103
v -0.092323 -0.000000 -0.155103
v -0.070387 0.075698 -0.155103
v 0.070388 0.074871 -0.155103
v -0.291870 -0.000000 0.155103
v -0.222523 -0.242373 0.155103
v 0.222523 -0.238472 0.155103
v 0.291870 0.000425 0.155103
v 0.222523 0.245368 0.155103
v -0.222523 0.247983 0.155103
vt 0.406250 0.081250
vt 0.406250 0.090625
vt 0.406250 0.090625
vt 0.406250 0.081250
vt 0.421875 0.081250
vt 0.421875 0.081250
vt 0.421875 0.090625
vt 0.421875 0.090625
vt 0.406250 0.100000
vt 0.421875 0.100000
vt 0.421875 0.100000
vt 0.406250 0.100000
vt 0.000000 0.000000
vt 0.000000 1.000000
vt 1.000000 1.000000
vt 1.000000 0.000000
vt 0.000000 0.000000
vt 0.000000 1.000000
vt 1.000000 1.000000
vt 1.000000 0.000000
vt 0.000000 0.000000
vt 0.000000 1.000000
vt 1.000000 1.000000
vt 1.000000 0.000000
vt 0.000000 0.000000
vt 0.000000 1.000000
vt 1.000000 1.000000
vt 1.000000 0.000000
vt 0.000000 0.000000
vt 0.000000 1.000000
vt 1.000000 1.000000
vt 1.000000 0.000000
vt 0.000000 0.000000
vt 0.000000 1.000000
vt 1.000000 1.000000
vt 1.000000 0.000000
vt 0.000000 0.000000
vt 0.000000 1.000000
vt 1.000000 1.000000
vt 1.000000 0.000000
vt 0.000000 0.000000
vt 0.000000 1.000000
vt 1.000000 1.000000
vt 1.000000 0.000000
vt 0.000000 0.000000
vt 0.000000 1.000000
vt 1.000000 1.000000
vt 1.000000 0.000000
vt 0.000000 0.000000
vt 0.000000 1.000000
vt 1.000000 1.000000
vt 1.000000 0.000000
vt 0.000000 0.000000
vt 0.000000 1.000000
vt 1.000000 1.000000
vt 1.000000 0.000000
vt 0.000000 0.000000
vt 0.000000 1.000000
vt 1.000000 1.000000
vt 1.000000 0.000000
vt 0.421875 0.081250
vt 0.421875 0.090625
vt 0.406250 0.081250
vt 0.406250 0.090625
vt 0.406250 0.100000
vt 0.421875 0.100000
vn 0.309070 -0.091903 0.946588
vn 0.221033 -0.066429 0.973001
vn -0.710239 0.204414 0.673628
vn -0.710240 0.204415 0.673628
vn 0.004439 -0.506373 0.862303
vn 0.004404 -0.502393 0.864628
vn -0.007080 0.807674 0.589588
vn -0.007080 0.807673 0.589588
vn -0.218886 -0.064831 0.973594
vn -0.314449 -0.092087 0.944797
vn 0.710476 0.201575 0.674234
vn 0.710476 0.201575 0.674235
vn 0.003302 0.561888 0.827206
vn 0.003316 0.564267 0.825586
vn -0.004945 -0.841673 0.539965
vn -0.004945 -0.841673 0.539965
vn 0.207281 0.064919 0.976125
vn 0.274904 0.083911 0.957803
vn -0.716727 -0.198216 0.668590
vn -0.716727 -0.198216 0.668590
vn -0.279463 0.084074 0.956468
vn -0.206828 0.063923 0.976287
vn 0.717088 -0.195941 0.668873
vn 0.717088 -0.195941 0.668873
vn -0.908036 0.257514 0.330390
vn -0.908036 0.257514 0.330390
vn -0.908036 0.257514 0.330390
vn -0.908036 0.257514 0.330390
vn -0.008402 0.958508 0.284942
vn -0.008402 0.958508 0.284942
vn -0.008402 0.958508 0.284942
vn -0.008402 0.958508 0.284942
vn 0.908828 0.254126 0.330834
vn 0.908828 0.254126 0.330834
vn 0.908828 0.254126 0.330835
vn 0.908828 0.254126 0.330835
vn -0.005399 -0.918936 0.394369
vn -0.005399 -0.918936 0.394369
vn -0.005399 -0.918937 0.394369
vn -0.005399 -0.918937 0.394369
vn -0.903594 -0.253512 0.345324
vn -0.903594 -0.253512 0.345324
vn -0.903594 -0.253512 0.345324
vn -0.903594 -0.253512 0.345324
vn 0.904395 -0.250655 0.345314
vn 0.904395 -0.250655 0.345314
vn 0.904395 -0.250655 0.345314
vn 0.904395 -0.250655 0.345314
vn -0.745263 0.207534 0.633650
vn -0.745263 0.207534 0.633650
vn -0.745263 0.207534 0.633650
vn -0.745263 0.207534 0.633650
vn -0.007194 0.820706 0.571305
vn -0.007194 0.820706 0.571305
vn -0.007194 0.820706 0.571305
vn -0.007194 0.820706 0.571305
vn 0.745552 0.204757 0.634213
vn 0.745552 0.204757 0.634213
vn 0.745552 0.204757 0.634213
vn 0.745552 0.204757 0.634214
vn -0.004863 -0.827578 0.561329
vn -0.004863 -0.827578 0.561329
vn -0.004863 -0.827578 0.561329
vn -0.004863 -0.827578 0.561329
vn -0.741729 -0.219693 0.633698
vn -0.741729 -0.219693 0.633698
vn -0.741729 -0.219693 0.633698
vn -0.741729 -0.219693 0.633698
vn 0.742306 -0.217045 0.633935
vn 0.742306 -0.217045 0.633935
vn 0.742306 -0.217045 0.633935
vn 0.742306 -0.217045 0.633935
vn -0.000000 0.000000 1.000000
vn -0.000000 0.000000 1.000000
vn -0.000000 0.000000 1.000000
vn -0.000000 0.000000 1.000000
vn -0.000000 0.000000 1.000000
vn -0.000000 0.000000 1.000000
vn -0.709477 -0.204405 0.674434
vn -0.709477 -0.204405 0.674434
vn 0.007080 -0.807674 0.589588
vn 0.007080 -0.807674 0.589588
vn 0.709217 -0.207324 0.673816
vn 0.709217 -0.207324 0.673816
vn 0.714145 0.206171 0.668947
vn 0.714145 0.206171 0.668947
vn 0.004945 0.841673 0.539965
vn 0.004945 0.841673 0.539966
vn -0.714565 0.203715 0.669252
vn -0.714565 0.203715 0.669252
s 1
g Treasure2 polySurface2 SkullGateCombined
usemtl initialShadingGroup
f 27/1/1 28/2/2 8/3/3 9/4/4
s 2
f 26/5/5 27/1/6 9/4/7 10/6/8
s 3
f 25/7/9 26/5/10 10/6/11 7/8/12
s 4
f 29/9/13 30/10/14 11/11/15 12/12/16
s 5
f 28/2/17 29/9/18 12/12/19 8/3/20
s 6
f 30/10/21 25/7/22 7/8/23 11/11/24
s off
f 8/13/25 13/14/26 14/15/27 9/16/28
f 9/17/29 14/18/30 15/19/31 10/20/32
f 10/21/33 15/22/34 16/23/35 7/24/36
f 11/25/37 17/26/38 18/27/39 12/28/40
f 12/29/41 18/30/42 13/31/43 8/32/44
f 7/33/45 16/34/46 17/35/47 11/36/48
f 13/37/49 19/38/50 20/39/51 14/40/52
f 14/41/53 20/42/54 21/43/55 15/44/56
f 15/45/57 21/46/58 22/47/59 16/48/60
f 17/49/61 23/50/62 24/51/63 18/52/64
f 18/53/65 24/54/66 19/55/67 13/56/68
f 16/57/69 22/58/70 23/59/71 17/60/72
f 20/42/73 19/38/74 24/54/75 23/50/76 22/58/77 21/46/78
s 3
f 4/61/79 26/5/10 25/7/9 5/62/80
s 2
f 3/63/81 27/1/6 26/5/5 4/61/82
s 1
f 6/64/83 28/2/2 27/1/1 3/63/84
s 5
f 2/65/85 29/9/18 28/2/17 6/64/86
s 4
f 1/66/87 30/10/14 29/9/13 2/65/88
s 6
f 5/62/89 25/7/22 30/10/21 1/66/90
