# This file uses centimeters as units for non-parametric coordinates.

mtllib deckFront.mtl
g default
v -1.981338 -0.186634 1.462677
v -1.981338 -0.149311 1.500000
v -2.018661 -0.149311 1.462677
v 2.018661 -0.149311 1.462677
v 1.981339 -0.149311 1.500000
v 1.981338 -0.186634 1.462677
v -2.018661 0.149311 1.462677
v -1.981338 0.149311 1.500000
v -1.981338 0.186634 1.462677
v 1.981338 0.186634 1.462677
v 1.981338 0.149311 1.500000
v 2.018661 0.149311 1.462677
v -3.018662 0.149311 -1.462677
v -2.981339 0.186634 -1.462677
v -2.981339 0.149311 -1.500000
v 2.981339 0.149311 -1.500000
v 2.981339 0.186634 -1.462677
v 3.018661 0.149311 -1.462677
v -3.018662 -0.149311 -1.462677
v -2.981339 -0.149311 -1.500000
v -2.981339 -0.186634 -1.462677
v 2.981339 -0.186634 -1.462677
v 2.981339 -0.149311 -1.500000
v 3.018661 -0.149311 -1.462677
vt 0.929021 0.793504
vt 0.929936 0.801445
vt 0.496248 0.949548
vt 0.495399 0.941804
vt 0.939210 0.799757
vt 0.944122 0.843518
vt 0.510510 0.991359
vt 0.488812 0.951220
vt 0.951552 0.841653
vt 0.948295 0.850127
vt 0.514570 0.998008
vt 0.503601 0.994579
vt 0.929670 0.198507
vt 0.928939 0.206289
vt 0.495447 0.058160
vt 0.496302 0.050420
vt 0.936952 0.201370
vt 0.488870 0.048746
vt 0.510585 0.008636
vt 0.943967 0.156652
vt 0.951477 0.158834
vt 0.503679 0.005415
vt 0.948149 0.150049
vt 0.514647 0.001992
vt 0.001974 0.793582
vt 0.002007 0.206331
vt 0.435548 0.058156
vt 0.435497 0.941802
vt 0.936843 0.793503
vt 0.936761 0.206288
vt 0.981015 0.206282
vt 0.981095 0.793497
vt 0.988916 0.793496
vt 0.988837 0.206281
vt 0.443319 0.941802
vt 0.443370 0.058156
vt 0.487625 0.058159
vt 0.487576 0.941804
vn -0.005258 -0.999935 0.010121
vn -0.687044 -0.687040 0.236529
vn -0.688047 -0.688044 0.230622
vn -0.010630 -0.999827 -0.015241
vn -0.002213 -0.707107 0.707103
vn 0.005258 -0.999935 0.010121
vn 0.002213 -0.707107 0.707103
vn -0.943820 0.000000 0.330460
vn -0.009330 0.000000 0.999956
vn -0.009330 0.000000 0.999956
vn -0.943820 0.000000 0.330460
vn 0.687044 -0.687041 0.236529
vn 0.010630 -0.999827 -0.015241
vn 0.688047 -0.688044 0.230622
vn 0.009330 0.000000 0.999956
vn 0.943820 0.000000 0.330460
vn 0.943820 0.000000 0.330460
vn 0.009330 0.000000 0.999956
vn -0.687044 0.687041 0.236529
vn -0.005258 0.999935 0.010121
vn -0.010630 0.999827 -0.015241
vn -0.688047 0.688044 0.230622
vn -0.002213 0.707107 0.707103
vn 0.002213 0.707107 0.707103
vn 0.005258 0.999935 0.010121
vn 0.687044 0.687041 0.236529
vn 0.688047 0.688044 0.230622
vn 0.010630 0.999827 -0.015241
vn -0.951052 0.000000 0.309030
vn -0.006220 0.000000 -0.999981
vn -0.006220 0.000000 -0.999981
vn -0.951052 0.000000 0.309030
vn -0.001472 0.707108 -0.707104
vn 0.001472 0.707108 -0.707104
vn 0.006220 0.000000 -0.999981
vn 0.951052 0.000000 0.309030
vn 0.951052 0.000000 0.309030
vn 0.006220 0.000000 -0.999981
vn -0.001472 -0.707108 -0.707104
vn 0.001472 -0.707108 -0.707104
s 1
g deckFront
usemtl initialShadingGroup
f 1/1/1 3/2/2 19/3/3 21/4/4
f 2/29/5 1/1/1 6/14/6 5/30/7
s 2
f 3/2/8 2/5/9 8/9/10 7/6/11
s 1
f 4/13/12 6/14/6 22/15/13 24/16/14
s 2
f 5/17/15 4/13/16 12/20/17 11/21/18
s 4
f 7/6/19 9/10/20 14/11/21 13/7/22
f 9/33/20 8/32/23 11/31/24 10/34/25
f 10/23/25 12/20/26 18/19/27 17/24/28
s 2
f 13/7/29 15/12/30 20/8/31 19/3/32
s 4
f 15/35/33 14/28/21 17/27/28 16/36/34
s 2
f 16/22/35 18/19/36 24/16/37 23/18/38
s 1
f 21/4/4 20/38/39 23/37/40 22/15/13
s 2
f 2/29/9 5/30/15 11/31/18 8/32/10
s 4
f 9/25/20 10/26/25 17/27/28 14/28/21
s 2
f 15/35/30 16/36/35 23/37/38 20/38/31
s 1
f 21/4/4 22/15/13 6/14/6 1/1/1
s 2
f 4/13/16 24/16/37 18/19/36 12/20/17
f 19/3/32 3/2/8 7/6/11 13/7/29
s 1
f 1/1/1 2/5/5 3/2/2
f 4/13/12 5/17/7 6/14/6
s 4
f 7/6/19 8/9/23 9/10/20
f 10/23/25 11/21/24 12/20/26
f 13/7/22 14/11/21 15/12/33
f 16/22/34 17/24/28 18/19/27
s 1
f 19/3/3 20/8/39 21/4/4
f 22/15/13 23/18/40 24/16/14
