# This file uses centimeters as units for non-parametric coordinates.

mtllib plankSideDmg.mtl
g default
v -1.454421 -0.124728 -0.943948
v -1.454421 -0.088354 -0.907574
v -1.491533 -0.088354 -0.943948
v 1.491533 -0.088354 -0.943948
v 1.454421 -0.088354 -0.907574
v 1.454421 -0.124728 -0.943948
v -1.491533 0.088352 -0.943948
v -1.454421 0.088352 -0.907574
v -1.454421 0.124726 -0.943948
v 1.454421 0.124726 -0.943948
v 1.454421 0.088352 -0.907574
v 1.491533 0.088352 -0.943948
v -1.491533 0.088352 -1.460954
v -1.454421 0.124726 -1.460954
v -1.454421 0.088352 -1.497328
v 1.454421 0.088352 -1.497328
v 1.454421 0.124726 -1.460954
v 1.491533 0.088352 -1.460954
v -1.491533 -0.088354 -1.460954
v -1.454421 -0.088354 -1.497328
v -1.454421 -0.124728 -1.460954
v 1.454421 -0.124728 -1.460954
v 1.454421 -0.088354 -1.497328
v 1.491533 -0.088354 -1.460954
v -0.447555 -0.124726 -0.341623
v -0.447556 -0.088352 -0.305249
v -0.484668 -0.088352 -0.341623
v 1.491533 -0.088352 -0.341623
v 1.454421 -0.088352 -0.305249
v 1.454421 -0.124726 -0.341623
v -0.484668 0.088354 -0.341623
v -0.447556 0.088354 -0.305249
v -0.447555 0.124728 -0.341623
v 1.454421 0.124728 -0.341623
v 1.454421 0.088354 -0.305249
v 1.491533 0.088354 -0.341623
v -0.368613 0.088354 -0.858628
v -0.331501 0.124728 -0.858628
v -0.331501 0.088354 -0.895002
v 1.427821 0.088354 -0.895002
v 1.427821 0.124728 -0.858628
v 1.464934 0.088354 -0.858628
v -0.368613 -0.088352 -0.858628
v -0.331501 -0.088352 -0.895002
v -0.331501 -0.124726 -0.858628
v 1.427821 -0.124726 -0.858628
v 1.427821 -0.088352 -0.895002
v 1.464934 -0.088352 -0.858628
v -1.339466 -0.124726 0.259219
v -1.339466 -0.088352 0.295593
v -1.376579 -0.088352 0.259219
v 1.491533 -0.088352 0.259219
v 1.454421 -0.088352 0.295593
v 1.454421 -0.124726 0.259219
v -1.376579 0.088354 0.259219
v -1.339466 0.088354 0.295593
v -1.339466 0.124728 0.259219
v 1.454421 0.124728 0.259219
v 1.454421 0.088354 0.295593
v 1.491533 0.088354 0.259219
v -1.376579 0.088354 -0.257787
v -1.339466 0.124728 -0.257787
v -1.339466 0.088354 -0.294161
v 1.454421 0.088354 -0.294161
v 1.454421 0.124728 -0.257787
v 1.491533 0.088354 -0.257787
v -1.376579 -0.088352 -0.257787
v -1.339466 -0.088352 -0.294161
v -1.339466 -0.124726 -0.257787
v 1.454421 -0.124726 -0.257787
v 1.454421 -0.088352 -0.294161
v 1.491533 -0.088352 -0.257787
v -1.068492 -0.124726 0.862466
v -1.068493 -0.088352 0.898840
v -1.105605 -0.088352 0.862466
v 1.376727 -0.088352 0.862466
v 1.339615 -0.088352 0.898840
v 1.339615 -0.124726 0.862466
v -1.105605 0.088354 0.862466
v -1.068493 0.088354 0.898840
v -1.068492 0.124728 0.862466
v 1.339615 0.124728 0.862466
v 1.339615 0.088354 0.898840
v 1.376727 0.088354 0.862466
v -1.053790 0.088354 0.345461
v -1.016678 0.124728 0.345461
v -1.016678 0.088354 0.309087
v 1.369827 0.088354 0.309087
v 1.369827 0.124728 0.345461
v 1.406939 0.088354 0.345461
v -1.053790 -0.088352 0.345461
v -1.016678 -0.088352 0.309087
v -1.016678 -0.124726 0.345461
v 1.369827 -0.124726 0.345461
v 1.369827 -0.088352 0.309087
v 1.406939 -0.088352 0.345461
v -1.454421 -0.124728 0.943948
v -1.454421 -0.088354 0.907574
v -1.491533 -0.088354 0.943948
v 1.491533 -0.088354 0.943948
v 1.454421 -0.088354 0.907574
v 1.454421 -0.124728 0.943948
v -1.491533 0.088352 0.943948
v -1.454421 0.088352 0.907574
v -1.454421 0.124726 0.943948
v 1.454421 0.124726 0.943948
v 1.454421 0.088352 0.907574
v 1.491533 0.088352 0.943948
v -1.491533 0.088352 1.460954
v -1.454421 0.124726 1.460954
v -1.454421 0.088352 1.497328
v 1.454421 0.088352 1.497328
v 1.454421 0.124726 1.460954
v 1.491533 0.088352 1.460954
v -1.491533 -0.088354 1.460954
v -1.454421 -0.088354 1.497328
v -1.454421 -0.124728 1.460954
v 1.454421 -0.124728 1.460954
v 1.454421 -0.088354 1.497328
v 1.491533 -0.088354 1.460954
vt 0.045944 0.496629
vt 0.046773 0.488284
vt 0.126800 0.487987
vt 0.127251 0.495948
vt 0.039810 0.487985
vt 0.047110 0.461446
vt 0.126577 0.460977
vt 0.134708 0.488760
vt 0.039540 0.460660
vt 0.046741 0.453543
vt 0.126864 0.453034
vt 0.134457 0.460074
vt 0.051193 0.962724
vt 0.050694 0.954682
vt 0.131961 0.953831
vt 0.131639 0.961870
vt 0.043216 0.962000
vt 0.139591 0.960965
vt 0.131827 0.989122
vt 0.051619 0.989994
vt 0.043673 0.990958
vt 0.139796 0.989902
vt 0.051373 0.998008
vt 0.132252 0.997128
vt 0.043784 0.002514
vt 0.123949 0.001992
vt 0.037844 0.496713
vt 0.042593 0.954767
vt 0.014763 0.955061
vt 0.010016 0.496999
vt 0.001917 0.497085
vt 0.006662 0.955146
vt 0.163164 0.495577
vt 0.171261 0.495492
vt 0.175976 0.953385
vt 0.167878 0.953468
vt 0.140060 0.953748
vt 0.135349 0.495864
vt 0.763585 0.314175
vt 0.765076 0.307244
vt 0.844850 0.323253
vt 0.844869 0.331327
vt 0.755472 0.314291
vt 0.767799 0.614177
vt 0.759683 0.614293
vt 0.759637 0.308611
vt 0.762388 0.279825
vt 0.769842 0.281669
vt 0.768453 0.622214
vt 0.849150 0.608802
vt 0.849014 0.616909
vt 0.760436 0.621876
vt 0.770324 0.649463
vt 0.762455 0.650910
vt 0.772015 0.274129
vt 0.852804 0.289129
vt 0.849883 0.296585
vt 0.719482 0.314792
vt 0.727595 0.314678
vt 0.731801 0.614689
vt 0.723684 0.614803
vt 0.770772 0.657478
vt 0.850699 0.644281
vt 0.851829 0.652264
vt 0.857883 0.297457
vt 0.852619 0.325369
vt 0.880852 0.330775
vt 0.888966 0.330651
vt 0.893267 0.608123
vt 0.885155 0.608248
vt 0.858755 0.644606
vt 0.857010 0.615632
vt 0.852983 0.331203
vt 0.857269 0.608678
vt 0.888133 0.002725
vt 0.960286 0.038095
vt 0.405748 0.480411
vt 0.406642 0.472184
vt 0.486606 0.472092
vt 0.487035 0.480061
vt 0.397646 0.480460
vt 0.408428 0.920391
vt 0.400327 0.920443
vt 0.399858 0.472111
vt 0.399374 0.444702
vt 0.406969 0.445439
vt 0.408884 0.928433
vt 0.489701 0.919890
vt 0.489347 0.927936
vt 0.400897 0.927659
vt 0.409181 0.955725
vt 0.401222 0.956657
vt 0.406589 0.437547
vt 0.486731 0.437120
vt 0.486416 0.445070
vt 0.361715 0.480677
vt 0.369817 0.480629
vt 0.372495 0.920621
vt 0.364392 0.920673
vt 0.408902 0.963740
vt 0.489416 0.955220
vt 0.489804 0.963232
vt 0.494315 0.444179
vt 0.494529 0.472882
vt 0.522952 0.479843
vt 0.531052 0.479794
vt 0.533724 0.919623
vt 0.525624 0.919672
vt 0.497387 0.956038
vt 0.497299 0.927076
vt 0.495134 0.480012
vt 0.497800 0.919841
vt 0.404142 0.004282
vt 0.484322 0.003834
vt 0.584643 0.414662
vt 0.585777 0.407004
vt 0.665633 0.413455
vt 0.665955 0.421476
vt 0.576535 0.414812
vt 0.591366 0.794027
vt 0.583268 0.794174
vt 0.579595 0.407547
vt 0.580350 0.379481
vt 0.587907 0.380674
vt 0.591745 0.802106
vt 0.672738 0.797315
vt 0.672325 0.805347
vt 0.583724 0.801061
vt 0.590791 0.829421
vt 0.582791 0.829939
vt 0.588624 0.372833
vt 0.669020 0.378576
vt 0.667578 0.386434
vt 0.540598 0.415456
vt 0.548700 0.415312
vt 0.555444 0.794674
vt 0.547344 0.794819
vt 0.589832 0.837402
vt 0.671152 0.832566
vt 0.670870 0.840578
vt 0.675564 0.386258
vt 0.673527 0.414767
vt 0.701885 0.420827
vt 0.709986 0.420680
vt 0.716766 0.796524
vt 0.708666 0.796670
vt 0.679032 0.833795
vt 0.680293 0.804795
vt 0.674057 0.421330
vt 0.680840 0.797168
vt 0.652184 0.004538
vt 0.732048 0.013565
vt 0.308299 0.493071
vt 0.226951 0.494023
vt 0.227346 0.486104
vt 0.306568 0.486239
vt 0.316423 0.492997
vt 0.320587 0.952312
vt 0.312465 0.952385
vt 0.306485 0.459423
vt 0.314226 0.458564
vt 0.314346 0.486616
vt 0.312136 0.960463
vt 0.231421 0.961196
vt 0.230956 0.953117
vt 0.320131 0.959570
vt 0.320303 0.988654
vt 0.312299 0.987849
vt 0.227446 0.459212
vt 0.227107 0.451298
vt 0.306857 0.451547
vt 0.352447 0.492670
vt 0.356615 0.951986
vt 0.348492 0.952060
vt 0.344325 0.492744
vt 0.312708 0.995899
vt 0.231495 0.996649
vt 0.231753 0.988600
vt 0.219497 0.486913
vt 0.219588 0.458354
vt 0.190951 0.494331
vt 0.194939 0.953437
vt 0.186819 0.953509
vt 0.182832 0.494400
vt 0.223757 0.989554
vt 0.223390 0.960436
vt 0.222836 0.953190
vt 0.218834 0.494092
vt 0.228653 0.002326
vt 0.308445 0.002603
vn -0.011788 -0.997811 0.065074
vn -0.699874 -0.714083 0.016185
vn -0.699874 -0.714083 -0.016185
vn -0.011788 -0.997811 -0.065074
vn -0.002951 -0.707104 0.707103
vn 0.011788 -0.997811 0.065074
vn 0.002951 -0.707104 0.707103
vn -0.997759 0.000000 0.066914
vn -0.012346 0.000000 0.999924
vn -0.012346 0.000000 0.999924
vn -0.997759 0.000000 0.066914
vn 0.699874 -0.714083 0.016185
vn 0.011788 -0.997811 -0.065074
vn 0.699874 -0.714083 -0.016185
vn 0.012346 0.000000 0.999924
vn 0.997759 0.000000 0.066915
vn 0.997759 0.000000 0.066915
vn 0.012346 0.000000 0.999924
vn -0.699874 0.714083 0.016185
vn -0.011788 0.997811 0.065074
vn -0.011788 0.997811 -0.065074
vn -0.699874 0.714083 -0.016185
vn -0.002951 0.707104 0.707103
vn 0.002951 0.707104 0.707103
vn 0.011788 0.997811 0.065074
vn 0.699874 0.714083 0.016185
vn 0.699874 0.714083 -0.016185
vn 0.011788 0.997811 -0.065074
vn -0.997759 0.000000 -0.066915
vn -0.012346 0.000000 -0.999924
vn -0.012346 0.000000 -0.999924
vn -0.997759 0.000000 -0.066915
vn -0.002951 0.707103 -0.707105
vn 0.002951 0.707103 -0.707105
vn 0.012346 0.000000 -0.999924
vn 0.997759 0.000000 -0.066915
vn 0.997759 0.000000 -0.066915
vn 0.012346 0.000000 -0.999924
vn -0.002951 -0.707103 -0.707105
vn 0.002951 -0.707103 -0.707105
vn -0.023303 -0.997156 0.071678
vn -0.693650 -0.707735 -0.134017
vn -0.690220 -0.704235 -0.166278
vn -0.014930 -0.998166 -0.058663
vn -0.004503 -0.707100 0.707099
vn 0.019546 -0.997484 0.068149
vn 0.004503 -0.707100 0.707099
vn -0.989978 0.000000 -0.141225
vn -0.018755 0.000000 0.999824
vn -0.018755 0.000000 0.999824
vn -0.989978 0.000000 -0.141225
vn 0.699844 -0.714053 -0.018609
vn 0.017698 -0.997948 -0.061528
vn 0.699055 -0.713248 -0.050974
vn 0.018755 0.000000 0.999824
vn 0.999820 0.000000 0.018994
vn 0.999820 0.000000 0.018994
vn 0.018755 0.000000 0.999824
vn -0.693650 0.707735 -0.134017
vn -0.023303 0.997156 0.071678
vn -0.014930 0.998166 -0.058663
vn -0.690220 0.704235 -0.166278
vn -0.004503 0.707100 0.707099
vn 0.004503 0.707100 0.707099
vn 0.019546 0.997484 0.068148
vn 0.699844 0.714053 -0.018609
vn 0.699055 0.713248 -0.050974
vn 0.017698 0.997948 -0.061528
vn -0.963764 0.000000 -0.266755
vn -0.020244 0.000000 -0.999795
vn -0.020244 0.000000 -0.999795
vn -0.963764 0.000000 -0.266755
vn -0.004866 0.707099 -0.707098
vn 0.004866 0.707099 -0.707098
vn 0.020244 0.000000 -0.999795
vn 0.993437 0.000000 -0.114378
vn 0.993437 0.000000 -0.114378
vn 0.020244 0.000000 -0.999795
vn -0.004866 -0.707099 -0.707098
vn 0.004866 -0.707099 -0.707098
vn -0.012267 -0.997806 0.065053
vn -0.699874 -0.714083 0.016185
vn -0.699874 -0.714083 -0.016185
vn -0.012267 -0.997806 -0.065052
vn -0.003072 -0.707103 0.707104
vn 0.012267 -0.997806 0.065053
vn 0.003072 -0.707103 0.707104
vn -0.997759 0.000000 0.066914
vn -0.012847 0.000000 0.999918
vn -0.012847 0.000000 0.999918
vn -0.997759 0.000000 0.066914
vn 0.699874 -0.714083 0.016185
vn 0.012267 -0.997806 -0.065052
vn 0.699874 -0.714083 -0.016185
vn 0.012847 0.000000 0.999918
vn 0.997759 0.000000 0.066915
vn 0.997759 0.000000 0.066915
vn 0.012847 0.000000 0.999918
vn -0.699874 0.714083 0.016185
vn -0.012267 0.997806 0.065053
vn -0.012267 0.997806 -0.065052
vn -0.699874 0.714083 -0.016185
vn -0.003072 0.707103 0.707104
vn 0.003072 0.707103 0.707104
vn 0.012267 0.997806 0.065052
vn 0.699874 0.714083 0.016185
vn 0.699874 0.714083 -0.016185
vn 0.012267 0.997806 -0.065052
vn -0.997759 0.000000 -0.066915
vn -0.012847 0.000000 -0.999918
vn -0.012847 0.000000 -0.999918
vn -0.997759 0.000000 -0.066915
vn -0.003072 0.707103 -0.707104
vn 0.003072 0.707103 -0.707104
vn 0.012847 0.000000 -0.999918
vn 0.997759 0.000000 -0.066915
vn 0.997759 0.000000 -0.066915
vn 0.012847 0.000000 -0.999918
vn -0.003072 -0.707103 -0.707104
vn 0.003072 -0.707103 -0.707104
vn -0.015806 -0.997582 0.067681
vn -0.699037 -0.713230 -0.051480
vn -0.697501 -0.711663 -0.083832
vn -0.012894 -0.997967 -0.062422
vn -0.003562 -0.707102 0.707102
vn 0.013439 -0.997867 0.063874
vn 0.003562 -0.707102 0.707102
vn -0.999647 0.000000 -0.026559
vn -0.014874 0.000000 0.999889
vn -0.014874 0.000000 0.999889
vn -0.999647 0.000000 -0.026559
vn 0.698879 -0.713068 0.055691
vn 0.015152 -0.997699 -0.066086
vn 0.699775 -0.713983 0.023328
vn 0.014874 0.000000 0.999889
vn 0.992681 0.000000 0.120770
vn 0.992681 0.000000 0.120770
vn 0.014874 0.000000 0.999889
vn -0.699037 0.713230 -0.051480
vn -0.015806 0.997582 0.067681
vn -0.012894 0.997967 -0.062422
vn -0.697501 0.711663 -0.083832
vn -0.003562 0.707102 0.707102
vn 0.003562 0.707102 0.707102
vn 0.013439 0.997868 0.063874
vn 0.698879 0.713068 0.055692
vn 0.699775 0.713983 0.023328
vn 0.015152 0.997699 -0.066086
vn -0.987333 0.000000 -0.158663
vn -0.015007 0.000000 -0.999887
vn -0.015007 0.000000 -0.999887
vn -0.987333 0.000000 -0.158663
vn -0.003594 0.707102 -0.707102
vn 0.003594 0.707102 -0.707102
vn 0.015007 0.000000 -0.999887
vn 0.999922 0.000000 -0.012469
vn 0.999922 0.000000 -0.012469
vn 0.015007 0.000000 -0.999887
vn -0.003594 -0.707102 -0.707102
vn 0.003594 -0.707102 -0.707102
vn -0.011788 -0.997811 -0.065074
vn -0.011788 -0.997811 0.065074
vn -0.699873 -0.714084 0.016185
vn -0.699873 -0.714084 -0.016185
vn -0.002951 -0.707103 -0.707105
vn 0.002951 -0.707103 -0.707105
vn 0.011788 -0.997811 -0.065074
vn -0.997759 0.000000 -0.066914
vn -0.997759 0.000000 -0.066914
vn -0.012346 0.000000 -0.999924
vn -0.012346 0.000000 -0.999924
vn 0.699873 -0.714084 -0.016185
vn 0.699873 -0.714084 0.016185
vn 0.011788 -0.997811 0.065074
vn 0.012346 0.000000 -0.999924
vn 0.012346 0.000000 -0.999924
vn 0.997759 0.000000 -0.066915
vn 0.997759 0.000000 -0.066915
vn -0.699873 0.714084 -0.016185
vn -0.699873 0.714084 0.016185
vn -0.011788 0.997811 0.065074
vn -0.011788 0.997811 -0.065074
vn 0.011788 0.997811 -0.065074
vn 0.002951 0.707103 -0.707105
vn -0.002951 0.707103 -0.707105
vn 0.011788 0.997811 0.065074
vn 0.699873 0.714084 0.016185
vn 0.699873 0.714084 -0.016185
vn -0.997759 0.000000 0.066915
vn -0.997759 0.000000 0.066915
vn -0.012346 0.000000 0.999924
vn -0.012346 0.000000 0.999924
vn -0.002951 0.707104 0.707103
vn 0.002951 0.707104 0.707103
vn 0.012346 0.000000 0.999924
vn 0.012346 0.000000 0.999924
vn 0.997759 0.000000 0.066915
vn 0.997759 0.000000 0.066915
vn 0.002951 -0.707104 0.707103
vn -0.002951 -0.707104 0.707103
s 1
g plankSideDmg
usemtl initialShadingGroup
f 1/1/1 3/2/2 19/3/3 21/4/4
f 2/27/5 1/1/1 6/14/6 5/28/7
s 2
f 3/2/8 2/5/9 8/9/10 7/6/11
s 1
f 4/13/12 6/14/6 22/15/13 24/16/14
s 2
f 5/17/15 4/13/16 12/20/17 11/21/18
s 4
f 7/6/19 9/10/20 14/11/21 13/7/22
f 9/31/20 8/30/23 11/29/24 10/32/25
f 10/23/25 12/20/26 18/19/27 17/24/28
s 2
f 13/7/29 15/12/30 20/8/31 19/3/32
s 4
f 15/33/33 14/34/21 17/35/28 16/36/34
s 2
f 16/22/35 18/19/36 24/16/37 23/18/38
s 1
f 21/4/4 20/38/39 23/37/40 22/15/13
s 2
f 2/27/9 5/28/15 11/29/18 8/30/10
s 4
f 9/10/20 10/25/25 17/26/28 14/11/21
s 2
f 15/33/30 16/36/35 23/37/38 20/38/31
s 1
f 21/4/4 22/15/13 6/14/6 1/1/1
s 2
f 4/13/16 24/16/37 18/19/36 12/20/17
f 19/3/32 3/2/8 7/6/11 13/7/29
s 1
f 1/1/1 2/5/5 3/2/2
f 4/13/12 5/17/7 6/14/6
s 4
f 7/6/19 8/9/23 9/10/20
f 10/23/25 11/21/24 12/20/26
f 13/7/22 14/11/21 15/12/33
f 16/22/34 17/24/28 18/19/27
s 1
f 19/3/3 20/8/39 21/4/4
f 22/15/13 23/18/40 24/16/14
s 6
f 25/39/41 27/40/42 43/41/43 45/42/44
f 26/43/45 25/39/41 30/44/46 29/45/47
s 7
f 27/40/48 26/46/49 32/47/50 31/48/51
s 6
f 28/49/52 30/44/46 46/50/53 48/51/54
s 7
f 29/52/55 28/49/56 36/53/57 35/54/58
s 9
f 31/48/59 33/55/60 38/56/61 37/57/62
f 33/58/60 32/59/63 35/60/64 34/61/65
f 34/62/65 36/53/66 42/63/67 41/64/68
s 7
f 37/57/69 39/65/70 44/66/71 43/41/72
s 9
f 39/67/73 38/68/61 41/69/68 40/70/74
s 7
f 40/71/75 42/63/76 48/51/77 47/72/78
s 6
f 45/42/44 44/73/79 47/74/80 46/50/53
s 7
f 26/43/49 29/45/55 35/60/58 32/59/50
s 9
f 33/55/60 34/75/65 41/76/68 38/56/61
s 7
f 39/67/70 40/70/75 47/74/78 44/73/71
s 6
f 45/42/44 46/50/53 30/44/46 25/39/41
s 7
f 28/49/56 48/51/77 42/63/76 36/53/57
f 43/41/72 27/40/48 31/48/51 37/57/69
s 6
f 25/39/41 26/46/45 27/40/42
f 28/49/52 29/52/47 30/44/46
s 9
f 31/48/59 32/47/63 33/55/60
f 34/62/65 35/54/64 36/53/66
f 37/57/62 38/56/61 39/65/73
f 40/71/74 41/64/68 42/63/67
s 6
f 43/41/43 44/66/79 45/42/44
f 46/50/53 47/72/80 48/51/54
s 11
f 49/77/81 51/78/82 67/79/83 69/80/84
f 50/81/85 49/77/81 54/82/86 53/83/87
s 12
f 51/78/88 50/84/89 56/85/90 55/86/91
s 11
f 52/87/92 54/82/86 70/88/93 72/89/94
s 12
f 53/90/95 52/87/96 60/91/97 59/92/98
s 14
f 55/86/99 57/93/100 62/94/101 61/95/102
f 57/96/100 56/97/103 59/98/104 58/99/105
f 58/100/105 60/91/106 66/101/107 65/102/108
s 12
f 61/95/109 63/103/110 68/104/111 67/79/112
s 14
f 63/105/113 62/106/101 65/107/108 64/108/114
s 12
f 64/109/115 66/101/116 72/89/117 71/110/118
s 11
f 69/80/84 68/111/119 71/112/120 70/88/93
s 12
f 50/81/89 53/83/95 59/98/98 56/97/90
s 14
f 57/93/100 58/113/105 65/114/108 62/94/101
s 12
f 63/105/110 64/108/115 71/112/118 68/111/111
s 11
f 69/80/84 70/88/93 54/82/86 49/77/81
s 12
f 52/87/96 72/89/117 66/101/116 60/91/97
f 67/79/112 51/78/88 55/86/91 61/95/109
s 11
f 49/77/81 50/84/85 51/78/82
f 52/87/92 53/90/87 54/82/86
s 14
f 55/86/99 56/85/103 57/93/100
f 58/100/105 59/92/104 60/91/106
f 61/95/102 62/94/101 63/103/113
f 64/109/114 65/102/108 66/101/107
s 11
f 67/79/83 68/104/119 69/80/84
f 70/88/93 71/110/120 72/89/94
s 16
f 73/115/121 75/116/122 91/117/123 93/118/124
f 74/119/125 73/115/121 78/120/126 77/121/127
s 17
f 75/116/128 74/122/129 80/123/130 79/124/131
s 16
f 76/125/132 78/120/126 94/126/133 96/127/134
s 17
f 77/128/135 76/125/136 84/129/137 83/130/138
s 19
f 79/124/139 81/131/140 86/132/141 85/133/142
f 81/134/140 80/135/143 83/136/144 82/137/145
f 82/138/145 84/129/146 90/139/147 89/140/148
s 17
f 85/133/149 87/141/150 92/142/151 91/117/152
s 19
f 87/143/153 86/144/141 89/145/148 88/146/154
s 17
f 88/147/155 90/139/156 96/127/157 95/148/158
s 16
f 93/118/124 92/149/159 95/150/160 94/126/133
s 17
f 74/119/129 77/121/135 83/136/138 80/135/130
s 19
f 81/131/140 82/151/145 89/152/148 86/132/141
s 17
f 87/143/150 88/146/155 95/150/158 92/149/151
s 16
f 93/118/124 94/126/133 78/120/126 73/115/121
s 17
f 76/125/136 96/127/157 90/139/156 84/129/137
f 91/117/152 75/116/128 79/124/131 85/133/149
s 16
f 73/115/121 74/122/125 75/116/122
f 76/125/132 77/128/127 78/120/126
s 19
f 79/124/139 80/123/143 81/131/140
f 82/138/145 83/130/144 84/129/146
f 85/133/142 86/132/141 87/141/153
f 88/147/154 89/140/148 90/139/147
s 16
f 91/117/123 92/142/159 93/118/124
f 94/126/133 95/148/160 96/127/134
s 21
f 97/153/161 117/154/162 115/155/163 99/156/164
f 98/157/165 101/158/166 102/159/167 97/153/161
s 23
f 99/156/168 103/160/169 104/161/170 98/162/171
s 21
f 100/163/172 120/164/173 118/165/174 102/159/167
s 23
f 101/166/175 107/167/176 108/168/177 100/163/178
s 25
f 103/160/179 109/169/180 110/170/181 105/171/182
f 105/172/182 106/173/183 107/174/184 104/175/185
f 106/176/183 113/177/186 114/178/187 108/168/188
s 23
f 109/169/189 115/155/190 116/179/191 111/180/192
s 25
f 111/181/193 112/182/194 113/183/186 110/184/181
s 23
f 112/185/195 119/186/196 120/164/197 114/178/198
s 21
f 117/154/162 118/165/174 119/187/199 116/188/200
s 23
f 98/157/171 104/175/170 107/174/176 101/158/175
s 25
f 105/171/182 110/170/181 113/189/186 106/190/183
s 23
f 111/181/192 116/188/191 119/187/196 112/182/195
s 21
f 117/154/162 97/153/161 102/159/167 118/165/174
s 23
f 100/163/178 108/168/177 114/178/198 120/164/197
f 115/155/190 109/169/189 103/160/169 99/156/168
s 21
f 97/153/161 99/156/164 98/162/165
f 100/163/172 102/159/167 101/166/166
s 25
f 103/160/179 105/171/182 104/161/185
f 106/176/183 108/168/188 107/167/184
f 109/169/180 111/180/193 110/170/181
f 112/185/194 114/178/187 113/177/186
s 21
f 115/155/163 117/154/162 116/179/200
f 118/165/174 120/164/173 119/186/199
