# This file uses centimeters as units for non-parametric coordinates.

mtllib coral1.mtl
g default
v -0.286590 -1.252517 0.127530
v 0.158432 -1.355236 0.055791
v -0.486755 -0.470263 0.269198
v 0.336084 -0.470263 0.468950
v -0.355128 -0.638294 -0.494445
v 0.617540 -0.470263 -0.735081
v -0.239519 -1.209319 -0.394684
v 0.247784 -1.201929 -0.458406
v -0.064079 -1.303876 0.184292
v -0.070456 -0.671985 0.613512
v 0.081727 -0.565073 -0.874466
v 0.075298 -1.136331 -0.533406
v -0.704425 -0.645086 -0.146687
v -0.355202 -1.262547 -0.133577
v 0.005609 -1.220104 -0.174557
v 0.254935 -1.313514 -0.168500
v 0.620642 -0.579934 -0.133066
v -0.301829 -0.097246 0.794983
v -0.169179 -0.353659 1.188756
v 0.078416 -0.202878 1.061957
v -0.423023 0.413407 1.563951
v -0.169179 0.317641 1.826771
v -0.011772 0.468422 1.671324
v 0.040033 -0.057946 0.882194
v -0.104367 0.613354 1.491562
v 0.271666 -0.165978 0.377105
v 0.288876 -0.210191 -1.106881
v 0.452081 -0.179379 -1.017969
v 0.670318 -0.203926 -0.363014
v 0.666878 -0.186705 -0.484493
v 0.530663 -0.080981 0.231097
v 1.107397 0.352402 0.051152
v 0.821451 0.482138 -0.202004
v 0.777751 0.372772 0.257064
v 1.233589 1.203973 0.184618
v 1.095590 1.228516 -0.038080
v 1.066950 1.267765 0.336506
v 0.597349 0.488013 0.054097
v 0.902950 1.267765 0.154658
v 0.898660 0.018760 -0.841443
v 0.548008 0.088367 -1.030529
v 0.809115 0.138593 -0.517382
v 0.305156 -0.054986 -0.715852
v 0.401083 0.212760 -0.728412
v -0.723364 -0.093039 0.228596
v -0.958742 -0.255955 -0.129704
v -0.633254 -0.245650 -0.391053
v -0.814984 -0.016382 -0.404724
v -0.409361 -0.180456 -0.114809
v -0.630820 0.241645 -0.080702
v -0.496259 -0.275707 -0.607743
v -0.277174 -0.218292 -0.785385
v -0.005944 -0.056915 -1.452599
v 0.177634 0.177471 -1.360898
v -0.199632 0.121060 -1.178894
v -0.071523 0.026494 -0.726068
v 0.006019 0.365846 -1.119577
v 0.372509 0.075723 -0.055822
v 1.067783 0.917047 -0.907249
v 0.763709 0.977407 -1.071218
v 0.990133 1.020961 -0.626236
v 0.636301 1.085276 -0.809233
v 0.019171 0.525508 -1.826771
v 0.216849 0.718963 -1.716140
v -0.174517 0.703483 -1.553066
v 0.048379 0.875776 -1.468390
v -1.049088 0.778351 -0.022918
v -1.233589 0.786384 -0.263932
v -1.066673 0.863372 -0.448928
v -0.871770 0.933419 -0.230971
v 0.195355 0.104537 0.255497
v 0.385673 0.183434 0.121709
v 0.245329 0.859463 0.526988
v 0.435647 0.938360 0.393200
v -0.037917 0.168814 0.125215
v 0.012059 0.923740 0.396705
v 0.127191 0.291821 -0.117806
v 0.177165 1.046747 0.153685
v -0.201323 0.168814 -0.009009
v -0.036216 0.291821 -0.252030
v -0.326945 0.594036 -0.037462
v -0.161837 0.717043 -0.280483
v -0.339159 0.134264 -0.223923
v -0.464780 0.559485 -0.252376
v -0.220738 0.203580 -0.347185
v -0.307465 0.628801 -0.417348
v 0.348155 0.283170 -0.216147
v -0.018928 0.238471 -0.417823
v 0.275622 1.224426 -0.424687
v -0.085831 1.182723 -0.549268
v -0.037624 0.220393 -0.641724
v -0.058191 1.182425 -0.802737
v 0.279472 0.208209 -0.611191
v 0.254232 1.231049 -0.773499
v -0.187264 0.013213 -0.447878
v -0.225114 -0.117803 0.280104
v -0.296890 -0.030567 0.099035
v -0.338015 -0.588563 0.454960
v 0.004979 0.799318 -1.719082
v -1.092426 0.980388 -0.224086
v -0.175842 0.579557 1.753400
v 0.242898 1.038056 0.438791
v 0.106381 1.315570 -0.678383
v -0.356597 0.740067 -0.265764
v 0.881615 1.158865 -0.880319
v 1.090506 1.355236 0.148695
vt 0.318392 0.592258
vt 0.397916 0.503024
vt 0.388256 0.613965
vt 0.318414 0.038901
vt 0.221313 0.001992
vt 0.317485 0.334047
vt 0.451765 0.277396
vt 0.432293 0.372842
vt 0.375208 0.398689
vt 0.349098 0.442873
vt 0.726869 0.319930
vt 0.809371 0.338160
vt 0.530299 0.285735
vt 0.441137 0.262907
vt 0.001920 0.693753
vt 0.041839 0.604870
vt 0.884785 0.451603
vt 0.824399 0.483126
vt 0.701371 0.436364
vt 0.524022 0.161459
vt 0.574992 0.180234
vt 0.412572 0.437616
vt 0.646433 0.230453
vt 0.102931 0.603626
vt 0.110261 0.675908
vt 0.765584 0.512176
vt 0.915744 0.580806
vt 0.623394 0.054028
vt 0.655779 0.077287
vt 0.061988 0.754157
vt 0.359286 0.489908
vt 0.020563 0.303408
vt 0.257401 0.412427
vt 0.393208 0.250366
vt 0.397979 0.074392
vt 0.001920 0.095984
vt 0.505314 0.712808
vt 0.502843 0.611890
vt 0.439148 0.485722
vt 0.099106 0.090221
vt 0.077074 0.114446
vt 0.601675 0.032618
vt 0.587743 0.616192
vt 0.589755 0.696296
vt 0.634711 0.746736
vt 0.066872 0.222973
vt 0.070727 0.244260
vt 0.484761 0.143442
vt 0.187898 0.356006
vt 0.246567 0.357132
vt 0.583268 0.772983
vt 0.693164 0.807359
vt 0.291440 0.103496
vt 0.241365 0.089736
vt 0.704889 0.050405
vt 0.401151 0.214596
vt 0.331274 0.126183
vt 0.190225 0.301934
vt 0.232430 0.307317
vt 0.254152 0.270078
vt 0.403562 0.913926
vt 0.320595 0.950798
vt 0.671399 0.329475
vt 0.150246 0.827325
vt 0.211990 0.799016
vt 0.387546 0.828965
vt 0.207375 0.252803
vt 0.221343 0.220797
vt 0.442569 0.830842
vt 0.262555 0.872225
vt 0.575638 0.325085
vt 0.215470 0.963417
vt 0.206651 0.874598
vt 0.264312 0.239371
vt 0.328452 0.797503
vt 0.685511 0.818719
vt 0.812980 0.964022
vt 0.239199 0.813534
vt 0.902758 0.824063
vt 0.174740 0.248171
vt 0.506609 0.839893
vt 0.435031 0.740774
vt 0.207917 0.195119
vt 0.464890 0.730167
vt 0.402735 0.707579
vt 0.511803 0.722190
vt 0.452005 0.695788
vt 0.889081 0.593764
vt 0.130938 0.734109
vt 0.061778 0.528254
vt 0.160447 0.814077
vt 0.258231 0.620908
vt 0.194455 0.131583
vt 0.244318 0.160832
vt 0.781553 0.218963
vt 0.793246 0.171393
vt 0.931219 0.194917
vt 0.920727 0.222641
vt 0.925759 0.258337
vt 0.784283 0.272709
vt 0.960999 0.822734
vt 0.320848 0.194403
vt 0.196233 0.165566
vt 0.859453 0.758463
vt 0.123675 0.162428
vt 0.160755 0.187550
vt 0.155141 0.286292
vt 0.241532 0.196520
vt 0.266395 0.203602
vt 0.303300 0.245887
vt 0.956920 0.299088
vt 0.811191 0.102748
vt 0.318225 0.282319
vt 0.230682 0.917007
vt 0.120559 0.915959
vt 0.198269 0.933161
vt 0.300910 0.658029
vt 0.305433 0.729963
vt 0.264937 0.689782
vt 0.248924 0.661614
vt 0.805580 0.723487
vt 0.909921 0.767116
vt 0.749248 0.910734
vt 0.882125 0.790257
vt 0.713148 0.856563
vt 0.774016 0.697112
vt 0.758961 0.671776
vt 0.748227 0.634102
vt 0.599853 0.368432
vt 0.644084 0.020380
vt 0.193601 0.904010
vt 0.123274 0.875838
vt 0.875789 0.617069
vt 0.857942 0.644185
vt 0.961881 0.221462
vt 0.798794 0.663184
vt 0.943937 0.430586
vt 0.911342 0.338451
vt 0.911239 0.622497
vt 0.562217 0.531775
vt 0.794118 0.606575
vt 0.654612 0.562597
vt 0.603933 0.841537
vt 0.400060 0.659449
vt 0.308764 0.738615
vt 0.512346 0.942140
vt 0.292889 0.583806
vt 0.123635 0.535742
vt 0.105634 0.839550
vt 0.956200 0.589986
vt 0.731268 0.554380
vt 0.655380 0.493205
vt 0.575782 0.002884
vt 0.712771 0.215268
vt 0.763021 0.307482
vt 0.847635 0.719960
vt 0.891741 0.998008
vt 0.257386 0.879340
vt 0.123010 0.963544
vt 0.960827 0.145628
vt 0.802763 0.332904
vt 0.457621 0.447768
vt 0.579736 0.470924
vt 0.499151 0.608446
vt 0.271555 0.558481
vt 0.252381 0.438496
vt 0.570207 0.329801
vt 0.462046 0.394730
vt 0.148027 0.459478
vt 0.726869 0.319930
vt 0.005173 0.197679
vt 0.060688 0.017939
vn -0.831576 -0.273183 0.483584
vn 0.117987 -0.690709 0.713442
vn 0.043199 -0.672121 0.739180
vn -0.613457 -0.364997 -0.700320
vn -0.186829 -0.539703 -0.820863
vn -0.108366 -0.555920 -0.824142
vn -0.514143 -0.551267 -0.657085
vn -0.777683 -0.625534 -0.062582
vn -0.101596 -0.969559 -0.222786
vn -0.683662 -0.551161 0.478359
vn 0.641420 -0.574567 0.508383
vn 0.802969 -0.574683 0.158050
vn 0.903830 -0.391161 0.173449
vn 0.764094 -0.313020 0.564074
vn -0.772255 -0.123388 0.623215
vn -0.890787 -0.453946 0.020794
vn 0.729030 -0.504652 -0.462430
vn 0.659999 -0.614592 -0.432064
vn 0.875557 -0.281949 0.392307
vn -0.280995 -0.740293 0.610744
vn -0.917276 0.391208 -0.074576
vn -0.224761 -0.655122 0.721317
vn -0.981767 0.125899 -0.142417
vn 0.944975 -0.094832 0.313097
vn 0.440975 0.848616 -0.292219
vn 0.320274 0.772607 -0.548182
vn 0.814433 -0.097497 -0.572008
vn 0.275736 -0.157681 -0.948212
vn 0.903317 0.234850 0.358976
vn 0.785947 0.170856 -0.594218
vn 0.475647 -0.143893 0.867787
vn 0.613185 0.592245 0.522733
vn 0.161361 0.161035 -0.973669
vn 0.939347 -0.317754 0.129074
vn 0.095865 -0.164627 0.981686
vn 0.165060 0.224483 -0.960397
vn 0.956231 -0.181148 0.229799
vn 0.023052 -0.017004 0.999590
vn -0.916101 0.397002 0.056118
vn -0.906065 0.414821 -0.083488
vn -0.119981 -0.058594 -0.991046
vn 0.863006 -0.294128 -0.410741
vn 0.328493 0.002405 0.944503
vn 0.024643 0.972065 -0.233414
vn -0.868008 0.294113 0.400074
vn -0.309060 0.021381 0.950802
vn -0.923280 -0.356134 0.143951
vn -0.117818 -0.070111 -0.990557
vn -0.486430 0.140289 -0.862383
vn 0.904615 0.422391 0.057079
vn 0.143999 0.973838 0.175796
vn -0.770041 0.079715 -0.632995
vn -0.848103 -0.139416 -0.511161
vn -0.372814 -0.578131 -0.725792
vn 0.998664 -0.025890 -0.044720
vn -0.980523 -0.095239 -0.171770
vn -0.243935 0.969686 -0.014321
vn 0.301024 0.609770 0.733189
vn -0.275332 0.877627 -0.392382
vn -0.244961 0.074231 -0.966687
vn 0.906918 -0.136776 -0.398487
vn 0.211993 0.151707 0.965424
vn -0.828489 0.334601 0.449052
vn -0.217616 -0.466939 -0.857095
vn 0.997858 0.058802 -0.028665
vn -0.990918 0.134458 0.001434
vn 0.417479 0.567679 0.709543
vn -0.351268 0.144060 0.925126
vn -0.978404 -0.200196 -0.051444
vn 0.086134 0.010952 -0.996223
vn 0.905770 0.386067 -0.174736
vn 0.985005 0.167722 0.040439
vn -0.011505 0.039662 0.999147
vn 0.975940 0.082293 -0.201912
vn 0.048560 -0.288391 0.956281
vn -0.982144 0.083640 0.168517
vn -0.814553 0.311048 0.489646
vn 0.021866 0.414808 -0.909646
vn -0.031189 0.670052 -0.741659
vn 0.613897 0.789366 0.005656
vn -0.433676 0.503240 0.747445
vn 0.921566 0.388028 0.012230
vn 0.065192 0.182783 0.980990
vn -0.982433 -0.178822 -0.053369
vn -0.995541 -0.024609 -0.091065
vn 0.015604 0.001825 -0.999877
vn -0.398359 0.049313 -0.915903
vn 0.803329 0.282263 0.524394
vn -0.801900 0.245112 0.544864
vn 0.632511 0.215566 0.743950
vn -0.763192 0.132851 0.632367
vn -0.463094 -0.102590 -0.880352
vn -0.523882 0.017390 -0.851614
vn 0.735496 -0.018116 -0.677287
vn 0.787165 0.015940 -0.616537
vn -0.698613 0.635925 -0.327932
vn -0.771580 0.504701 0.387223
vn -0.562989 0.779530 0.274549
vn 0.175371 0.977899 -0.113836
vn 0.256957 0.946621 -0.194634
vn -0.301962 0.691460 -0.656279
vn -0.344515 0.916480 0.203406
vn -0.094990 0.995460 -0.006073
vn -0.409381 0.908694 0.081749
vn 0.017813 0.909154 0.416079
vn -0.319609 0.737832 0.594520
s 1
g coral1_LP corals
usemtl initialShadingGroup
f 98/1/1 9/2/2 10/3/3
f 5/6/4 11/7/5 12/8/6 7/9/7
f 14/10/8 15/22/9 9/2/2 1/31/10
f 2/39/11 16/162/12 17/163/13 4/164/14
f 14/10/8 1/31/10 3/165/15 13/166/16
f 9/2/2 2/39/11 4/164/14 10/3/3
f 12/8/6 11/7/5 6/167/17 8/168/18
f 9/2/2 15/22/9 16/162/12 2/39/11
f 7/9/7 14/10/8 13/166/16 5/6/4
f 7/9/7 12/8/6 15/22/9 14/10/8
f 16/162/12 15/22/9 12/8/6 8/168/18
f 17/163/13 16/162/12 8/168/18 6/167/17
f 10/13/3 4/14/14 20/20/19 19/21/20
f 18/23/21 19/21/20 22/28/22 21/29/23
f 19/21/20 20/20/19 23/42/24 22/28/22
f 23/42/24 20/20/19 24/48/25 25/153/26
f 18/23/21 21/29/23 25/55/26 24/154/25
f 6/36/17 11/172/5 27/40/27 28/41/28
f 17/32/13 6/171/17 30/46/29 29/47/30
f 4/33/14 17/169/13 31/49/31 26/50/32
f 17/11/13 29/12/30 33/17/33 32/18/34
f 31/19/31 17/170/13 32/18/34 34/26/35
f 32/18/34 33/17/33 36/27/36 35/88/37
f 34/26/35 32/18/34 35/88/37 37/133/38
f 34/26/35 37/133/38 39/134/39 38/151/40
f 36/27/36 33/17/33 38/137/40 39/150/39
f 6/15/17 28/16/28 41/24/41 40/25/42
f 30/30/29 6/15/17 40/25/42 42/89/43
f 41/24/41 28/16/28 43/90/44 44/148/45
f 30/30/29 42/89/43 44/91/45 43/149/44
f 13/37/16 3/38/15 45/43/46 46/44/47
f 13/37/16 46/44/47 48/45/48 47/51/49
f 47/51/49 48/45/48 50/52/50 49/143/51
f 45/43/46 3/38/15 49/140/51 50/142/50
f 11/5/5 5/4/4 51/53/52 52/54/53
f 27/61/27 11/62/5 53/66/54 54/69/55
f 11/62/5 52/70/53 55/75/56 53/66/54
f 55/75/56 52/70/53 56/78/57 57/145/58
f 27/61/27 54/69/55 57/81/58 56/146/57
f 34/26/35 38/151/40 58/152/59 31/19/31
f 38/137/40 33/17/33 29/12/30 58/138/59
f 40/25/42 41/24/41 60/92/60 59/120/61
f 42/89/43 40/25/42 59/120/61 61/119/62
f 41/24/41 44/148/45 62/147/63 60/92/60
f 44/91/45 42/89/43 61/119/62 62/118/63
f 54/69/55 53/66/54 63/82/64 64/84/65
f 53/66/54 55/75/56 65/85/66 63/82/64
f 55/75/56 57/145/58 66/144/67 65/85/66
f 57/81/58 54/69/55 64/84/65 66/86/67
f 46/44/47 45/43/46 67/128/68 68/127/69
f 48/45/48 46/44/47 68/127/69 69/126/70
f 50/52/50 48/45/48 69/126/70 70/121/71
f 45/43/46 50/142/50 70/141/71 67/128/68
f 13/35/16 47/57/49 51/53/52 5/4/4
f 24/48/25 20/20/19 4/14/14 26/56/32
f 26/50/32 31/49/31 72/58/72 71/59/73
f 71/95/73 72/96/72 74/97/74 73/98/75
f 71/95/73 73/98/75 76/99/76 75/100/77
f 75/100/77 76/99/76 78/111/78 77/161/79
f 74/97/74 72/96/72 77/112/79 78/160/78
f 75/60/77 77/67/79 80/68/80 79/74/81
f 79/64/81 80/65/80 82/158/82 81/73/83
f 79/64/81 81/73/83 84/131/84 83/132/85
f 83/132/85 84/131/84 86/116/86 85/115/87
f 82/72/82 80/159/80 85/115/87 86/116/86
f 80/68/80 77/67/79 87/80/88 88/83/89
f 88/157/89 87/77/88 89/79/90 90/101/91
f 88/76/89 90/156/91 92/104/92 91/125/93
f 91/125/93 92/104/92 94/124/94 93/123/95
f 89/79/90 87/77/88 93/123/95 94/124/94
f 56/93/57 52/54/53 51/53/52 95/94/96
f 47/57/49 49/102/51 95/94/96 51/53/52
f 88/83/89 91/103/93 56/93/57 95/94/96
f 43/105/44 28/41/28 27/40/27 56/93/57
f 91/103/93 93/106/95 43/105/44 56/93/57
f 30/46/29 43/105/44 58/107/59 29/47/30
f 93/106/95 87/80/88 58/107/59 43/105/44
f 77/67/79 72/58/72 58/107/59 87/80/88
f 58/107/59 72/58/72 31/49/31
f 85/108/87 80/68/80 88/83/89 95/94/96
f 83/109/85 85/108/87 95/94/96 49/102/51
f 75/60/77 79/74/81 97/110/97 96/113/98
f 26/50/32 71/59/73 75/60/77 96/113/98
f 83/109/85 49/102/51 97/110/97 79/74/81
f 24/154/25 26/155/32 96/63/98 18/23/21
f 10/13/3 19/21/20 18/23/21 98/71/1
f 1/31/10 9/2/2 98/1/1 3/165/15
f 96/63/98 3/129/15 98/71/1 18/23/21
f 97/110/97 49/102/51 3/34/15 96/113/98
f 36/27/36 39/150/39 106/139/99
f 60/92/60 105/117/100 59/120/61
f 66/144/67 99/87/101 65/85/66
f 68/127/69 67/128/68 100/136/102
f 92/104/92 103/122/103 94/124/94
f 82/72/82 86/116/86 104/114/104
f 74/97/74 78/160/78 102/135/105
f 101/130/106 23/42/24 25/153/26
f 64/84/65 99/87/101 66/86/67
f 64/84/65 63/82/64 99/87/101
f 65/85/66 99/87/101 63/82/64
f 68/127/69 100/136/102 69/126/70
f 100/136/102 67/128/68 70/141/71
f 69/126/70 100/136/102 70/121/71
f 21/29/23 101/130/106 25/55/26
f 22/28/22 101/130/106 21/29/23
f 22/28/22 23/42/24 101/130/106
f 76/99/76 102/135/105 78/111/78
f 73/98/75 102/135/105 76/99/76
f 74/97/74 102/135/105 73/98/75
f 90/156/91 103/122/103 92/104/92
f 90/101/91 89/79/90 103/122/103
f 94/124/94 103/122/103 89/79/90
f 82/158/82 104/114/104 81/73/83
f 104/114/104 86/116/86 84/131/84
f 81/73/83 104/114/104 84/131/84
f 59/120/61 105/117/100 61/119/62
f 60/92/60 62/147/63 105/117/100
f 61/119/62 105/117/100 62/118/63
f 37/133/38 106/139/99 39/134/39
f 35/88/37 106/139/99 37/133/38
f 36/27/36 106/139/99 35/88/37
