# This file uses centimeters as units for non-parametric coordinates.

mtllib rock4_LP.mtl
g default
v -0.378442 1.176254 -0.088385
v 0.432818 1.185003 -0.019244
v 0.041212 1.116707 -0.607061
v -0.295827 1.161042 -0.485889
v 0.069629 0.956648 -0.798648
v -0.240352 0.959607 -0.760573
v 0.073994 0.585203 -1.040414
v -0.267643 0.532924 -1.109429
v 0.065890 0.121092 -1.372670
v -0.312619 0.256577 -1.346480
v -0.190718 -0.272755 -1.747356
v -0.511839 -0.122566 -1.573871
v 0.688971 0.804425 -0.042107
v 0.831151 0.359571 -0.155150
v 1.301228 -0.343199 -0.328131
v 1.105744 -0.591250 -0.574653
v 0.597965 1.094414 0.314049
v 0.860235 0.764272 0.450685
v 1.043504 0.321305 0.284524
v 1.244568 -0.381186 0.288029
v 1.162677 -0.873427 0.144603
v 1.323554 -0.716909 -0.171389
v 0.997073 -0.840228 -0.391974
v 0.769649 -1.112592 -0.047604
v 0.919454 -0.362284 0.654421
v 0.861917 -0.958787 0.445786
v -0.016334 1.216417 0.597012
v -0.169132 0.958462 0.937504
v 0.244877 0.742648 0.922933
v 0.584952 -0.007196 0.872080
v 0.512114 0.412482 0.869749
v -0.413295 0.494619 1.309367
v 0.083587 0.180318 1.447704
v -0.576111 0.037916 1.610921
v -0.261262 -0.117390 1.761091
v -0.283395 -0.600576 1.654885
v 0.282360 -0.763650 1.187596
v -0.717382 -0.175354 1.423339
v -0.510455 -0.720805 1.491880
v -0.764308 -0.564010 1.381296
v -0.946485 0.274909 -0.556333
v -0.676725 0.357604 -0.793752
v -0.800851 0.223608 -0.449675
v -0.612342 0.397795 -0.720218
v -0.791159 0.361001 -0.261600
v -0.522937 0.528583 -0.511457
v -0.580718 0.685504 -0.491026
v -0.891205 0.500630 -0.208318
v -0.780918 0.885487 0.225971
v -1.164861 0.277679 0.234502
v -1.083082 0.161741 0.295682
v -1.144014 -0.092279 0.132491
v -1.216382 -0.142146 -0.099194
v -0.387334 0.416923 -0.931700
v -0.352244 0.643025 -0.705800
v -0.519755 0.189979 -1.132974
v -0.799458 -0.263528 -1.402786
v -1.019395 -0.310427 -1.171082
v -1.123465 -0.156665 -0.846974
v -1.252995 -0.432736 -0.594829
v -1.084499 0.376275 0.492630
v -1.123126 -0.904453 -0.823608
v -1.222203 -0.683230 0.053063
v -1.152589 -0.578359 0.612041
v -0.971415 -0.071575 0.828581
v -0.905032 0.120068 0.896762
v -1.140372 0.439604 0.404171
v -0.615977 -1.039312 0.605795
v 0.539624 -1.089146 0.257904
v 0.315730 0.179215 1.111918
v 0.400356 -0.951436 0.721701
v 0.113313 -1.009037 0.584282
v 0.297597 -0.243127 1.257986
v -0.173077 1.253287 0.269792
v -0.505279 0.895107 0.635224
v -0.736651 0.517300 0.876590
v 0.277521 1.136127 -0.367701
v 0.495302 0.845083 -0.482214
v 0.594385 0.464283 -0.607547
v 0.881535 -0.230738 -0.895812
v 0.713874 -0.528060 -0.922232
v -0.508846 -0.778612 -1.569409
v -0.174651 -1.253407 -0.064614
v 0.472942 -0.843706 -0.661229
v 0.027725 -1.085544 -0.404617
vt 0.334250 0.484275
vt 0.388422 0.511796
vt 0.359312 0.561083
vt 0.307582 0.535060
vt 0.344428 0.395328
vt 0.427128 0.405951
vt 0.439200 0.554709
vt 0.406539 0.594643
vt 0.341640 0.610623
vt 0.310248 0.582082
vt 0.240067 0.509638
vt 0.237729 0.456321
vt 0.281503 0.403693
vt 0.398651 0.298546
vt 0.350506 0.326359
vt 0.499470 0.471946
vt 0.494610 0.625286
vt 0.443029 0.655567
vt 0.381427 0.634299
vt 0.221944 0.560851
vt 0.197722 0.489635
vt 0.171318 0.438774
vt 0.289994 0.326081
vt 0.162476 0.369460
vt 0.373427 0.250521
vt 0.412698 0.235747
vt 0.314766 0.268908
vt 0.559987 0.590137
vt 0.539709 0.453994
vt 0.410056 0.667877
vt 0.148858 0.499294
vt 0.087766 0.478629
vt 0.217414 0.324901
vt 0.068147 0.421236
vt 0.639606 0.589209
vt 0.325993 0.697159
vt 0.375990 0.700006
vt 0.413877 0.718035
vt 0.367367 0.764537
vt 0.407583 0.762276
vt 0.377659 0.782521
vt 0.321396 0.794293
vt 0.277434 0.743661
vt 0.435639 0.793071
vt 0.398481 0.807581
vt 0.334814 0.810917
vt 0.462320 0.775374
vt 0.248963 0.801796
vt 0.262985 0.822016
vt 0.229006 0.711249
vt 0.287450 0.664648
vt 0.354874 0.828477
vt 0.256258 0.839210
vt 0.453543 0.832263
vt 0.489747 0.817354
vt 0.189320 0.762129
vt 0.235006 0.805617
vt 0.270824 0.875349
vt 0.467971 0.907023
vt 0.503860 0.879926
vt 0.126395 0.731019
vt 0.190597 0.666305
vt 0.175898 0.817595
vt 0.179550 0.845997
vt 0.193428 0.922596
vt 0.430553 0.918721
vt 0.404044 0.819309
vt 0.076477 0.791312
vt 0.094836 0.829763
vt 0.298937 0.889997
vt 0.266083 0.955989
vt 0.085518 0.881492
vt 0.519553 0.967181
vt 0.387411 0.998008
vt 0.390036 0.902506
vt 0.367860 0.844916
vt 0.355078 0.935140
vt 0.219530 0.196644
vt 0.124238 0.230173
vt 0.055813 0.331048
vt 0.249017 0.637259
vt 0.119664 0.569207
vt 0.061612 0.516631
vt 0.062507 0.370299
vt 0.198339 0.287390
vt 0.268340 0.282142
vt 0.268201 0.175353
vt 0.089642 0.121704
vt 0.179361 0.042407
vt 0.341643 0.179803
vt 0.302563 0.008228
vt 0.402113 0.166299
vt 0.384081 0.001992
vt 0.001277 0.451581
vt 0.027703 0.419932
vt 0.023889 0.496531
vt 0.554497 0.884511
vt 0.046308 0.185385
vt 0.028021 0.299154
vt 0.402108 0.350767
vt 0.445695 0.275666
vt 0.484318 0.404631
vt 0.192551 0.612726
vt 0.539878 0.799963
vt 0.488213 0.735261
vt 0.441933 0.688443
vn -0.488695 0.609877 -0.623882
vn -0.474406 0.828108 -0.298625
vn 0.199222 0.901892 -0.383278
vn 0.377695 0.584174 -0.718392
vn -0.306900 0.627706 -0.715401
vn 0.473161 0.520430 -0.710825
vn -0.219544 0.661102 -0.717457
vn 0.517253 0.368731 -0.772325
vn -0.419701 0.387265 -0.820900
vn 0.366550 -0.291491 -0.883558
vn 0.333429 0.897085 -0.289936
vn 0.728410 0.473532 -0.495163
vn 0.703446 0.478109 -0.525904
vn 0.712347 0.320049 -0.624604
vn 0.560450 -0.402367 -0.723876
vn 0.377821 0.913027 -0.153732
vn 0.566689 0.769202 0.295282
vn 0.810227 0.419834 0.408988
vn 0.827890 0.464736 -0.314034
vn 0.908942 0.343443 0.236372
vn 0.835800 0.466004 -0.290309
vn 0.916969 0.146966 0.370902
vn 0.911911 0.303439 -0.276304
vn 0.904261 -0.416875 -0.092348
vn 0.772182 -0.567877 0.285044
vn 0.422384 -0.772370 -0.474380
vn 0.632306 -0.426637 -0.646661
vn 0.286874 -0.933867 -0.213530
vn 0.723470 -0.055180 0.688147
vn 0.563398 -0.632706 0.531287
vn 0.421306 0.561445 0.712237
vn 0.089541 0.884111 0.458618
vn -0.042047 0.740284 0.670978
vn 0.718628 0.111608 0.686380
vn 0.680760 0.266781 0.682198
vn -0.275229 0.644078 0.713732
vn 0.458344 0.402094 0.792617
vn 0.215698 0.110231 0.970218
vn -0.487654 0.362537 0.794204
vn 0.208043 -0.629115 0.748954
vn -0.813794 0.042005 0.579634
vn -0.768196 -0.405772 0.495201
vn -0.221077 -0.843713 0.489156
vn -0.552624 0.710205 -0.436137
vn -0.744688 0.645077 -0.171219
vn -0.691767 0.721843 -0.020053
vn -0.564498 0.781713 -0.265081
vn -0.856583 0.229462 -0.462183
vn -0.744475 0.353428 -0.566432
vn -0.803254 0.383002 -0.456173
vn -0.761171 0.446840 -0.470056
vn -0.459472 0.876465 -0.143853
vn -0.702093 0.711568 0.027138
vn -0.917081 0.181159 -0.355167
vn -0.991407 0.127126 0.030831
vn -0.951843 0.285087 0.112783
vn -0.960969 0.268521 0.066597
vn -0.810316 0.342692 -0.475342
vn -0.729661 0.573047 -0.373111
vn -0.610774 0.631585 -0.477552
vn -0.695073 0.136346 -0.705892
vn -0.789577 0.104407 -0.604704
vn -0.863848 0.367740 -0.344287
vn -0.989999 0.055873 -0.129537
vn -0.403842 -0.873105 -0.273127
vn -0.711031 -0.702450 0.031621
vn -0.194193 0.975473 0.103642
vn -0.565989 0.729962 0.383160
vn -0.832230 -0.496953 0.245828
vn -0.926860 0.121806 0.355097
vn -0.847807 0.287675 0.445496
vn -0.867594 0.152647 0.473265
vn -0.819668 0.557602 0.131244
vn -0.355124 -0.905104 0.233825
vn 0.452428 -0.616210 0.644666
vn 0.718086 0.200491 0.666451
vn 0.056460 -0.937680 0.342883
vn 0.355419 -0.783087 0.510346
vn 0.683625 -0.024976 0.729406
vn -0.670063 0.574465 0.470112
vn 0.041748 -0.804512 -0.592468
vn -0.202227 -0.977598 0.058366
vn 0.151542 -0.975155 0.161582
vn 0.262518 -0.837244 -0.479695
vn -0.014338 -0.975673 -0.218762
s 1
g rock4_LP
usemtl initialShadingGroup
f 6/38/1 4/37/2 3/30/3 5/106/4
f 8/47/5 6/38/1 5/106/4 7/105/6
f 10/55/7 8/47/5 7/105/6 9/104/8
f 12/60/9 10/55/7 9/104/8 11/97/10
f 3/30/3 77/19/11 78/8/12 5/18/4
f 78/8/12 79/7/13 7/17/6 5/18/4
f 7/17/6 79/7/13 80/16/14 9/28/8
f 9/28/8 80/16/14 81/29/15 11/35/10
f 2/9/16 17/10/17 18/4/18 13/3/19
f 19/1/20 14/2/21 13/3/19 18/4/18
f 14/2/21 19/1/20 20/5/22 15/6/23
f 22/100/24 15/6/23 20/5/22 21/15/25
f 23/25/26 16/26/27 15/101/23 22/14/24
f 22/14/24 21/15/25 24/27/28 23/25/26
f 21/15/25 20/5/22 25/13/29 26/23/30
f 29/20/31 17/10/17 27/81/32 28/103/33
f 25/13/29 20/5/22 19/1/20 30/12/34
f 18/4/18 31/11/35 30/12/34 19/1/20
f 31/11/35 18/4/18 17/10/17 29/20/31
f 29/20/31 28/103/33 32/82/36 33/31/37
f 35/32/38 33/31/37 32/82/36 34/83/39
f 36/34/40 35/32/38 34/83/39 38/96/41
f 40/94/42 39/95/43 36/34/40 38/96/41
f 42/67/44 41/76/45 43/52/46 44/45/47
f 44/45/47 43/52/46 45/46/48 46/41/49
f 48/42/50 47/39/51 46/41/49 45/46/48
f 1/36/52 4/37/2 6/38/1 47/39/51
f 48/42/50 49/43/53 1/36/52 47/39/51
f 50/49/54 48/42/50 45/46/48 51/53/55
f 51/53/55 45/46/48 43/52/46 52/58/56
f 52/58/56 43/52/46 41/76/45 53/70/57
f 55/40/58 54/44/59 44/45/47 46/41/49
f 55/40/58 46/41/49 47/39/51 6/38/1
f 6/38/1 8/47/5 54/44/59 55/40/58
f 56/54/60 54/44/59 8/47/5 10/55/7
f 56/54/60 42/67/44 44/45/47 54/44/59
f 57/59/61 56/54/60 10/55/7 12/60/9
f 56/54/60 57/59/61 58/66/62 42/67/44
f 59/75/63 41/76/45 42/67/44 58/66/62
f 41/76/45 59/75/63 60/77/64 53/70/57
f 53/70/57 60/77/64 62/74/65 63/71/66
f 27/81/32 74/51/67 75/50/68 28/62/33
f 52/58/56 64/65/69 65/64/70 51/53/55
f 65/64/70 64/65/69 40/72/42 38/69/41
f 66/63/71 61/57/72 51/53/55 65/64/70
f 65/64/70 38/69/41 34/68/39 66/63/71
f 67/48/73 49/43/53 48/42/50 50/49/54
f 51/53/55 61/57/72 67/48/73 50/49/54
f 68/79/74 39/80/43 40/99/42 64/98/69
f 39/80/43 68/79/74 37/24/75 36/84/40
f 53/70/57 63/71/66 64/65/69 52/58/56
f 59/75/63 58/66/62 62/74/65 60/77/64
f 31/11/35 29/20/31 33/31/37 70/21/76
f 37/24/75 68/79/74 72/85/77 71/33/78
f 33/31/37 35/32/38 73/22/79 70/21/76
f 30/12/34 31/11/35 70/21/76 73/22/79
f 36/34/40 37/24/75 73/22/79 35/32/38
f 25/13/29 30/12/34 73/22/79 37/24/75
f 26/23/30 25/13/29 37/24/75 71/33/78
f 32/61/36 28/62/33 75/50/68 76/56/80
f 75/50/68 74/51/67 1/36/52 49/43/53
f 76/56/80 75/50/68 49/43/53 67/48/73
f 61/57/72 66/63/71 76/56/80 67/48/73
f 66/63/71 34/68/39 32/61/36 76/56/80
f 78/8/12 77/19/11 2/9/16 13/3/19
f 14/2/21 79/7/13 78/8/12 13/3/19
f 80/16/14 79/7/13 14/2/21 15/6/23
f 81/29/15 80/16/14 15/6/23 16/102/27
f 17/10/17 2/9/16 74/51/67 27/81/32
f 2/9/16 77/19/11 1/36/52 74/51/67
f 3/30/3 4/37/2 1/36/52 77/19/11
f 58/66/62 57/59/61 82/73/81 62/74/65
f 64/98/69 63/88/66 83/78/82 68/79/74
f 69/86/83 72/85/77 68/79/74 83/78/82
f 62/89/65 82/91/81 84/90/84 85/87/85
f 83/78/82 63/88/66 62/89/65 85/87/85
f 24/27/28 69/86/83 83/78/82 85/87/85
f 23/25/26 24/27/28 85/87/85 84/90/84
f 81/92/15 16/26/27 23/25/26 84/90/84
f 12/60/9 11/97/10 82/73/81 57/59/61
f 11/93/10 81/92/15 84/90/84 82/91/81
f 21/15/25 26/23/30 69/86/83 24/27/28
f 72/85/77 69/86/83 26/23/30 71/33/78
